<svg width="32" height="32" viewBox="0 0 32 32" fill="none" xmlns="http://www.w3.org/2000/svg">
<path d="M31.5312 23.5519H30.7946L23.8934 12.05C23.5005 11.3951 22.6576 11.1497 21.9745 11.4912L21.1026 11.9272L17.117 7.94161C16.823 7.64768 16.4157 7.49105 16.0012 7.5128C15.5861 7.53424 15.1976 7.73155 14.9355 8.05418L9.38937 14.8802L9.38037 14.8764C8.766 14.6131 8.05037 14.7977 7.64006 15.3253L1.2415 23.5519H0.46875C0.209875 23.5519 0 23.7618 0 24.0207C0 24.2796 0.209875 24.4894 0.46875 24.4894H31.5312C31.7901 24.4894 32 24.2796 32 24.0207C32 23.7618 31.7901 23.5519 31.5312 23.5519ZM15.6632 8.6453C15.7596 8.52661 15.8968 8.45693 16.0496 8.44905C16.2019 8.44111 16.346 8.49636 16.4541 8.60449L20.4822 12.6326L20.2599 13.3925C20.1873 13.641 20.3298 13.9013 20.5783 13.974C20.6222 13.9869 20.6665 13.993 20.7101 13.993C20.9129 13.993 21.0999 13.8602 21.1597 13.6557L21.4026 12.8254L22.3938 12.3298C22.6414 12.2061 22.9471 12.295 23.0896 12.5324L29.7013 23.552H26.6964L19.9747 17.707L20.5842 15.6232C20.6569 15.3747 20.5144 15.1144 20.2659 15.0417C20.0174 14.9691 19.7571 15.1115 19.6844 15.36L19.1959 17.0299L15.9491 14.2066C15.4016 13.7304 14.5997 13.7221 14.0425 14.1866L11.9124 15.9616L10.2852 15.2642L15.6632 8.6453ZM15.7975 23.5519L12.5694 16.6345L14.6427 14.9067C14.8448 14.7382 15.1356 14.7413 15.3341 14.9139L25.2677 23.5519H15.7975ZM8.38006 15.9008C8.52887 15.7095 8.78844 15.6426 9.01106 15.7381L11.6428 16.8659L14.7629 23.5519H6.27544L8.39356 19.7392C8.51931 19.5129 8.43775 19.2276 8.21144 19.1019C7.98512 18.9762 7.69975 19.0577 7.57406 19.284L5.20294 23.5519H2.42919L8.38006 15.9008Z" fill="black"/>
</svg>
