<svg width="32" height="32" viewBox="0 0 32 32" fill="none" xmlns="http://www.w3.org/2000/svg">
<circle cx="11.395" cy="6.71473" r="2.40064" stroke="black" stroke-linecap="round" stroke-linejoin="round"/>
<circle cx="18.2322" cy="9.82276" r="2.40064" stroke="black" stroke-linecap="round" stroke-linejoin="round"/>
<path d="M11.4641 17.1085L10.0828 14.7603L8.90876 16.7632L12.3274 20.8724L13.7432 26.1212C13.6971 26.5471 13.3979 27.461 12.5691 27.7097C11.7403 27.9583 11.2569 27.3068 11.1188 26.95L9.66845 21.7357L6.66422 19.2149L5.93906 22.53L3.38373 27.1917C3.00388 27.4564 2.09916 27.8685 1.51903 27.3989C0.938902 26.9293 1.00106 26.3514 1.10465 26.1212L3.72904 21.7357V16.4179C4.51176 14.9675 6.24984 11.8597 6.94047 11.0309C7.80376 9.995 8.70157 10.0641 10.0828 10.513C11.1878 10.8721 11.6713 11.4683 11.7749 11.7216L13.1216 15.1057H15.6079C15.9992 15.1747 16.7819 15.5339 16.7819 16.4179C16.7819 17.3019 15.9992 17.5919 15.6079 17.6265H12.3274C11.9406 17.6265 11.5907 17.2811 11.4641 17.1085Z" stroke="black" stroke-linecap="round" stroke-linejoin="round"/>
<path d="M20.4077 18.766L16.333 20.0782C15.9647 20.0092 15.1728 19.7398 14.9518 19.2149C14.7308 18.6901 15.0439 18.2135 15.228 18.0409L18.5776 16.7632L20.1315 13.1374C20.2236 13.0338 20.7392 12.7161 22.0652 12.2741C23.3913 11.8321 24.1141 12.3202 24.3098 12.6194L28.6608 18.2826L27.8665 23.0825L30.8017 25.5342C30.9513 25.9025 31.1608 26.7497 30.8017 27.1917C30.4426 27.6337 29.6622 27.514 29.3169 27.3989C28.7644 27.1111 27.3347 26.2524 26.0364 25.1198C24.738 23.9872 24.7357 23.1745 24.8968 22.9098L25.4148 20.4581L22.2724 22.9098L21.0638 26.95C20.7531 27.2838 19.9726 27.8409 19.3373 27.3989C18.7019 26.9569 18.5661 26.3629 18.5776 26.1212L20.1315 21.2523L23.3774 18.0409L21.6509 16.4179L20.4077 18.766Z" stroke="black" stroke-linecap="round" stroke-linejoin="round"/>
</svg>
