<svg width="32" height="32" viewBox="0 0 32 32" fill="none" xmlns="http://www.w3.org/2000/svg">
<g clip-path="url(#clip0)">
<path d="M30.5291 8.98951C31.2405 8.27812 32.0009 7.69856 32.0009 6.43128C32.0009 5.73067 31.728 5.07199 31.2327 4.57665L30.0586 3.40256L30.9157 2.54538C31.319 2.14219 31.319 1.48842 30.9157 1.08523C30.5126 0.682035 29.8588 0.682035 29.4556 1.08523L28.5984 1.9424L27.4243 0.768313C26.9289 0.272904 26.2702 0 25.5696 0C24.3233 0 23.7565 0.72669 23.0114 1.47184L22.3254 0.785801C21.3028 -0.236896 19.6388 -0.23696 18.616 0.785866L18.1562 1.24572C17.1335 2.26835 17.1335 3.93236 18.1562 4.95493L21.871 8.66969L8.66944 21.8713L4.95468 18.1565C3.93205 17.1339 2.26817 17.1338 1.24547 18.1565L0.785552 18.6165C-0.237145 19.6391 -0.237145 21.3031 0.785552 22.3257L1.47159 23.0117L0.767999 23.7153C-0.254698 24.7379 -0.254698 26.4019 0.767999 27.4245L1.94215 28.5987L1.0782 29.4626C0.425659 30.115 0.896933 31.2251 1.80825 31.2251C2.07251 31.2251 2.3367 31.1242 2.5383 30.9226L3.40224 30.0588L4.5764 31.233C5.59903 32.2556 7.26291 32.2557 8.28561 31.233L8.9892 30.5294C9.67478 31.215 10.2611 31.9824 11.5298 31.9824C12.7581 31.9824 13.3561 31.2438 13.8444 30.7555C14.8671 29.7329 14.8671 28.0689 13.8444 27.0463L10.1296 23.3315L23.3312 10.13L27.0459 13.8447C28.0686 14.8674 29.7326 14.8674 30.7551 13.8448C31.2607 13.3393 31.2087 13.3849 31.2152 13.3849C32.2378 12.3621 32.2377 10.6982 31.2151 9.67561L30.5291 8.98951ZM25.1751 2.22841C25.3931 2.01035 25.7459 2.01035 25.9641 2.22841C26.0289 2.2932 29.5654 5.82979 29.7725 6.03687C29.9906 6.25492 29.9906 6.60778 29.7725 6.82583L29.0929 7.50541L24.4956 2.90805L25.1751 2.22841ZM6.43097 29.9361C6.28197 29.9361 6.14193 29.8782 6.03655 29.7728C5.57812 29.3144 2.70195 26.4382 2.22809 25.9644C2.01017 25.7464 2.01004 25.3934 2.22809 25.1754L2.90774 24.4957L7.5051 29.0931C6.80177 29.7965 6.72969 29.9361 6.43097 29.9361ZM12.3843 29.2953L11.9244 29.7553C11.7068 29.9727 11.353 29.9726 11.1354 29.7553L2.24564 20.8655C2.02817 20.648 2.02817 20.2942 2.24564 20.0766C2.72176 19.6004 2.81055 19.4536 3.09998 19.4536C3.24285 19.4536 3.38572 19.508 3.49446 19.6166L12.3842 28.5064C12.6017 28.7239 12.6017 29.0778 12.3843 29.2953ZM29.7549 11.9247L29.295 12.3845C29.0774 12.602 28.7236 12.6019 28.5061 12.3845L19.6164 3.49477C19.3989 3.27724 19.3989 2.92341 19.6165 2.70575C20.0926 2.22957 20.1813 2.08282 20.4707 2.08282C20.6136 2.08282 20.7565 2.13722 20.8652 2.24589L29.755 11.1356C29.9724 11.3532 29.9724 11.7071 29.7549 11.9247Z" fill="black"/>
</g>
<defs>
<clipPath id="clip0">
<rect width="32" height="32" fill="white"/>
</clipPath>
</defs>
</svg>
