<svg width="32" height="32" viewBox="0 0 32 32" fill="none" xmlns="http://www.w3.org/2000/svg">
<path d="M30.1875 8.41717H29.1875C28.6371 8.41717 28.1436 8.6641 27.8109 9.05261H26.6119C26.5531 8.76854 26.3015 8.5551 26 8.5551H21.3001C21.91 8.27304 22.4422 7.80836 22.8029 7.18361L23.0529 6.75061C23.5037 5.96992 23.6234 5.06035 23.3901 4.1896C23.1568 3.31879 22.5983 2.59104 21.8176 2.14029C21.0369 1.68954 20.1273 1.56992 19.2566 1.8031C18.3857 2.03642 17.658 2.59485 17.2073 3.3756L16.9573 3.80867C16.0268 5.42035 16.5809 7.48848 18.1926 8.41898C18.2788 8.46873 18.3664 8.51379 18.4549 8.55517H16.8155C16.4566 8.55517 16.1077 8.62467 15.7843 8.75348C15.7797 8.75517 15.7752 8.75629 15.7707 8.7581L10.9166 10.6733C10.2624 10.9314 9.77606 11.467 9.58206 12.1429C9.38806 12.8188 9.51644 13.5309 9.93419 14.0965L10.9443 15.4644V16.4308L7.86906 21.5389L7.123 22.0429C6.837 22.2362 6.76181 22.6247 6.955 22.9107C7.07581 23.0895 7.27281 23.1859 7.47344 23.1859C7.59387 23.1859 7.71556 23.1511 7.82281 23.0787L8.68325 22.4973C8.75856 22.4464 8.82194 22.3797 8.86881 22.3018L11.005 18.7535C11.2072 20.0192 11.9058 21.1213 12.8944 21.8532L10.3306 24.4693L4.57806 26.8153C4.27087 26.6542 3.92188 26.5626 3.55169 26.5626H2.66637L4.20681 25.5218C4.49281 25.3285 4.568 24.94 4.37481 24.654C4.1815 24.3679 3.79288 24.2929 3.507 24.486L0.27625 26.669C0.109625 26.7812 0 26.9716 0 27.1877V29.6877C0 30.0328 0.279875 30.3127 0.625 30.3127H5.14494C5.49006 30.3127 5.76994 30.0328 5.76994 29.6877V28.781C5.76994 28.4199 5.68269 28.079 5.529 27.7775L10.9224 25.5779C11.0015 25.5456 11.0731 25.4975 11.1328 25.4365L14.0331 22.477C14.5648 22.6807 15.1412 22.7933 15.7437 22.7933H19.5446L21.1818 27.397C21.2476 27.5819 21.3915 27.7162 21.5632 27.7767V28.7501C21.5632 28.8571 21.5741 28.9616 21.5946 29.0626H15.0361C14.691 29.0626 14.4111 29.3425 14.4111 29.6876C14.4111 30.0327 14.691 30.3126 15.0361 30.3126H28C28.3451 30.3126 28.625 30.0327 28.625 29.6876C28.625 28.1076 27.4461 26.7985 25.9218 26.5919L23.0422 19.998C22.7954 19.433 22.3453 18.9933 21.7747 18.7597L18.2241 17.3067L20.372 13.555H26C26.3451 13.555 26.625 13.2752 26.625 12.93V12.9275H27.8109C28.1436 13.316 28.6371 13.563 29.1875 13.563H30.1875C31.1869 13.563 32 12.7499 32 11.7505V10.2297C32 9.23029 31.1869 8.41717 30.1875 8.41717ZM4.51994 29.0627H1.25V27.8127H3.55163C4.08556 27.8127 4.51994 28.247 4.51994 28.781V29.0627ZM18.0397 4.4336L18.2897 4.0006C18.5736 3.50904 19.0318 3.15742 19.5801 3.01054C19.7632 2.96148 19.9489 2.93723 20.1335 2.93723C20.5017 2.93723 20.8652 3.03379 21.1926 3.22285C22.2073 3.80873 22.5562 5.11092 21.9704 6.12567L21.7204 6.55867C21.4366 7.05023 20.9783 7.40186 20.43 7.54873C19.8818 7.69579 19.309 7.62023 18.8175 7.33648C17.8029 6.75054 17.4539 5.44835 18.0397 4.4336ZM10.9396 13.3539C10.7544 13.103 10.6975 12.7873 10.7835 12.4876C10.8696 12.1879 11.0852 11.9504 11.3752 11.836L13.7557 10.8968L11.5459 14.1749L10.9396 13.3539ZM25.5004 27.8129C25.501 27.8129 25.5016 27.8128 25.5023 27.8128C26.3161 27.8137 27.0102 28.3357 27.2679 29.0627H24.6461H23.1258C22.9535 29.0627 22.8133 28.9225 22.8133 28.7502V27.8127H25.4978C25.4987 27.8127 25.4995 27.8129 25.5004 27.8129ZM21.3013 19.9167C21.5693 20.0263 21.7808 20.2329 21.8967 20.4983L24.5451 26.5626H22.2119L20.5747 21.9589C20.4861 21.7097 20.2503 21.5433 19.9858 21.5433H15.7437C13.7866 21.5433 12.1942 19.9509 12.1942 17.9937V16.1896L21.3013 19.9167ZM25.375 12.3025V12.3051H18.3668C18.0216 12.3051 17.7418 12.5849 17.7418 12.9301C17.7418 13.2753 18.0216 13.5551 18.3668 13.5551H18.9316L17.0571 16.8291L12.5168 14.971L15.5428 10.482C15.8286 10.0581 16.3044 9.80504 16.8154 9.80504H25.375V12.3025ZM27.375 11.6776H26.625V10.3026H27.375V11.6776ZM30.75 11.7505C30.75 12.0607 30.4977 12.313 30.1875 12.313H29.1875C28.8773 12.313 28.625 12.0607 28.625 11.7505V10.2297C28.625 9.91954 28.8773 9.66717 29.1875 9.66717H30.1875C30.4977 9.66717 30.75 9.91954 30.75 10.2297V11.7505Z" fill="black"/>
<path d="M6.08128 23.3581C5.96503 23.2419 5.8044 23.175 5.6394 23.175C5.47503 23.175 5.31378 23.2418 5.19759 23.3581C5.08134 23.4744 5.0144 23.635 5.0144 23.8C5.0144 23.9644 5.08128 24.1256 5.19759 24.2418C5.31384 24.3581 5.47509 24.425 5.6394 24.425C5.80378 24.425 5.96503 24.3581 6.08128 24.2418C6.19815 24.1256 6.2644 23.9644 6.2644 23.8C6.2644 23.635 6.19815 23.4744 6.08128 23.3581Z" fill="black"/>
<path d="M13.1142 29.2463C12.998 29.13 12.8367 29.0632 12.6724 29.0632C12.508 29.0632 12.3467 29.13 12.2305 29.2463C12.1143 29.3625 12.0474 29.5238 12.0474 29.6882C12.0474 29.8525 12.1142 30.0138 12.2305 30.13C12.3467 30.2462 12.508 30.3132 12.6724 30.3132C12.8367 30.3132 12.998 30.2463 13.1142 30.13C13.2304 30.0138 13.2974 29.8525 13.2974 29.6882C13.2974 29.5238 13.2305 29.3625 13.1142 29.2463Z" fill="black"/>
</svg>
