<svg width="32" height="32" viewBox="0 0 32 32" fill="none" xmlns="http://www.w3.org/2000/svg">
<g clip-path="url(#clip0)">
<path d="M26.8321 18.3999C26.8321 17.7585 26.5972 17.1709 26.2088 16.7187C26.98 16.2712 27.5 15.436 27.5 14.4819C27.5 13.5275 26.9795 12.6931 26.2078 12.2456C26.5965 11.7932 26.8323 11.2058 26.8323 10.5642C26.8323 9.13935 25.6731 7.98016 24.2483 7.98016H21.3404C20.8665 7.43988 20.1717 7.0976 19.3982 7.0976H18.5667C18.2215 7.0976 17.9417 7.37762 17.9417 7.7226C17.9417 8.06781 18.2215 8.3476 18.5667 8.3476H19.3982C19.8555 8.3476 20.2598 8.57929 20.5 8.93109C20.5061 8.94086 20.5117 8.95063 20.5183 8.9599C20.6529 9.16815 20.732 9.41547 20.732 9.68158V14.4819C20.732 15.2175 20.1336 15.8159 19.3982 15.8159C18.6626 15.8159 18.0642 15.2175 18.0642 14.4819V12.4509C18.0642 12.4501 18.0642 12.4497 18.0642 12.4492C18.0642 12.4489 18.0642 12.4487 18.0642 12.4484V11.6403C18.0642 11.2951 17.7844 11.0153 17.4392 11.0153C17.094 11.0153 16.8142 11.2951 16.8142 11.6403V12.4509C16.8135 14.6516 15.6004 16.6496 13.648 17.665C13.3418 17.8244 13.2227 18.2016 13.3819 18.508C13.4934 18.7221 13.7112 18.8447 13.937 18.8447C14.034 18.8447 14.1326 18.822 14.2249 18.7741C14.4282 18.6682 14.6243 18.5532 14.814 18.4304C14.8294 19.7302 15.8089 20.8017 17.0694 20.9621C16.8252 21.3564 16.6841 21.8205 16.6841 22.3173C16.6841 22.8051 16.8201 23.2617 17.0557 23.6513H14.6946C11.4964 23.6513 8.60646 21.6245 7.50318 18.6079C7.4131 18.3615 7.17848 18.1977 6.91627 18.1977H3.12525C2.78003 18.1977 2.50025 18.4775 2.50025 18.8227C2.50025 19.1677 2.78003 19.4475 3.12525 19.4475H6.49098C6.80274 20.1845 7.20875 20.8652 7.69068 21.4785H0.625001C0.279786 21.4785 0 21.7583 0 22.1035C0 22.4487 0.279786 22.7285 0.625001 22.7285H8.88551C10.4712 24.0964 12.521 24.9016 14.6946 24.9016H19.2669H19.2681H19.2686H23.5806C25.0054 24.9016 26.1643 23.7424 26.1643 22.3176C26.1643 21.6757 25.9287 21.0883 25.5401 20.6362C26.3116 20.1887 26.8321 19.3542 26.8321 18.3999ZM24.2483 9.23017C24.9839 9.23017 25.5823 9.82856 25.5823 10.5642C25.5823 11.2995 24.9839 11.8979 24.2483 11.8979H21.9822V9.68158C21.9822 9.52753 21.9678 9.3769 21.9417 9.23017H24.2483ZM23.5806 23.6516H19.2674C18.5323 23.6511 17.9341 23.0529 17.9341 22.3176C17.9341 21.582 18.5325 20.9836 19.2681 20.9836H23.5806C24.316 20.9836 24.9143 21.582 24.9143 22.3176C24.9143 23.0532 24.3162 23.6516 23.5806 23.6516ZM24.2483 19.7336H17.397C16.6616 19.7336 16.0633 19.1352 16.0633 18.3999C16.0633 17.6643 16.6616 17.0659 17.397 17.0659H24.2483C24.9837 17.0659 25.5821 17.6643 25.5821 18.3999C25.5821 19.1352 24.9837 19.7336 24.2483 19.7336ZM24.9161 15.8159H21.6104C21.846 15.4262 21.9822 14.9697 21.9822 14.4819V13.1479H24.9161C25.6516 13.1479 26.25 13.7463 26.25 14.4819C26.25 15.2175 25.6516 15.8159 24.9161 15.8159Z" fill="black"/>
<path d="M0.625001 11.92H6.82423C6.77931 12.1763 6.89796 12.4439 7.13868 12.576C7.23414 12.6282 7.33717 12.6531 7.43873 12.6531C7.65968 12.6531 7.87355 12.5359 7.98732 12.3287C9.15162 10.2066 11.2691 8.74516 13.6514 8.41899C13.9934 8.37211 14.2327 8.05693 14.1858 7.71513C14.1392 7.37309 13.824 7.13383 13.482 7.18046C11.1255 7.50297 8.99269 8.77958 7.57423 10.67H0.625001C0.279786 10.67 0 10.9498 0 11.295C0 11.6402 0.279786 11.92 0.625001 11.92Z" fill="black"/>
<path d="M29.6829 7.37916C29.805 7.50123 29.9649 7.56226 30.1251 7.56226C30.285 7.56226 30.4449 7.50123 30.567 7.37916C30.8109 7.13501 30.8109 6.73926 30.567 6.49536L28.3795 4.30786C28.1353 4.06372 27.7396 4.06372 27.4954 4.30786C27.2515 4.55176 27.2515 4.94751 27.4954 5.19165L29.6829 7.37916Z" fill="black"/>
<path d="M29.6829 24.6205L27.4954 26.8081C27.2515 27.0522 27.2515 27.448 27.4954 27.6921C27.6175 27.8142 27.7774 27.8752 27.9376 27.8752C28.0975 27.8752 28.2574 27.8139 28.3795 27.6921L30.567 25.5046C30.8109 25.2604 30.8109 24.8647 30.567 24.6205C30.3228 24.3766 29.9271 24.3766 29.6829 24.6205Z" fill="black"/>
<path d="M31.0624 19.6659L29.2228 20.7279C28.9237 20.9006 28.8214 21.2829 28.994 21.5817C29.1098 21.7821 29.3197 21.8942 29.5358 21.8942C29.6417 21.8942 29.7492 21.8673 29.8478 21.8105L31.6872 20.7485C31.9862 20.5758 32.0885 20.1935 31.9159 19.8947C31.7436 19.5956 31.3612 19.4933 31.0624 19.6659Z" fill="black"/>
<path d="M28.994 10.4183C28.8214 10.7174 28.9237 11.0995 29.2228 11.2721L31.0624 12.3341C31.1608 12.391 31.2682 12.4181 31.3742 12.4181C31.5902 12.4181 31.8002 12.306 31.9159 12.1056C32.0885 11.8065 31.9862 11.4242 31.6872 11.2518L29.8478 10.1895C29.5487 10.0169 29.1666 10.1195 28.994 10.4183Z" fill="black"/>
<path d="M31.3752 15.375H30.313C29.9678 15.375 29.688 15.6548 29.688 16C29.688 16.345 29.9678 16.625 30.313 16.625H31.3752C31.7202 16.625 32 16.345 32 16C32 15.6548 31.7202 15.375 31.3752 15.375Z" fill="black"/>
<path d="M16.0671 8.34761C16.4124 8.34761 16.6922 8.06782 16.6922 7.7226C16.6922 7.37763 16.4124 7.0976 16.0671 7.0976H16.0667C15.7214 7.0976 15.4419 7.37763 15.4419 7.7226C15.4419 8.06782 15.7219 8.34761 16.0671 8.34761Z" fill="black"/>
</g>
<defs>
<clipPath id="clip0">
<rect width="32" height="32" fill="white"/>
</clipPath>
</defs>
</svg>
