<svg width="32" height="32" viewBox="0 0 32 32" fill="none" xmlns="http://www.w3.org/2000/svg">
<g clip-path="url(#clip0)">
<path d="M31.9499 18.125L25.3999 5.175C24.6249 3.65 23.0999 2.65 21.3999 2.525C21.3999 2.525 20.7999 0.85 20.5999 0.3C20.5499 0.2 20.3999 0 20.1749 0C20.1749 0 13.9249 0 11.8249 0C11.5999 0 11.4499 0.175 11.4249 0.275C11.2249 0.825 10.6249 2.5 10.6249 2.5C8.92492 2.6 7.39992 3.6 6.62492 5.15L0.049917 18.125C-0.050083 18.325 0.024917 18.575 0.199917 18.7C0.199917 18.7 3.64992 20.825 4.77492 21.525C4.97492 21.65 5.27492 21.575 5.39992 21.35C6.17492 19.85 8.54992 15.35 8.54992 15.35L8.72492 18.1H8.59992C8.07492 18.1 7.67492 18.525 7.64992 19.05V20.05C7.64992 20.575 8.07492 20.975 8.59992 21H8.67492L7.79992 31.575C7.77492 31.825 7.97492 32.05 8.22492 32.05H23.7999C24.0999 32.05 24.2499 31.775 24.2249 31.575C23.9999 28.925 23.3499 21 23.3499 21H23.4249C23.9499 21 24.3499 20.575 24.3749 20.05V19.05C24.3749 18.525 23.9499 18.125 23.4249 18.1H23.2999L23.4749 15.35C23.4749 15.35 25.8249 19.85 26.6249 21.35C26.7499 21.6 27.0499 21.625 27.2499 21.525C28.3749 20.825 31.8249 18.7 31.8249 18.7C31.9749 18.575 32.0499 18.325 31.9499 18.125ZM19.7499 18.075L11.3999 2.9L11.8999 1.5L21.0249 18.075H19.7499ZM20.5999 2.9L17.1499 9.175L16.4999 8.025L19.1749 3.15L20.0999 1.5L20.5999 2.9ZM15.9999 7.1L13.9499 3.375H18.0499L15.9999 7.1ZM18.5249 2.5H13.4749L12.5749 0.875H19.4249L18.5249 2.5ZM9.29992 13.725C9.27492 13.475 9.07492 13.3 8.84992 13.325C8.69992 13.325 8.54992 13.425 8.47492 13.55L4.82492 20.5L0.999917 18.15L7.37492 5.55C7.99992 4.3 9.24992 3.475 10.6499 3.375L18.7499 18.075H9.57492L9.29992 13.725ZM17.8499 19.525C17.8499 19.825 17.5999 20.075 17.2749 20.1H14.6999C14.3999 20.1 14.1249 19.85 14.1249 19.525C14.1249 19.2 14.3749 18.95 14.6999 18.95H17.2999C17.5999 18.95 17.8499 19.2 17.8499 19.525ZM13.6499 24.875L12.6749 24.325L14.5499 20.95H15.8499L13.6499 24.875ZM16.8499 20.95H17.1249L19.1749 26.65L18.1249 27.025L16.2999 21.95L16.8499 20.95ZM8.52492 20.025V19.025C8.52492 19 8.54992 18.975 8.59992 18.95H13.3999C13.2499 19.3 13.2499 19.725 13.3999 20.075H8.57492C8.54992 20.075 8.52492 20.05 8.52492 20.025ZM23.2999 31.125H8.69992L9.54992 20.95H13.5749L11.7249 24.275C11.5999 24.475 11.6749 24.75 11.8999 24.875L13.6499 25.85C13.8499 25.975 14.1249 25.9 14.2499 25.675L15.7499 22.975L17.4749 27.75C17.5499 27.975 17.7999 28.1 18.0249 28.025L19.8999 27.35C20.1249 27.275 20.2499 27.025 20.1749 26.8L18.0749 21H22.4999L23.2999 31.125ZM23.4749 19.025V20.025C23.4749 20.05 23.4499 20.075 23.3999 20.1H18.6249C18.7749 19.75 18.7749 19.325 18.6249 18.975H23.4249C23.4499 18.95 23.4749 18.975 23.4749 19.025ZM27.1749 20.5L23.5249 13.55C23.4499 13.4 23.2749 13.275 23.0499 13.325C22.8499 13.375 22.7249 13.525 22.6999 13.725L22.4249 18.075H22.0249L17.6249 10.075L21.3249 3.375C22.7249 3.45 23.9749 4.275 24.5999 5.55L30.9999 18.15L27.1749 20.5Z" fill="black"/>
</g>
<defs>
<clipPath id="clip0">
<rect width="32" height="32" fill="white"/>
</clipPath>
</defs>
</svg>
