<svg width="32" height="32" viewBox="0 0 32 32" fill="none" xmlns="http://www.w3.org/2000/svg">
<g clip-path="url(#clip0)">
<path d="M31.0625 10.0625H28.4496C27.4142 7.79406 25.1462 6.3125 22.6096 6.3125H17.8125C16.2421 6.3125 14.9152 7.37144 14.506 8.8125H10.9375C9.38669 8.8125 8.125 10.0742 8.125 11.625C8.125 12.3448 8.39712 13.002 8.84344 13.5C8.39712 13.998 8.125 14.6552 8.125 15.375C8.125 16.0948 8.39712 16.752 8.84344 17.25C8.39712 17.748 8.125 18.4052 8.125 19.125C8.125 20.4202 9.00531 21.5131 10.1988 21.8384C10.0711 22.1594 10 22.5089 10 22.875C10 24.4258 11.2617 25.6875 12.8125 25.6875H24.309C25.8598 25.6875 27.3104 24.9951 28.2829 23.8125H31.0625C31.5802 23.8125 32 23.3927 32 22.875V11C32 10.4823 31.5802 10.0625 31.0625 10.0625ZM10.9375 10.6875H14.375V12.5625H10.9375C10.4206 12.5625 10 12.1419 10 11.625C10 11.1081 10.4206 10.6875 10.9375 10.6875ZM10.9375 14.4375H14.375V16C14.375 16.1061 14.383 16.2104 14.3977 16.3125H10.9375C10.4206 16.3125 10 15.8919 10 15.375C10 14.8581 10.4206 14.4375 10.9375 14.4375ZM14.6875 23.8125H12.8125C12.2956 23.8125 11.875 23.3919 11.875 22.875C11.875 22.3581 12.2956 21.9375 12.8125 21.9375H14.6875C15.2044 21.9375 15.625 22.3581 15.625 22.875C15.625 23.3919 15.2044 23.8125 14.6875 23.8125ZM16.5625 20.0625H10.9375C10.4206 20.0625 10 19.6419 10 19.125C10 18.6081 10.4206 18.1875 10.9375 18.1875H16.5625C17.0794 18.1875 17.5 18.6081 17.5 19.125C17.5 19.6419 17.0794 20.0625 16.5625 20.0625ZM30.125 21.9375H27.8125C27.4991 21.9375 27.2063 22.0941 27.0325 22.3549C26.424 23.2676 25.4059 23.8125 24.309 23.8125H17.3388C17.4428 23.5191 17.5 23.2036 17.5 22.875C17.5 22.5089 17.4289 22.1594 17.3012 21.8384C18.4947 21.5131 19.375 20.4202 19.375 19.125C19.375 18.4677 19.1477 17.8629 18.7686 17.3836C19.5207 16.7525 20 15.8064 20 14.75V13.7589C21.1764 14.6057 22.5844 15.0625 24.0625 15.0625C24.5802 15.0625 25 14.6427 25 14.125C25 13.6073 24.5802 13.1875 24.0625 13.1875C22.7008 13.1875 21.4206 12.6572 20.4576 11.6943L19.7254 10.9621C19.4572 10.6939 19.0539 10.6138 18.7037 10.7588C18.3534 10.9039 18.1249 11.2457 18.1249 11.6249V14.7499C18.1249 15.6115 17.424 16.3124 16.5624 16.3124C16.3901 16.3124 16.2499 16.1722 16.2499 15.9999V9.75C16.2499 8.88844 16.9509 8.1875 17.8124 8.1875H22.6096C24.5697 8.1875 26.3032 9.43688 26.9231 11.2965C27.0508 11.6793 27.4089 11.9375 27.8125 11.9375H30.125V21.9375Z" fill="black"/>
<path d="M22.9263 27.5908C22.5403 27.2457 21.9477 27.2787 21.6025 27.6647L19.5661 29.9419L16.7434 28.7708C16.5133 28.6754 16.2549 28.6754 16.0248 28.7708L13.2021 29.9419L11.1656 27.6647C11.0002 27.4797 10.7681 27.3679 10.5204 27.3537L7.46944 27.179L6.62262 24.2424C6.55369 24.0034 6.39262 23.8016 6.17487 23.6814L3.5 22.2049L4.011 19.1932C4.05256 18.9485 3.99531 18.6973 3.85194 18.4947L2.08612 16.0003L3.85181 13.506C3.99519 13.3034 4.05244 13.0522 4.01088 12.8075L3.49988 9.79572L6.17475 8.31922C6.3925 8.19903 6.55356 7.99722 6.6225 7.75822L7.46938 4.8216L10.5203 4.64703C10.7681 4.63285 11.0001 4.52097 11.1656 4.33597L13.202 2.05878L16.0247 3.22991C16.2547 3.32528 16.5133 3.32528 16.7433 3.22991L19.566 2.05878L21.6025 4.33597C21.9476 4.72191 22.5403 4.75497 22.9263 4.40985C23.3122 4.06472 23.3453 3.47203 23.0001 3.0861L20.5201 0.31297C20.2545 0.0159076 19.8301 -0.0807174 19.462 0.0719701L16.384 1.34903L13.306 0.0719701C12.9379 -0.0806549 12.5134 0.0159076 12.2479 0.31297L10.0262 2.79722L6.69906 2.9876C6.30175 3.01035 5.96206 3.28141 5.85181 3.66378L4.92856 6.86541L2.01125 8.47572C1.66237 8.66835 1.47337 9.06041 1.54 9.45328L2.09744 12.739L0.172312 15.4587C-0.0574375 15.7833 -0.0574375 16.2175 0.172312 16.542L2.0975 19.2618L1.54006 22.5473C1.47338 22.9403 1.66244 23.3323 2.01131 23.525L4.92863 25.1353L5.85187 28.3369C5.96212 28.7193 6.30181 28.9904 6.69912 29.0131L10.0263 29.2035L12.248 31.6878C12.4297 31.891 12.6856 32.0004 12.9471 32.0003C13.0678 32.0003 13.1898 31.977 13.3061 31.9287L16.3841 30.6517L19.4621 31.9287C19.8301 32.0813 20.2546 31.9848 20.5203 31.6877L23.0002 28.9146C23.3452 28.5287 23.3122 27.936 22.9263 27.5908Z" fill="black"/>
</g>
<defs>
<clipPath id="clip0">
<rect width="32" height="32" fill="white"/>
</clipPath>
</defs>
</svg>
