<svg width="40" height="36" viewBox="0 0 40 36" fill="none" xmlns="http://www.w3.org/2000/svg">
<path d="M38.606 7.77974L25.4995 12.0145C25.4142 11.9435 25.3203 11.8833 25.2202 11.8354L24.0646 11.284C23.8709 11.1921 23.6581 11.1476 23.4438 11.1543C23.2295 11.161 23.0199 11.2187 22.8323 11.3225L22.5536 11.4807C22.4693 11.3232 22.351 11.1864 22.2072 11.0804C22.0635 10.9743 21.8979 10.9016 21.7225 10.8675L19.7295 10.4829C19.3016 10.4005 18.8912 10.2446 18.5166 10.022L16.0428 8.55467C15.7212 8.364 15.3781 8.21216 15.0207 8.10232L14.0957 7.8217C14.7957 7.3734 15.3416 6.72136 15.6597 5.95338C15.9779 5.18541 16.053 4.33838 15.8751 3.52639C15.7023 2.75895 15.3111 2.05791 14.7487 1.50781C14.1864 0.957717 13.4769 0.582054 12.7059 0.426133C11.9348 0.270212 11.1351 0.34069 10.4032 0.629069C9.67133 0.917449 9.03849 1.41141 8.58104 2.05139L8.18025 1.41857C8.10429 1.25794 7.98682 1.12049 7.83998 1.02043C7.69314 0.920367 7.52226 0.861315 7.34497 0.84937C7.16768 0.837425 6.99041 0.873022 6.83148 0.952484C6.67255 1.03195 6.5377 1.15239 6.44088 1.30139L6.06931 1.87318C5.98546 2.00194 5.93266 2.14841 5.91507 2.30106C5.89749 2.4537 5.91559 2.60835 5.96796 2.7528C6.02033 2.89726 6.10554 3.02757 6.21686 3.13348C6.32819 3.23939 6.46259 3.318 6.60947 3.3631L6.28135 3.48631C6.22314 3.5075 6.16971 3.54002 6.12414 3.58199C6.07858 3.62397 6.04178 3.67455 6.01589 3.73083C5.99 3.7871 5.97551 3.84795 5.97328 3.90986C5.97104 3.97177 5.9811 4.03351 6.00287 4.0915C6.02464 4.1495 6.05769 4.20261 6.10011 4.24775C6.14253 4.2929 6.19348 4.32919 6.25001 4.35452C6.30654 4.37986 6.36753 4.39374 6.42946 4.39536C6.49139 4.39698 6.55302 4.38631 6.6108 4.36396L7.85103 3.89842C7.85236 3.89787 7.85353 3.89717 7.85486 3.8967C7.76702 4.59398 7.86198 5.30212 8.13044 5.95163C8.39889 6.60113 8.8316 7.16968 9.38611 7.60146L7.12283 8.85521C7.10859 8.86311 7.09477 8.87174 7.08143 8.88107C6.48189 9.30006 6.04307 9.80068 5.77674 10.369L4.14252 13.4346C4.13838 13.4424 4.13471 13.4502 4.13088 13.458C4.01745 13.7047 3.98193 13.98 4.02907 14.2474C4.07621 14.5148 4.20376 14.7614 4.39471 14.9544L5.88994 16.457C6.02532 16.5935 6.19156 16.6955 6.37463 16.7542C6.55769 16.813 6.7522 16.8268 6.94174 16.7946L7.38408 17.408L7.21666 17.8386L6.29478 18.1969C6.19279 18.2364 6.10784 18.3104 6.05466 18.406C6.00147 18.5016 5.9834 18.6128 6.00357 18.7203C6.02374 18.8278 6.08088 18.9249 6.1651 18.9947C6.24932 19.0646 6.35531 19.1027 6.46471 19.1026C6.47033 19.1026 6.47603 19.1013 6.48174 19.1011C6.43055 19.23 6.38749 19.3621 6.35283 19.4965C6.34439 19.5277 6.33619 19.559 6.32721 19.5902C6.25804 19.8367 6.10768 20.0526 5.90049 20.203L2.36478 22.714C1.9188 23.0114 1.57587 23.4395 1.38317 23.9397C1.19048 24.4399 1.15747 24.9875 1.28869 25.5072C1.28957 25.5107 1.29051 25.5142 1.2915 25.5177L1.99806 28.0497C2.02814 28.1679 2.05931 28.2873 2.09072 28.4073C2.25838 29.0479 2.43174 29.7107 2.45705 30.3346C2.4583 30.3649 2.46041 30.3958 2.46345 30.4277C2.49988 30.7547 2.6205 31.0667 2.81353 31.3332L2.70127 31.4453C2.35581 31.7918 1.95006 32.0724 1.50392 32.2734C1.26647 32.3803 1.06928 32.5601 0.94097 32.7867C0.812662 33.0133 0.759921 33.2749 0.790404 33.5335C0.820887 33.7921 0.933009 34.0343 1.11049 34.2248C1.28797 34.4154 1.52156 34.5444 1.77736 34.5932C1.85481 34.6081 1.93349 34.6156 2.01236 34.6157C2.25909 34.6156 2.5 34.5407 2.70338 34.4011L3.42338 33.9094C3.70636 33.716 4.01749 33.5673 4.3458 33.4687L5.12189 33.2355C5.29413 33.1833 5.45196 33.0919 5.58305 32.9686C5.71414 32.8453 5.81495 32.6933 5.8776 32.5246C5.93839 32.3635 5.96054 32.1905 5.94228 32.0193C5.92402 31.8481 5.86585 31.6836 5.77244 31.539C5.75517 31.5122 5.73658 31.4858 5.71697 31.4603L5.69525 31.4321C5.75248 31.3333 5.7926 31.2256 5.81392 31.1134L6.92002 27.2801C6.92551 27.2611 6.92979 27.2417 6.93283 27.2222C6.93698 27.1958 6.94829 27.1712 6.96553 27.1509C6.98277 27.1306 7.00527 27.1154 7.03057 27.107C7.07244 27.093 7.11211 27.0731 7.14838 27.0479L11.4128 24.0883C12.4317 23.8254 15.5285 24.9147 18.0555 26.0727L24.5778 33.2812C24.5824 33.2863 24.5871 33.2914 24.5919 33.2962C24.6818 33.3868 24.7887 33.4587 24.9064 33.5079C25.0242 33.557 25.1505 33.5825 25.2781 33.5827H25.2928C25.4793 33.5792 25.6608 33.5219 25.8154 33.4176L25.9482 33.5546C26.0308 33.6395 26.1299 33.7414 26.2094 33.824C26.1291 34.447 26.4047 34.9734 26.9897 35.2938C27.3018 35.4594 27.6605 35.5151 28.0082 35.4519C28.5209 35.3736 29.0408 35.3521 29.5583 35.3879L30.8692 35.6112C31.1737 35.6973 31.4998 35.6618 31.7786 35.5122C32.0086 35.3899 32.1936 35.1976 32.3067 34.9631C32.4199 34.7286 32.4554 34.4641 32.4081 34.208C32.3607 33.952 32.233 33.7177 32.0434 33.5392C31.8538 33.3606 31.6123 33.2472 31.3539 33.2153C30.881 33.1558 30.1756 33.0052 29.7435 32.7765L29.5606 32.6796C29.3524 32.5693 29.1544 32.4408 28.9689 32.2954L27.672 31.2753C27.732 31.0294 27.6932 30.7697 27.5639 30.5522C27.2963 30.1053 27.042 29.6196 26.7728 29.1054C25.3998 26.4836 23.6912 23.2207 17.74 19.5836C17.4464 19.4039 16.3288 18.1504 15.74 17.3804C15.6511 17.2646 15.5995 17.1244 15.5921 16.9786C15.5921 16.9742 15.5916 16.9699 15.5913 16.9655L15.5328 16.2279L22.6359 13.9254L24.2921 14.3426C24.405 14.3729 24.5213 14.3882 24.6381 14.3882C24.8314 14.3887 25.0225 14.3475 25.1983 14.2673C25.3742 14.1872 25.5307 14.07 25.6571 13.9238C25.7835 13.7776 25.8768 13.6059 25.9307 13.4203C25.9846 13.2347 25.9978 13.0396 25.9694 12.8485L38.8942 8.67185C39.0126 8.63363 39.1108 8.54997 39.1674 8.43928C39.2241 8.3286 39.2344 8.19996 39.1962 8.08166C39.1579 7.96336 39.0743 7.86509 38.9636 7.80847C38.8529 7.75185 38.7243 7.74152 38.606 7.77974ZM6.89908 2.4717C6.88894 2.47117 6.87915 2.46783 6.8708 2.46204C6.86245 2.45626 6.85588 2.44827 6.85182 2.43896C6.84722 2.43032 6.84514 2.42056 6.84582 2.4108C6.84649 2.40103 6.8499 2.39165 6.85564 2.38373L7.22721 1.81193C7.23214 1.80325 7.23935 1.79608 7.24807 1.7912C7.25679 1.78633 7.26668 1.78393 7.27666 1.78428C7.279 1.78428 7.2815 1.78428 7.28408 1.78467C7.29491 1.78492 7.3054 1.78845 7.31418 1.79478C7.32297 1.80111 7.32963 1.80995 7.3333 1.82014L7.84205 2.63654L6.89908 2.4717ZM11.2236 1.35607C11.9093 1.20388 12.6261 1.28629 13.2594 1.5901C13.8926 1.8939 14.4055 2.4015 14.7158 3.03154C13.8503 3.03834 12.9854 2.98158 12.1281 2.8617C11.2646 2.74361 10.4114 2.55903 9.57627 2.30959C10.0127 1.82802 10.5886 1.49468 11.2236 1.35607ZM9.03869 3.12568C10.0041 3.43125 10.994 3.65342 11.9974 3.78974C12.8547 3.91003 13.7194 3.97038 14.5851 3.97037C14.7242 3.97037 14.8631 3.96881 15.002 3.96568C15.0247 4.12459 15.0352 4.28501 15.0332 4.44553C14.0622 4.44697 13.0922 4.38426 12.1295 4.25779C11.029 4.11231 9.9411 3.88379 8.8751 3.5742C8.91801 3.42071 8.97271 3.27076 9.03869 3.12568ZM8.83502 5.08084C8.79424 4.89544 8.77034 4.70672 8.76361 4.51701C9.82717 4.81834 10.9111 5.04241 12.007 5.18748C12.958 5.31243 13.9159 5.37766 14.8751 5.38279C14.6578 6.03272 14.2338 6.59371 13.6679 6.98017C13.102 7.36662 12.4251 7.55731 11.7407 7.52314C11.0563 7.48896 10.4018 7.23181 9.87718 6.79091C9.35255 6.35 8.98657 5.74957 8.8351 5.08123L8.83502 5.08084ZM12.7858 8.4042C12.6322 9.51968 12.344 10.6124 11.9274 11.6586C11.379 10.3956 10.544 8.96154 10.1237 8.26443L10.3281 8.15123C11.0805 8.46689 11.9109 8.54705 12.7098 8.38115L12.7858 8.4042ZM7.5983 9.66318L9.30213 8.71927C9.8051 9.55381 10.9867 11.5834 11.3931 12.8833C10.926 13.8577 10.374 14.7891 9.7433 15.6665C9.54539 15.4336 9.27451 15.2745 8.97471 15.2151L8.6808 15.1604C8.69447 15.0917 8.70206 15.0218 8.70346 14.9517C8.70533 14.7876 8.67367 14.6248 8.6104 14.4734C8.54714 14.322 8.45362 14.1851 8.33557 14.0711C8.54717 13.7512 8.67928 13.3853 8.72088 13.004C8.83807 12.0254 8.44228 10.9154 7.5483 9.7006C7.56557 9.68818 7.58143 9.67537 7.59869 9.66318H7.5983ZM9.59729 17.9034C9.56438 17.9598 9.51819 18.0072 9.46274 18.0416C9.40729 18.076 9.34427 18.0964 9.27916 18.1008C9.20841 18.106 9.13752 18.0927 9.07345 18.0623C9.00938 18.0318 8.95433 17.9852 8.91369 17.9271L8.90861 17.9198L7.75479 16.3192L8.10635 16.0067L8.79744 16.1358C8.86073 16.1483 8.92011 16.1758 8.9707 16.2159C9.02129 16.2559 9.06162 16.3074 9.08838 16.3661L9.61752 17.5318C9.64476 17.5906 9.6572 17.6553 9.65374 17.7201C9.65028 17.7848 9.63103 17.8478 9.59768 17.9034H9.59729ZM6.91916 15.8072C6.86836 15.8522 6.80227 15.8761 6.73441 15.874C6.66655 15.8719 6.60206 15.8439 6.55416 15.7958L5.05932 14.2933C5.0043 14.2376 4.9671 14.1669 4.95248 14.09C4.93785 14.0132 4.94646 13.9337 4.97721 13.8618L6.61002 10.7989C6.61408 10.7911 6.61783 10.7833 6.62166 10.7754C6.69033 10.629 6.77376 10.49 6.87064 10.3605C8.03525 11.9908 7.87064 12.9572 7.63728 13.4152L7.60119 13.3814C7.55659 13.3377 7.5037 13.3033 7.44562 13.2803C7.38755 13.2573 7.32547 13.2462 7.26303 13.2475C7.20059 13.2488 7.13904 13.2626 7.08201 13.2881C7.02497 13.3136 6.9736 13.3502 6.93091 13.3957C6.88822 13.4413 6.85507 13.495 6.83341 13.5536C6.81175 13.6122 6.80202 13.6745 6.80478 13.7369C6.80754 13.7993 6.82275 13.8605 6.8495 13.9169C6.87625 13.9734 6.91401 14.0239 6.96057 14.0655L7.68314 14.7426C7.71006 14.7677 7.73143 14.7983 7.74588 14.8322C7.76033 14.8661 7.76755 14.9026 7.76706 14.9395C7.76658 14.9763 7.7584 15.0127 7.74307 15.0462C7.72773 15.0797 7.70556 15.1097 7.67799 15.1341L6.91916 15.8072ZM7.87432 18.5884L8.15666 18.479C8.35459 18.7536 8.64851 18.9437 8.9801 19.0117C8.97502 19.1169 8.97268 19.2244 8.97268 19.3332L7.30244 19.5859C7.36838 19.3788 7.48971 19.1141 7.8751 18.5886L7.87432 18.5884ZM4.99799 32.2002C4.98591 32.2328 4.96645 32.2622 4.94113 32.286C4.91581 32.3099 4.88532 32.3275 4.85205 32.3376L4.07603 32.5709C3.65569 32.697 3.25731 32.8872 2.89494 33.1348L2.17494 33.6265C2.14314 33.6482 2.10736 33.6634 2.06966 33.6713C2.03196 33.6791 1.99308 33.6794 1.95525 33.6722C1.91742 33.665 1.88139 33.6505 1.84921 33.6293C1.81704 33.6081 1.78935 33.5808 1.76775 33.549C1.7443 33.5146 1.72875 33.4755 1.72222 33.4344C1.7157 33.3934 1.71836 33.3514 1.73002 33.3115C1.74134 33.271 1.76149 33.2335 1.78904 33.2017C1.81658 33.1699 1.85083 33.1447 1.88931 33.1277C2.43894 32.8803 2.93885 32.5348 3.36455 32.1081L3.56361 31.9088C3.99821 32.0692 4.47265 32.0867 4.91791 31.9589L4.97385 32.0316C4.97775 32.0367 4.98166 32.0418 4.98463 32.0472C4.99885 32.0698 5.00748 32.0955 5.0098 32.1221C5.01212 32.1487 5.00807 32.1755 4.99799 32.2002ZM27.1293 32.0414L28.3902 33.0325C28.6196 33.2124 28.8646 33.3715 29.1222 33.5079L29.3051 33.6048C29.9889 33.9668 30.9567 34.11 31.2371 34.1452C31.2792 34.1502 31.3196 34.1644 31.3555 34.1868C31.3915 34.2092 31.422 34.2392 31.4449 34.2748C31.4678 34.3095 31.4827 34.3488 31.4887 34.3899C31.4946 34.4311 31.4913 34.473 31.4792 34.5127C31.4683 34.5492 31.4503 34.5832 31.4261 34.6126C31.402 34.6421 31.3722 34.6664 31.3385 34.6842C31.3044 34.7024 31.2669 34.7137 31.2284 34.7173C31.1899 34.7209 31.151 34.7169 31.114 34.7054C31.0944 34.6992 31.0743 34.6945 31.054 34.6911L29.7028 34.4609C29.6945 34.4596 29.6861 34.4583 29.6778 34.4573C29.0675 34.4098 28.4538 34.4334 27.849 34.5276C27.7102 34.555 27.5661 34.535 27.44 34.4708C27.2339 34.3581 27.0582 34.1997 27.1674 33.8085C27.2409 33.5454 27.0932 33.3908 26.922 33.2118C26.8403 33.1265 26.7308 33.0139 26.6205 32.9004L26.4728 32.7484L27.1293 32.0414ZM17.2507 20.3834C22.9806 23.8854 24.6225 27.0209 25.9418 29.5404C26.2174 30.0667 26.4778 30.5638 26.7591 31.0337C26.7622 31.0386 26.7636 31.0443 26.7631 31.0501C26.7625 31.0558 26.7601 31.0612 26.7562 31.0654L25.2974 32.6363C25.2951 32.639 25.2921 32.6412 25.2888 32.6426C25.2855 32.6441 25.2819 32.6449 25.2783 32.6448C25.2725 32.6448 25.2668 32.643 25.262 32.6397L18.6862 25.3721C18.6438 25.3252 18.5923 25.2874 18.5349 25.2609C18.0996 25.0602 16.5546 24.3625 14.9458 23.8164C13.0464 23.1712 11.7746 22.9751 11.0572 23.2163C11.0154 23.2304 10.9758 23.2503 10.9395 23.2754L6.66096 26.2447C6.49467 26.3133 6.34818 26.4225 6.23486 26.5622C6.12153 26.7019 6.04496 26.8677 6.01213 27.0446L4.90635 30.8775C4.90086 30.8965 4.89658 30.9159 4.89353 30.9354C4.89284 30.9434 4.89053 30.9512 4.88672 30.9582C4.88292 30.9652 4.87771 30.9714 4.87142 30.9764C4.6998 31.0597 4.51161 31.1033 4.32083 31.1039C4.13005 31.1044 3.9416 31.062 3.76947 30.9797L3.71744 30.9546C3.5463 30.7891 3.43384 30.5722 3.39713 30.337C3.3958 30.3233 3.39486 30.3099 3.39431 30.2965C3.36486 29.5715 3.17853 28.859 2.9983 28.1701C2.96705 28.0504 2.9358 27.9314 2.90588 27.8133L2.90306 27.8029L2.19658 25.2716C2.11404 24.9397 2.13635 24.5903 2.26046 24.2715C2.38456 23.9528 2.60436 23.6803 2.88963 23.4915C2.89392 23.4887 2.89806 23.4858 2.90228 23.4829L6.44408 20.9672C6.58832 20.8643 6.71832 20.7427 6.83072 20.6057L9.02947 20.2731C9.1076 20.9294 9.26174 21.5114 9.45916 21.7565C9.74666 22.1136 10.0373 22.2111 10.2682 22.2111C10.3759 22.2107 10.4827 22.1902 10.5829 22.1508L16.5935 19.8011C16.7914 20.0179 17.0117 20.2131 17.2507 20.3834ZM15.9135 19.0599L10.2798 21.2623C10.2476 21.2359 10.2184 21.206 10.1928 21.1732C10.0574 20.9578 9.84057 19.7982 9.93064 18.8529C10.1124 18.7463 10.2664 18.5982 10.38 18.4207C10.4935 18.2432 10.5635 18.0414 10.5841 17.8317L14.6153 16.525L14.6556 17.0334C14.6738 17.366 14.792 17.6854 14.9948 17.9497C15.1817 18.1943 15.5331 18.625 15.9135 19.0599ZM10.2298 16.6122L11.4618 16.5615L10.3681 16.9162L10.2298 16.6122ZM15.9103 15.1193C16.0259 14.5828 16.0777 14.0345 16.0647 13.4858C16.8048 13.8101 17.5622 14.0931 18.3335 14.3336L15.9103 15.1193ZM21.7601 13.2227L20.249 13.7126C19.5219 13.8336 17.5641 13.1446 15.9372 12.4038C15.8461 12.3623 15.7458 12.3449 15.646 12.3534C15.5462 12.3619 15.4502 12.3959 15.3674 12.4522C15.2845 12.5084 15.2175 12.5851 15.1729 12.6747C15.1282 12.7644 15.1074 12.864 15.1124 12.964C15.1722 14.1777 15.0264 15.1984 14.7571 15.4879L10.9043 15.6461C11.7465 14.3868 13.2574 11.7722 13.6945 8.67974L14.7469 8.99896C15.0328 9.08695 15.3072 9.20847 15.5645 9.36099L18.0383 10.8286C18.5058 11.1063 19.0179 11.3008 19.5519 11.4035L21.5449 11.788C21.6054 11.7997 21.6599 11.8321 21.6992 11.8796C21.7385 11.9271 21.76 11.9868 21.7601 12.0484V13.2227ZM24.9242 13.3344C24.8733 13.384 24.8105 13.4194 24.7418 13.4373C24.6731 13.4552 24.6009 13.455 24.5324 13.4365L24.5239 13.4343L22.6974 12.974V12.4769L23.2894 12.141C23.346 12.1099 23.4091 12.0928 23.4736 12.0909C23.5382 12.089 23.6022 12.1025 23.6605 12.1301L24.8161 12.6817C24.8748 12.7097 24.9258 12.7514 24.9648 12.8033C25.0039 12.8553 25.0298 12.9159 25.0404 12.98C25.0511 13.0441 25.046 13.1098 25.0258 13.1715C25.0055 13.2333 24.9707 13.2892 24.9242 13.3346V13.3344Z" fill="black"/>
</svg>
