<svg width="64" height="78" viewBox="0 0 64 78" fill="none" xmlns="http://www.w3.org/2000/svg">
<g filter="url(#filter0_f)">
<ellipse cx="32.0003" cy="64.1666" rx="23.1429" ry="5.83333" fill="#13152D" fill-opacity="0.5"/>
</g>
<path fill-rule="evenodd" clip-rule="evenodd" d="M37.728 54.1634C37.8671 53.9204 38.1028 53.7477 38.3747 53.6813C50.21 50.793 59 40.0426 59 27.2222C59 12.1878 46.9117 0 32 0C17.0883 0 5 12.1878 5 27.2222C5 40.0423 13.7897 50.7926 25.6246 53.6812C25.8966 53.7475 26.1322 53.9203 26.2714 54.1632L31.1319 62.6513C31.516 63.322 32.4834 63.322 32.8675 62.6513L37.728 54.1634Z" fill="#0068DE"/>
<circle cx="32" cy="27" r="15" fill="white"/>
<path d="M47 27C47 18.7172 40.2828 12 32 12C31.0514 12 30.126 12.0925 29.2237 12.2545C29.1542 12.3008 29.0925 12.3393 29.0231 12.3856C27.9357 13.1645 27.1414 14.1748 26.856 15.509C26.1311 18.8715 28.4293 21.6941 31.2057 22.5193C32.455 22.8895 33.5578 22.1414 33.6658 20.8997C33.7352 20.1208 33.5039 19.419 33.0103 18.8175C32 17.6067 30.7661 17.5758 29.6864 18.7249C29.6401 18.7712 29.5784 18.8098 29.5013 18.8715C29.455 18.1003 29.5553 17.3907 29.7866 16.6967C30.3573 14.9923 31.7455 13.928 33.3959 13.9589C34.3753 13.9743 35.2622 14.2905 36.0488 14.8689C37.0129 15.5784 37.4602 16.5424 37.3599 17.7378C37.3213 18.2159 37.2211 18.7018 37.1054 19.1722C36.9743 19.6889 36.7892 20.1979 36.6118 20.7532C40.3445 20.0283 43.2828 21.3393 45.7584 24.1465C44.1003 23.8997 42.5656 24.0925 41.0617 24.5398C40.0051 24.856 38.964 25.2185 37.9152 25.5578C36.6273 25.982 35.3393 26.3753 33.9743 26.4524C33.3882 26.4833 32.7943 26.4524 32.2005 26.4524L30.8046 26.1671C30.5039 26.0591 30.1954 25.9589 29.8946 25.8432C26.6632 24.6324 24.7738 22.3496 24.4113 18.8792C24.2725 17.5219 24.4113 16.1799 24.7121 14.8612C24.8046 14.4447 24.9357 14.0514 25.0823 13.6735C20.2853 16.1799 17 21.2082 17 27C17 35.2828 23.7172 42 32 42C32.964 42 33.8972 41.9075 34.8072 41.7378C34.9846 41.6144 35.162 41.491 35.3316 41.3522C36.3728 40.5193 37.1131 39.4704 37.3291 38.1208C37.8766 34.7198 35.4319 32.0283 32.617 31.3496C31.3445 31.0411 30.2879 31.8509 30.2494 33.1003C30.2262 33.8792 30.4884 34.5733 31.0129 35.144C32.0848 36.3008 33.3188 36.2622 34.3368 35.0591C34.383 35.0051 34.437 34.9666 34.5141 34.8972C34.599 35.6684 34.5373 36.3856 34.3445 37.0874C33.8663 38.8149 32.5398 39.9563 30.8817 40.0103C29.9023 40.0411 29 39.7789 28.1825 39.2391C27.1799 38.5835 26.6864 37.6427 26.7249 36.4473C26.7404 35.9614 26.8098 35.4756 26.9023 35.0051C27.0026 34.4807 27.1645 33.964 27.3111 33.3933C23.6247 34.3188 20.617 33.162 17.9949 30.4936C19.6607 30.6555 21.1877 30.3779 22.6607 29.8535C23.7018 29.4833 24.7198 29.0668 25.7455 28.6658C27.0026 28.1722 28.2751 27.7172 29.6324 27.563C30.2185 27.5013 30.8123 27.4936 31.4062 27.4704L32.8175 27.6864C33.126 27.7789 33.4422 27.8638 33.7429 27.964C37.036 29.0051 39.0411 31.1799 39.5887 34.6273C39.8046 35.9769 39.7352 37.3188 39.4961 38.6607C39.3959 39.2237 39.2416 39.7558 39.0488 40.2571C43.7841 37.7198 47 32.7378 47 27Z" fill="#0068DE"/>
<defs>
<filter id="filter0_f" x="0.857422" y="50.3333" width="62.2857" height="27.6667" filterUnits="userSpaceOnUse" color-interpolation-filters="sRGB">
<feFlood flood-opacity="0" result="BackgroundImageFix"/>
<feBlend mode="normal" in="SourceGraphic" in2="BackgroundImageFix" result="shape"/>
<feGaussianBlur stdDeviation="4" result="effect1_foregroundBlur"/>
</filter>
</defs>
</svg>
