<?xml version="1.0" standalone="no"?>
<!DOCTYPE svg PUBLIC "-//W3C//DTD SVG 20010904//EN"
 "http://www.w3.org/TR/2001/REC-SVG-20010904/DTD/svg10.dtd">
<svg version="1.0" xmlns="http://www.w3.org/2000/svg"
 width="700.000000pt" height="700.000000pt" viewBox="0 0 700.000000 700.000000"
 preserveAspectRatio="xMidYMid meet">
<metadata>
Created by potrace 1.11, written by Peter Selinger 2001-2013
</metadata>
<g transform="translate(0.000000,700.000000) scale(0.100000,-0.100000)"
fill="#000000" stroke="none">
<path d="M3279 6995 c-2 -1 -44 -6 -92 -10 -48 -3 -96 -8 -105 -10 -9 -1 -46
-6 -82 -11 -36 -4 -67 -8 -70 -9 -3 -1 -23 -5 -45 -9 -66 -12 -229 -143 -338
-271 -139 -164 -230 -363 -264 -580 -10 -64 -10 -348 0 -400 22 -117 32 -157
59 -235 123 -348 382 -639 726 -813 320 -163 542 -160 701 8 87 91 123 197
120 343 -5 220 -123 430 -312 553 -198 129 -395 93 -612 -113 -21 -21 -42 -38
-45 -38 -12 0 -1 220 16 313 83 460 371 767 769 823 283 40 637 -85 843 -296
243 -249 265 -549 81 -1117 -27 -84 -49 -156 -49 -159 0 -6 13 -4 85 10 11 2
49 7 85 11 36 4 79 9 95 11 55 7 319 6 375 0 133 -16 175 -23 274 -46 289 -67
567 -206 829 -414 116 -91 377 -345 377 -365 0 -7 -4 -10 -9 -6 -32 19 -466
29 -581 12 -30 -4 -75 -10 -100 -13 -25 -3 -52 -7 -60 -9 -8 -2 -31 -7 -50
-10 -125 -21 -293 -70 -797 -236 -423 -138 -690 -217 -803 -235 -14 -3 -36 -7
-50 -9 -14 -3 -37 -8 -52 -10 -16 -3 -40 -7 -55 -10 -66 -12 -222 -19 -403
-18 -184 0 -205 2 -365 36 -514 108 -984 378 -1256 723 -173 218 -296 489
-354 774 -51 257 -60 476 -30 800 2 25 13 104 21 150 2 14 7 41 10 60 20 127
75 330 107 397 6 13 8 26 4 29 -16 17 -462 -266 -549 -349 -7 -7 -38 -32 -68
-57 -386 -315 -758 -806 -954 -1260 -16 -36 -36 -83 -46 -105 -56 -127 -149
-421 -174 -551 -30 -148 -47 -244 -52 -282 -2 -26 -7 -63 -9 -82 -27 -207 -27
-661 0 -821 2 -13 6 -46 9 -74 9 -78 23 -156 51 -285 30 -141 110 -393 173
-551 50 -125 156 -337 226 -453 36 -60 66 -111 66 -113 0 -2 5 -9 10 -16 6 -7
40 -55 76 -107 194 -277 402 -497 707 -746 81 -66 357 -254 374 -254 3 0 14
-6 22 -14 29 -25 304 -161 431 -213 165 -67 424 -150 563 -179 295 -62 465
-79 777 -79 214 1 355 9 477 29 21 4 54 9 73 11 19 3 44 7 55 9 11 3 25 5 32
5 15 1 177 129 238 188 192 187 308 392 351 618 2 11 7 31 10 45 14 56 12 356
-2 435 -81 438 -367 813 -779 1020 -169 85 -308 127 -429 131 -85 2 -108 -1
-164 -22 -141 -53 -223 -144 -263 -292 -56 -207 25 -458 200 -620 118 -110
223 -157 351 -155 128 1 242 61 364 190 30 32 58 55 61 51 15 -15 8 -291 -9
-373 -30 -141 -48 -200 -93 -295 -177 -378 -524 -564 -937 -503 -355 52 -661
282 -743 557 -25 85 -27 97 -27 226 -1 202 17 323 89 596 19 73 35 136 35 141
0 5 -48 -1 -106 -13 -164 -34 -290 -48 -454 -47 -121 0 -275 12 -345 27 -5 1
-37 8 -70 15 -140 29 -306 87 -455 159 -90 43 -244 132 -248 144 -2 4 -8 8
-14 8 -10 0 -194 133 -213 154 -5 6 -23 22 -40 35 -56 43 -214 194 -210 201 2
3 29 3 61 0 94 -11 308 -3 454 15 97 12 299 56 395 85 117 36 344 120 690 255
351 137 569 215 706 254 102 28 301 69 379 77 36 3 94 9 130 13 84 8 352 7
410 -2 25 -4 65 -12 90 -17 25 -5 64 -11 88 -14 45 -6 158 -38 307 -88 556
-185 949 -523 1158 -995 65 -146 120 -328 147 -483 6 -36 13 -76 16 -90 25
-143 26 -611 0 -735 -2 -11 -7 -45 -11 -75 -11 -88 -54 -276 -86 -373 -16 -50
-28 -91 -27 -93 5 -4 181 100 277 165 392 262 753 623 991 991 5 8 22 33 36
55 82 123 221 393 286 555 70 173 157 457 184 600 18 96 44 255 49 305 4 33 9
71 11 85 9 47 11 525 4 605 -16 167 -22 220 -25 225 -2 3 -6 30 -10 60 -9 75
-69 337 -99 435 -202 665 -589 1255 -1101 1680 -33 28 -62 53 -65 56 -8 9
-190 143 -239 175 -273 179 -549 316 -839 414 -177 59 -436 122 -567 136 -27
3 -53 8 -56 9 -3 2 -35 7 -71 10 -35 4 -78 9 -94 11 -34 6 -540 14 -545 9z"/>
</g>
</svg>
