<svg width="25" height="24" viewBox="0 0 25 24" fill="none" xmlns="http://www.w3.org/2000/svg">
<path fill-rule="evenodd" clip-rule="evenodd" d="M12.4935 0C9.23448 0 8.82587 0.0138139 7.54595 0.0722133C6.26864 0.130517 5.39636 0.333343 4.63303 0.630008C3.84392 0.936677 3.17471 1.347 2.50759 2.01411C1.84048 2.68123 1.43016 3.35044 1.12349 4.13954C0.826826 4.90288 0.624 5.77516 0.565696 7.05246C0.507297 8.33234 0.49353 8.741 0.49353 12C0.49353 15.2591 0.507297 15.6677 0.565696 16.9476C0.624 18.2249 0.826826 19.0972 1.12349 19.8605C1.43016 20.6496 1.84048 21.3188 2.50759 21.9859C3.17471 22.6531 3.84392 23.0634 4.63303 23.37C5.39636 23.6667 6.26864 23.8695 7.54595 23.9278C8.82587 23.9862 9.23448 24 12.4935 24C15.7525 24 16.1612 23.9862 17.4411 23.9278C18.7184 23.8695 19.5907 23.6667 20.354 23.37C21.1431 23.0634 21.8123 22.6531 22.4794 21.9859C23.1465 21.3188 23.5569 20.6496 23.8635 19.8605C24.1602 19.0972 24.363 18.2249 24.4213 16.9476C24.4797 15.6677 24.4935 15.2591 24.4935 12C24.4935 8.741 24.4797 8.33234 24.4213 7.05246C24.363 5.77516 24.1602 4.90288 23.8635 4.13954C23.5569 3.35044 23.1465 2.68123 22.4794 2.01411C21.8123 1.347 21.1431 0.936677 20.354 0.630008C19.5907 0.333343 18.7184 0.130517 17.4411 0.0722133C16.1612 0.0138139 15.7525 0 12.4935 0ZM12.4951 5.83854C9.09187 5.83854 6.33296 8.59745 6.33296 12.0007C6.33296 15.404 9.09187 18.1629 12.4951 18.1629C15.8984 18.1629 18.6573 15.404 18.6573 12.0007C18.6573 8.59745 15.8984 5.83854 12.4951 5.83854ZM8.49512 12.0003C8.49512 14.2095 10.286 16.0003 12.4951 16.0003C14.7043 16.0003 16.4952 14.2095 16.4952 12.0003C16.4952 9.7912 14.7043 8.0003 12.4951 8.0003C10.286 8.0003 8.49512 9.7912 8.49512 12.0003ZM20.3406 5.59394C20.3406 6.38924 19.6959 7.03397 18.9006 7.03397C18.1053 7.03397 17.4606 6.38924 17.4606 5.59394C17.4606 4.79864 18.1053 4.15396 18.9006 4.15396C19.6959 4.15396 20.3406 4.79864 20.3406 5.59394Z" fill="#13152D"/>
</svg>
