<svg width="40" height="44" viewBox="0 0 40 44" fill="none" xmlns="http://www.w3.org/2000/svg">
<g filter="url(#filter0_f)">
<ellipse cx="20" cy="33" rx="12" ry="3" fill="#13152D" fill-opacity="0.5"/>
</g>
<path fill-rule="evenodd" clip-rule="evenodd" d="M22.8643 28.0389C23.004 27.797 23.2393 27.6262 23.5098 27.5564C29.5431 25.9989 34 20.5199 34 14C34 6.26801 27.732 0 20 0C12.268 0 6 6.26801 6 14C6 20.5199 10.4569 25.9989 16.4902 27.5564C16.7607 27.6262 16.996 27.797 17.1357 28.0389L19.134 31.5C19.5189 32.1667 20.4811 32.1667 20.866 31.5L22.8643 28.0389Z" fill="#0068DE"/>
<circle cx="20" cy="14" r="5" fill="white"/>
<defs>
<filter id="filter0_f" x="0" y="22" width="40" height="22" filterUnits="userSpaceOnUse" color-interpolation-filters="sRGB">
<feFlood flood-opacity="0" result="BackgroundImageFix"/>
<feBlend mode="normal" in="SourceGraphic" in2="BackgroundImageFix" result="shape"/>
<feGaussianBlur stdDeviation="4" result="effect1_foregroundBlur"/>
</filter>
</defs>
</svg>
