<svg width="30" height="32" viewBox="0 0 30 32" fill="none" xmlns="http://www.w3.org/2000/svg">
<path d="M0.638731 29.1347L5.08047 22.5712C5.08123 22.5701 5.08192 22.569 5.08274 22.5679L15.8873 6.60212C16.2676 6.04016 16.8689 5.60641 17.5729 5.37463C17.7783 2.37674 20.2812 0 23.3303 0H25.2713C26.4295 0 27.3769 0.917885 27.4253 2.06438C28.5532 2.13279 29.45 3.07159 29.45 4.21637C29.45 4.50148 29.2189 4.7325 28.9338 4.7325C28.6488 4.7325 28.4177 4.50148 28.4177 4.21637C28.4177 3.64195 27.9844 3.16752 27.4276 3.10098C27.4269 4.52701 27.4232 5.81733 27.4028 6.98468C27.4037 6.9875 27.4046 6.99025 27.4055 6.99308C27.4077 7.00058 27.4094 7.00822 27.4113 7.01579C27.4134 7.02418 27.4159 7.03244 27.4176 7.04104C27.4202 7.05405 27.422 7.06726 27.4236 7.08047C27.424 7.08385 27.4247 7.08708 27.4251 7.09045C27.427 7.10938 27.4278 7.12844 27.4276 7.14764C27.4275 7.49592 27.4092 7.8365 27.3746 8.1702C27.3274 9.68411 27.2379 10.9678 27.0686 12.0574C26.7079 14.3786 25.9734 15.9241 24.5334 17.3916C24.5328 17.3923 24.5321 17.393 24.5314 17.3936C24.5313 17.3936 24.5312 17.3937 24.5312 17.3937C24.2618 17.6649 24.0031 17.9235 23.7547 18.1718C20.5677 21.357 19.1615 22.7634 18.7267 27.3638V27.3642C18.7267 27.3953 18.7235 27.4255 18.7183 27.4551C18.627 28.4587 18.5807 29.6124 18.5716 30.9679H23.6156C23.9007 30.9679 24.1318 31.1989 24.1318 31.4841C24.1318 31.7692 23.9007 32.0002 23.6156 32.0002H18.0538H12.2814C11.9963 32.0002 11.7652 31.7692 11.7652 31.4841C11.7652 31.1989 11.9963 30.9679 12.2814 30.9679H13.3557C13.3815 29.8648 13.4907 28.8371 13.6856 27.8803H12.2798C11.9947 27.8803 11.7637 27.6493 11.7637 27.3642V22.8633C11.7637 22.5782 11.9947 22.3472 12.2798 22.3472C12.5648 22.3472 12.7959 22.5782 12.7959 22.8633V26.848H13.937C14.3418 25.4285 14.9573 24.1771 15.7902 23.074C17.2227 21.177 19.1017 19.9768 20.7594 18.918C21.9028 18.1877 22.9826 17.498 23.7965 16.6686C25.0482 15.3929 25.6969 14.0378 26.0332 11.9845C25.3618 13.017 24.446 13.9627 23.2782 14.8315C20.8424 16.6437 17.6555 17.9281 14.2815 19.2879C13.5741 19.573 12.861 19.8606 12.1504 20.1551L5.68207 29.7133C5.58607 29.8552 5.42593 29.9402 5.25465 29.9402H3.55342C3.26838 29.9402 3.03729 29.7092 3.03729 29.4241C3.03729 29.139 3.26838 28.9079 3.55342 28.9079H4.98075L10.3977 20.9035C8.80658 21.607 7.26548 22.3688 5.87152 23.2441L1.49358 29.7133C1.39379 29.8608 1.23118 29.9403 1.06567 29.9403C0.966166 29.9403 0.865486 29.9115 0.77685 29.8515C0.540874 29.6916 0.479008 29.3707 0.638731 29.1347ZM17.5396 30.9678C17.5475 29.807 17.5824 28.7878 17.6488 27.8802H16.1588C15.8738 27.8802 15.6427 27.6491 15.6427 27.364V25.2877C14.9193 26.7491 14.4479 28.5824 14.3885 30.9678H17.5396ZM16.6749 23.6303V26.8479H17.7429C17.9286 25.1829 18.249 23.9227 18.7392 22.8171C19.1034 21.9955 19.5541 21.2796 20.1057 20.5739C18.8817 21.3964 17.6679 22.3362 16.6749 23.6303ZM11.6129 19.2604C11.6152 19.2595 11.6175 19.2585 11.6198 19.2576C12.3788 18.9418 13.1405 18.6347 13.8957 18.3304C17.2063 16.9962 20.3333 15.736 22.6622 14.0032C24.9144 12.3276 26.1019 10.4288 26.3468 8.08569C26.3524 7.90167 26.3572 7.71352 26.3615 7.52145C23.6368 6.7977 21.0957 7.48808 18.3994 9.67826C18.3038 9.75602 18.1886 9.7938 18.0743 9.7938C17.9242 9.7938 17.7754 9.7287 17.6734 9.60311C17.4937 9.38186 17.5273 9.05684 17.7486 8.87709C19.2153 7.68572 20.6227 6.91449 22.0515 6.51913C23.4761 6.12508 24.8985 6.1054 26.3796 6.46057C26.3923 5.4482 26.3949 4.33115 26.3954 3.09224H23.5038C23.2188 3.09224 22.9877 2.86122 22.9877 2.57611C22.9877 2.291 23.2188 2.05998 23.5038 2.05998H26.3905C26.3414 1.48521 25.8587 1.03226 25.2713 1.03226H23.3302C20.7173 1.03226 18.5914 3.15727 18.59 5.76992C18.59 5.77047 18.5899 5.77095 18.5899 5.77143C18.5899 5.77184 18.5899 5.77219 18.5899 5.77253C18.5899 5.77363 18.5898 5.77473 18.5898 5.77584C18.5897 5.79208 18.5889 5.80825 18.5874 5.82421C18.5869 5.82869 18.586 5.83309 18.5854 5.8375C18.5839 5.84981 18.5823 5.86206 18.5799 5.87411C18.5783 5.88195 18.5761 5.88945 18.5742 5.89716C18.5721 5.90556 18.5703 5.91409 18.5677 5.92235C18.5649 5.93198 18.5613 5.94127 18.5578 5.95063C18.5555 5.95676 18.5535 5.96295 18.551 5.96901C18.5469 5.97898 18.5421 5.98855 18.5375 5.99818C18.5349 6.00341 18.5326 6.00885 18.5299 6.01394C18.525 6.02316 18.5196 6.03197 18.5141 6.04085C18.5109 6.04622 18.5078 6.05166 18.5044 6.05695C18.4992 6.0648 18.4935 6.07223 18.4879 6.07973C18.4835 6.08565 18.4793 6.09171 18.4746 6.09749C18.4695 6.10382 18.464 6.10967 18.4586 6.11572C18.4528 6.12219 18.4472 6.12873 18.4411 6.13492C18.4362 6.13995 18.4309 6.14456 18.4257 6.14944C18.4187 6.15598 18.4118 6.16266 18.4044 6.16878C18.3993 6.17305 18.3938 6.1769 18.3885 6.18103C18.3806 6.18709 18.3729 6.19321 18.3647 6.19886C18.3586 6.20298 18.3523 6.20663 18.346 6.21049C18.3382 6.21537 18.3305 6.2204 18.3224 6.2248C18.3141 6.22941 18.3054 6.23333 18.2968 6.23746C18.2904 6.24049 18.2843 6.24386 18.2778 6.24668C18.2654 6.25198 18.2528 6.25652 18.24 6.26086C18.2367 6.26196 18.2337 6.26334 18.2305 6.26437C18.2131 6.26994 18.1953 6.27469 18.1771 6.27834C17.5746 6.406 17.0384 6.74306 16.7422 7.1806L7.18752 21.2995C8.60336 20.5528 10.1024 19.889 11.6129 19.2604Z" fill="black"/>
</svg>
