<svg width="1130" height="1137" viewBox="0 0 1130 1137" fill="none" xmlns="http://www.w3.org/2000/svg">
<path opacity="0.06" d="M1130 477C1130 112.558 834.442 -183 470 -183C428.262 -183 387.542 -178.928 347.841 -171.802C344.787 -169.766 342.072 -168.069 339.018 -166.033C291.172 -131.761 256.221 -87.3085 243.666 -28.6041C211.769 119.344 312.889 243.54 435.049 279.848C490.021 296.136 538.545 263.221 543.296 208.589C546.35 174.316 536.17 143.437 514.452 116.969C470 63.6941 415.707 62.3368 368.201 112.897C366.165 114.933 363.45 116.63 360.057 119.344C358.021 85.4113 362.432 54.1928 372.612 23.653C397.722 -51.3393 458.802 -98.1671 531.419 -96.8098C574.514 -96.1311 613.537 -82.2185 648.149 -56.7686C690.566 -25.5501 710.247 16.8663 705.836 69.4627C704.139 90.5013 699.728 111.879 694.638 132.578C688.869 155.314 680.725 177.71 672.92 202.141C837.157 170.244 966.442 227.931 1075.37 351.447C1002.41 340.589 934.884 349.072 868.715 368.753C822.226 382.666 776.417 398.614 730.267 413.545C673.599 432.208 616.931 449.514 556.869 452.907C531.08 454.265 504.951 452.907 478.823 452.907L417.404 440.352C404.17 435.602 390.596 431.19 377.362 426.1C235.183 372.825 152.046 272.383 136.098 119.684C129.99 59.9614 136.098 0.91774 149.332 -57.108C153.404 -75.4319 159.172 -92.7378 165.62 -109.365C-45.4447 0.91774 -190 222.162 -190 477C-190 841.442 105.558 1137 470 1137C512.416 1137 553.476 1132.93 593.517 1125.46C601.321 1120.03 609.126 1114.6 616.591 1108.5C662.401 1071.85 694.977 1025.7 704.478 966.316C728.571 816.671 621.003 698.244 497.147 668.383C441.157 654.81 394.668 690.44 392.972 745.411C391.954 779.684 403.491 810.224 426.566 835.334C473.733 886.234 528.026 884.537 572.818 831.602C574.854 829.226 577.229 827.53 580.622 824.476C584.355 858.409 581.64 889.967 573.157 920.846C552.118 996.856 493.753 1047.08 420.797 1049.45C377.702 1050.81 338 1039.27 302.031 1015.52C257.918 986.676 236.201 945.278 237.897 892.681C238.576 871.303 241.63 849.925 245.702 829.226C250.113 806.152 257.239 783.416 263.686 758.306C101.486 799.026 -30.8535 748.126 -146.226 630.717C-72.9306 637.843 -5.74292 625.627 59.0694 602.553C104.879 586.265 149.671 567.941 194.802 550.296C250.113 528.578 306.103 508.558 365.825 501.771C391.614 499.057 417.743 498.717 443.871 497.699L505.969 507.201C519.542 511.272 533.455 515.005 546.689 519.416C691.584 565.226 779.81 660.918 803.902 812.599C813.404 871.982 810.35 931.026 799.83 990.069C795.419 1014.84 788.632 1038.25 780.149 1060.31C988.499 948.671 1130 729.463 1130 477Z" fill="#0068DE"/>
</svg>
