<svg width="320" height="464" viewBox="0 0 320 464" fill="none" xmlns="http://www.w3.org/2000/svg">
<path opacity="0.03" d="M584 292.5C584 130.986 453.014 0 291.5 0C273.003 0 254.956 1.80463 237.361 4.96273C236.008 5.86504 234.805 6.61697 233.451 7.51928C212.247 22.7082 196.757 42.4087 191.193 68.4255C177.057 133.994 221.871 189.035 276.01 205.126C300.373 212.344 321.878 197.757 323.983 173.545C325.337 158.356 320.825 144.671 311.201 132.941C291.5 109.33 267.438 108.729 246.384 131.136C245.482 132.039 244.279 132.79 242.775 133.994C241.873 118.955 243.828 105.12 248.339 91.5848C259.468 58.3496 286.537 37.5964 318.72 38.1979C337.819 38.4987 355.113 44.6645 370.452 55.9434C389.251 69.7789 397.973 88.5771 396.018 111.887C395.266 121.211 393.311 130.685 391.055 139.859C388.499 149.934 384.889 159.86 381.431 170.688C454.217 156.551 511.514 182.117 559.788 236.857C527.455 232.045 497.528 235.805 468.203 244.527C447.6 250.693 427.298 257.761 406.846 264.378C381.731 272.649 356.617 280.319 329.999 281.823C318.569 282.424 306.99 281.823 295.41 281.823L268.19 276.258C262.325 274.153 256.31 272.198 250.445 269.942C187.433 246.332 150.589 201.817 143.521 134.144C140.814 107.676 143.521 81.509 149.386 55.7931C151.19 47.6722 153.747 40.0026 156.604 32.6337C63.0643 81.509 -1 179.56 -1 292.5C-1 454.014 129.986 585 291.5 585C310.298 585 328.495 583.195 346.24 579.887C349.699 577.481 353.158 575.075 356.467 572.368C376.769 556.126 391.206 535.674 395.416 509.356C406.094 443.036 358.422 390.551 303.531 377.317C278.717 371.302 258.114 387.093 257.362 411.455C256.911 426.644 262.024 440.179 272.251 451.307C293.154 473.865 317.216 473.113 337.067 449.653C337.969 448.6 339.022 447.848 340.526 446.495C342.18 461.533 340.977 475.519 337.217 489.204C327.893 522.891 302.027 545.148 269.694 546.201C250.595 546.802 233 541.689 217.059 531.162C197.509 518.379 187.884 500.032 188.636 476.722C188.937 467.248 190.29 457.774 192.095 448.6C194.05 438.374 197.208 428.298 200.066 417.17C128.181 435.216 69.5308 412.658 18.3997 360.625C50.883 363.783 80.6594 358.369 109.383 348.143C129.685 340.924 149.536 332.803 169.537 324.983C194.05 315.359 218.864 306.486 245.332 303.478C256.761 302.275 268.341 302.125 279.92 301.674L307.441 305.884C313.456 307.689 319.622 309.343 325.487 311.298C389.702 331.6 428.802 374.009 439.479 441.231C443.69 467.549 442.337 493.716 437.675 519.883C435.72 530.861 432.712 541.238 428.952 551.013C521.289 501.536 584 404.387 584 292.5Z" fill="#0068DE"/>
</svg>
