<svg width="111" height="82" viewBox="0 0 111 82" fill="none" xmlns="http://www.w3.org/2000/svg">
<path opacity="0.06" d="M42.543 14.1045C36.9982 17.0964 31.8799 21.5842 27.1882 27.568C22.2832 33.7654 19.0842 39.5354 17.5914 44.878C18.4444 44.2369 20.5771 43.9164 23.9892 43.9164C29.9606 43.9164 35.0789 46.0534 39.3441 50.3275C43.6093 54.6016 45.7419 60.0511 45.7419 66.676C45.7419 73.3008 43.1828 79.1777 38.0645 84.3066C32.9462 89.4355 27.0815 92 20.4704 92C12.3665 92 5.64875 89.115 0.317204 83.345C-5.2276 77.3612 -8 69.4541 -8 59.6237C-8 47.6562 -5.12097 36.5436 0.637097 26.2857C6.39516 16.0279 14.3925 7.37282 24.629 0.320553L42.2231 14.4251L42.543 14.1045ZM108.121 13.784C102.789 16.5621 97.5645 21.0499 92.4462 27.2474C87.328 33.4448 84.129 39.2149 82.8495 44.5575C83.7025 43.9164 85.8351 43.5958 89.2473 43.5958C95.2186 43.5958 100.337 45.7329 104.602 50.007C108.867 54.2811 111 59.7306 111 66.3554C111 72.7666 108.547 78.6435 103.642 83.9861C98.7374 89.115 92.7661 91.6795 85.7285 91.6795C77.6245 91.6795 70.9068 88.7944 65.5753 83.0244C60.2437 77.4681 57.5779 69.561 57.5779 59.3031C57.5779 47.3357 60.457 36.223 66.215 25.9652C71.9731 15.921 79.8638 7.26597 89.8871 0L107.801 14.1045L108.121 13.784Z" fill="#0068DE"/>
</svg>
