<svg width="20" height="24" viewBox="0 0 20 24" fill="none" xmlns="http://www.w3.org/2000/svg">
<mask id="path-1-inside-1" fill="white">
<path d="M16.6095 17.5552H15.3164L15.3224 16.7901C15.3224 16.4501 15.5965 16.172 15.9314 16.172H16.0138C16.3495 16.172 16.6244 16.4501 16.6244 16.7901L16.6095 17.5552ZM11.759 15.9157C11.431 15.9157 11.1626 16.1403 11.1626 16.4152V20.136C11.1626 20.4104 11.431 20.6344 11.759 20.6344C12.0884 20.6344 12.357 20.4104 12.357 20.136V16.4152C12.357 16.14 12.0884 15.9157 11.759 15.9157ZM19.6364 13.8344V20.9128C19.6364 22.6107 18.1909 24 16.4239 24H3.21277C1.44524 24 0 22.6107 0 20.9128V13.8344C0 12.1365 1.44524 10.7469 3.21277 10.7469H16.4239C18.1909 10.7469 19.6364 12.1365 19.6364 13.8344ZM4.09405 21.6813L4.093 14.2251L5.73068 14.2256V13.1208L1.36512 13.1141V14.2003L2.72788 14.2043V21.6813H4.09405ZM9.00314 15.3357H7.63776V19.3173C7.63776 19.8933 7.67206 20.1813 7.63567 20.2829C7.52465 20.5917 7.02563 20.9197 6.8311 20.3163C6.79811 20.2107 6.82717 19.892 6.82665 19.3448L6.82115 15.3357H5.46336L5.46755 19.2819C5.4686 19.8867 5.4542 20.3376 5.47226 20.5429C5.50551 20.9048 5.49373 21.3267 5.82336 21.5677C6.43759 22.0184 7.61498 21.5005 7.90953 20.8563L7.90691 21.6784L9.0034 21.6797L9.00314 15.3357ZM13.3711 19.8952L13.3682 16.5813C13.3671 15.3184 12.4395 14.5621 11.1804 15.584L11.1859 13.1203L9.82211 13.1224L9.81556 21.6264L10.9372 21.6099L11.0393 21.0803C12.4722 22.4192 13.3731 21.5016 13.3711 19.8952ZM17.6442 19.456L16.6205 19.4616C16.62 19.5029 16.6184 19.5507 16.6179 19.6027V20.1845C16.6179 20.496 16.3652 20.7496 16.0584 20.7496H15.8578C15.5504 20.7496 15.2978 20.496 15.2978 20.1845V20.12V19.48V18.6541H17.6421V17.7555C17.6421 17.0987 17.6256 16.4421 17.5722 16.0667C17.4044 14.8789 15.7675 14.6904 14.9407 15.2984C14.6812 15.4883 14.483 15.7424 14.3678 16.0837C14.2515 16.4253 14.1937 16.892 14.1937 17.4848V19.4608C14.1942 22.7456 18.1115 22.2813 17.6442 19.456ZM12.3926 8.72853C12.4631 8.90293 12.5725 9.04427 12.721 9.15093C12.8676 9.256 13.055 9.3088 13.2797 9.3088C13.4766 9.3088 13.6509 9.25467 13.8028 9.14293C13.9541 9.03173 14.0816 8.8656 14.1858 8.644L14.1599 9.1896H15.6819V2.59733H14.4838V7.728C14.4838 8.00587 14.2591 8.23333 13.9845 8.23333C13.7114 8.23333 13.486 8.00587 13.486 7.728V2.59733H12.2355V7.04373C12.2355 7.61013 12.2458 7.98773 12.2623 8.1792C12.2793 8.36933 12.3222 8.55173 12.3926 8.72853ZM7.78045 5.00533C7.78045 4.37253 7.83229 3.8784 7.93518 3.52213C8.03887 3.1672 8.22502 2.88187 8.49469 2.66667C8.76358 2.4504 9.10787 2.34213 9.52652 2.34213C9.87866 2.34213 10.1803 2.41253 10.4321 2.5504C10.6853 2.68907 10.8806 2.86907 11.016 3.0912C11.154 3.31413 11.2477 3.5432 11.2977 3.7776C11.3488 4.0152 11.3739 4.3736 11.3739 4.85707V6.52427C11.3739 7.13573 11.3498 7.5856 11.303 7.8712C11.2566 8.1576 11.1571 8.4232 11.0029 8.67227C10.8511 8.91867 10.655 9.10293 10.4172 9.22053C10.1769 9.3392 9.90196 9.39733 9.59145 9.39733C9.24454 9.39733 8.95235 9.34853 8.71148 9.24667C8.46982 9.14533 8.28314 8.99253 8.15014 8.7896C8.01583 8.5864 7.92131 8.33893 7.86423 8.0504C7.80689 7.76213 7.77967 7.32853 7.77967 6.75067L7.78045 5.00533ZM8.97251 7.624C8.97251 7.99733 9.24532 8.30213 9.57757 8.30213C9.91008 8.30213 10.1818 7.99733 10.1818 7.624V4.11467C10.1818 3.74187 9.91008 3.43707 9.57757 3.43707C9.24532 3.43707 8.97251 3.74187 8.97251 4.11467V7.624ZM4.76038 9.396H6.19619L6.19776 4.34L7.89434 0.0088H6.32396L5.42199 3.22587L4.5072 0H2.95305L4.75802 4.3424L4.76038 9.396Z"/>
</mask>
<path d="M16.6095 17.5552H15.3164L15.3224 16.7901C15.3224 16.4501 15.5965 16.172 15.9314 16.172H16.0138C16.3495 16.172 16.6244 16.4501 16.6244 16.7901L16.6095 17.5552ZM11.759 15.9157C11.431 15.9157 11.1626 16.1403 11.1626 16.4152V20.136C11.1626 20.4104 11.431 20.6344 11.759 20.6344C12.0884 20.6344 12.357 20.4104 12.357 20.136V16.4152C12.357 16.14 12.0884 15.9157 11.759 15.9157ZM19.6364 13.8344V20.9128C19.6364 22.6107 18.1909 24 16.4239 24H3.21277C1.44524 24 0 22.6107 0 20.9128V13.8344C0 12.1365 1.44524 10.7469 3.21277 10.7469H16.4239C18.1909 10.7469 19.6364 12.1365 19.6364 13.8344ZM4.09405 21.6813L4.093 14.2251L5.73068 14.2256V13.1208L1.36512 13.1141V14.2003L2.72788 14.2043V21.6813H4.09405ZM9.00314 15.3357H7.63776V19.3173C7.63776 19.8933 7.67206 20.1813 7.63567 20.2829C7.52465 20.5917 7.02563 20.9197 6.8311 20.3163C6.79811 20.2107 6.82717 19.892 6.82665 19.3448L6.82115 15.3357H5.46336L5.46755 19.2819C5.4686 19.8867 5.4542 20.3376 5.47226 20.5429C5.50551 20.9048 5.49373 21.3267 5.82336 21.5677C6.43759 22.0184 7.61498 21.5005 7.90953 20.8563L7.90691 21.6784L9.0034 21.6797L9.00314 15.3357ZM13.3711 19.8952L13.3682 16.5813C13.3671 15.3184 12.4395 14.5621 11.1804 15.584L11.1859 13.1203L9.82211 13.1224L9.81556 21.6264L10.9372 21.6099L11.0393 21.0803C12.4722 22.4192 13.3731 21.5016 13.3711 19.8952ZM17.6442 19.456L16.6205 19.4616C16.62 19.5029 16.6184 19.5507 16.6179 19.6027V20.1845C16.6179 20.496 16.3652 20.7496 16.0584 20.7496H15.8578C15.5504 20.7496 15.2978 20.496 15.2978 20.1845V20.12V19.48V18.6541H17.6421V17.7555C17.6421 17.0987 17.6256 16.4421 17.5722 16.0667C17.4044 14.8789 15.7675 14.6904 14.9407 15.2984C14.6812 15.4883 14.483 15.7424 14.3678 16.0837C14.2515 16.4253 14.1937 16.892 14.1937 17.4848V19.4608C14.1942 22.7456 18.1115 22.2813 17.6442 19.456ZM12.3926 8.72853C12.4631 8.90293 12.5725 9.04427 12.721 9.15093C12.8676 9.256 13.055 9.3088 13.2797 9.3088C13.4766 9.3088 13.6509 9.25467 13.8028 9.14293C13.9541 9.03173 14.0816 8.8656 14.1858 8.644L14.1599 9.1896H15.6819V2.59733H14.4838V7.728C14.4838 8.00587 14.2591 8.23333 13.9845 8.23333C13.7114 8.23333 13.486 8.00587 13.486 7.728V2.59733H12.2355V7.04373C12.2355 7.61013 12.2458 7.98773 12.2623 8.1792C12.2793 8.36933 12.3222 8.55173 12.3926 8.72853ZM7.78045 5.00533C7.78045 4.37253 7.83229 3.8784 7.93518 3.52213C8.03887 3.1672 8.22502 2.88187 8.49469 2.66667C8.76358 2.4504 9.10787 2.34213 9.52652 2.34213C9.87866 2.34213 10.1803 2.41253 10.4321 2.5504C10.6853 2.68907 10.8806 2.86907 11.016 3.0912C11.154 3.31413 11.2477 3.5432 11.2977 3.7776C11.3488 4.0152 11.3739 4.3736 11.3739 4.85707V6.52427C11.3739 7.13573 11.3498 7.5856 11.303 7.8712C11.2566 8.1576 11.1571 8.4232 11.0029 8.67227C10.8511 8.91867 10.655 9.10293 10.4172 9.22053C10.1769 9.3392 9.90196 9.39733 9.59145 9.39733C9.24454 9.39733 8.95235 9.34853 8.71148 9.24667C8.46982 9.14533 8.28314 8.99253 8.15014 8.7896C8.01583 8.5864 7.92131 8.33893 7.86423 8.0504C7.80689 7.76213 7.77967 7.32853 7.77967 6.75067L7.78045 5.00533ZM8.97251 7.624C8.97251 7.99733 9.24532 8.30213 9.57757 8.30213C9.91008 8.30213 10.1818 7.99733 10.1818 7.624V4.11467C10.1818 3.74187 9.91008 3.43707 9.57757 3.43707C9.24532 3.43707 8.97251 3.74187 8.97251 4.11467V7.624ZM4.76038 9.396H6.19619L6.19776 4.34L7.89434 0.0088H6.32396L5.42199 3.22587L4.5072 0H2.95305L4.75802 4.3424L4.76038 9.396Z" fill="#13152D" stroke="#13152D" stroke-width="2" mask="url(#path-1-inside-1)"/>
</svg>
