<svg width="116" height="116" viewBox="0 0 116 116" fill="none" xmlns="http://www.w3.org/2000/svg">
<path d="M116 58C116 25.9733 90.0267 0 58 0C54.3321 0 50.7537 0.357841 47.2648 0.984062C46.9964 1.16298 46.7578 1.31208 46.4895 1.491C42.2848 4.50283 39.2134 8.40926 38.11 13.5681C35.3069 26.5697 44.1933 37.4838 54.9285 40.6745C59.7594 42.1059 64.0237 39.2134 64.4411 34.4123C64.7095 31.4005 63.8149 28.6869 61.9064 26.3609C58 21.6792 53.2288 21.5599 49.054 26.0031C48.8751 26.182 48.6365 26.3311 48.3383 26.5697C48.1594 23.5877 48.547 20.8442 49.4416 18.1604C51.6483 11.5702 57.0159 7.45501 63.3974 7.57429C67.1846 7.63393 70.6139 8.85656 73.6555 11.0931C77.383 13.8365 79.1126 17.564 78.7249 22.1861C78.5758 24.035 78.1882 25.9136 77.7409 27.7326C77.2339 29.7306 76.5183 31.6987 75.8324 33.8458C90.2653 31.0427 101.627 36.1121 111.199 46.9666C104.788 46.0123 98.8535 46.7578 93.0386 48.4874C88.9532 49.71 84.9275 51.1116 80.872 52.4237C75.892 54.0638 70.9121 55.5846 65.6339 55.8828C63.3676 56.0021 61.0715 55.8828 58.7753 55.8828L53.3779 54.7794C52.2149 54.362 51.0221 53.9743 49.8591 53.527C37.3645 48.8452 30.0586 40.0185 28.6571 26.5995C28.1203 21.3512 28.6571 16.1625 29.8201 11.0632C30.1779 9.45296 30.6848 7.93213 31.2514 6.47095C12.7033 16.1625 0 35.6051 0 58C0 90.0267 25.9733 116 58 116C61.7275 116 65.3357 115.642 68.8545 114.986C69.5404 114.509 70.2262 114.032 70.8823 113.495C74.908 110.275 77.7707 106.219 78.6057 101.001C80.7229 87.8499 71.2699 77.4427 60.3856 74.8185C55.4653 73.6257 51.38 76.7568 51.2309 81.5877C51.1414 84.5995 52.1553 87.2833 54.183 89.49C58.328 93.963 63.0992 93.8139 67.0355 89.162C67.2144 88.9532 67.4231 88.8041 67.7213 88.5357C68.0494 91.5177 67.8108 94.291 67.0653 97.0046C65.2165 103.684 60.0874 108.098 53.6761 108.306C49.8889 108.426 46.4 107.412 43.2391 105.324C39.3625 102.79 37.454 99.1517 37.6031 94.5296C37.6627 92.6509 37.9311 90.7722 38.2889 88.9532C38.6766 86.9254 39.3028 84.9275 39.8694 82.7208C25.6154 86.2992 13.9856 81.8262 3.84679 71.5085C10.2879 72.1347 16.1923 71.0612 21.8879 69.0334C25.9136 67.6021 29.8499 65.9918 33.8159 64.4411C38.6766 62.5326 43.5969 60.7733 48.8452 60.1769C51.1116 59.9383 53.4077 59.9085 55.7039 59.819L61.1609 60.654C62.3537 61.0118 63.5764 61.3398 64.7393 61.7275C77.4725 65.7532 85.2257 74.1625 87.3429 87.492C88.1779 92.7105 87.9095 97.8992 86.9851 103.088C86.5974 105.265 86.001 107.322 85.2555 109.261C103.565 99.4499 116 80.1861 116 58Z" fill="#E4E9EF"/>
</svg>
