<svg width="384" height="208" viewBox="0 0 384 208" fill="none" xmlns="http://www.w3.org/2000/svg">
<mask id="mask0" mask-type="alpha" maskUnits="userSpaceOnUse" x="0" y="0" width="384" height="208">
<path d="M0 12C0 5.37258 5.37258 0 12 0H372C378.627 0 384 5.37258 384 12V208H0V12Z" fill="white"/>
</mask>
<g mask="url(#mask0)">
<rect width="384" height="208" fill="#F3F3F3"/>
<path d="M262 104C262 65.347 230.653 34 192 34C187.573 34 183.254 34.4319 179.044 35.1877C178.72 35.4036 178.432 35.5835 178.108 35.7995C173.033 39.4344 169.326 44.1491 167.995 50.3753C164.612 66.0668 175.337 79.2391 188.293 83.09C194.123 84.8175 199.27 81.3265 199.774 75.5321C200.098 71.8972 199.018 68.6221 196.715 65.8149C192 60.1645 186.242 60.0206 181.203 65.383C180.987 65.599 180.699 65.7789 180.339 66.0668C180.123 62.4679 180.591 59.1568 181.671 55.9177C184.334 47.964 190.812 42.9974 198.514 43.1414C203.085 43.2134 207.224 44.6889 210.895 47.3882C215.393 50.6992 217.481 55.1979 217.013 60.7764C216.833 63.0077 216.365 65.2751 215.825 67.4704C215.213 69.8817 214.35 72.2571 213.522 74.8483C230.941 71.4653 244.653 77.5835 256.206 90.6838C248.468 89.5321 241.306 90.4319 234.288 92.5193C229.357 93.9949 224.499 95.6864 219.604 97.2699C213.594 99.2494 207.584 101.085 201.213 101.445C198.478 101.589 195.707 101.445 192.936 101.445L186.422 100.113C185.018 99.6093 183.578 99.1414 182.175 98.6015C167.095 92.9512 158.278 82.2982 156.586 66.1028C155.938 59.7686 156.586 53.5064 157.99 47.3522C158.422 45.4087 159.033 43.5733 159.717 41.8098C137.332 53.5064 122 76.9717 122 104C122 142.653 153.347 174 192 174C196.499 174 200.853 173.568 205.1 172.776C205.928 172.201 206.756 171.625 207.548 170.977C212.406 167.09 215.861 162.195 216.869 155.897C219.424 140.026 208.015 127.465 194.879 124.298C188.941 122.859 184.01 126.638 183.83 132.468C183.722 136.103 184.946 139.342 187.393 142.005C192.396 147.404 198.154 147.224 202.905 141.609C203.121 141.357 203.373 141.177 203.733 140.853C204.129 144.452 203.841 147.799 202.941 151.075C200.71 159.136 194.519 164.463 186.781 164.715C182.211 164.859 178 163.635 174.185 161.116C169.506 158.057 167.203 153.666 167.383 148.087C167.455 145.82 167.779 143.553 168.211 141.357C168.679 138.91 169.434 136.499 170.118 133.835C152.915 138.154 138.879 132.756 126.643 120.303C134.416 121.059 141.542 119.763 148.416 117.316C153.275 115.589 158.026 113.645 162.812 111.774C168.679 109.47 174.617 107.347 180.951 106.627C183.686 106.339 186.458 106.303 189.229 106.195L195.815 107.203C197.255 107.635 198.73 108.031 200.134 108.499C215.501 113.357 224.859 123.506 227.414 139.594C228.422 145.892 228.098 152.154 226.982 158.416C226.514 161.044 225.794 163.527 224.895 165.866C246.992 154.026 262 130.776 262 104Z" fill="#E4E9EF"/>
</g>
</svg>
