<svg width="384" height="208" viewBox="0 0 384 208" fill="none" xmlns="http://www.w3.org/2000/svg">
<mask id="mask0" mask-type="alpha" maskUnits="userSpaceOnUse" x="0" y="0" width="384" height="208">
<path d="M0 12C0 5.37258 5.37258 0 12 0H372C378.627 0 384 5.37258 384 12V208H0V12Z" fill="white"/>
</mask>
<g mask="url(#mask0)">
<rect width="384" height="208" fill="#F3F3F3"/>
<path d="M262 93C262 54.347 230.653 23 192 23C187.573 23 183.254 23.4319 179.044 24.1877C178.72 24.4036 178.432 24.5835 178.108 24.7995C173.033 28.4344 169.326 33.1491 167.995 39.3753C164.612 55.0668 175.337 68.2391 188.293 72.09C194.123 73.8175 199.27 70.3265 199.774 64.5321C200.098 60.8972 199.018 57.6221 196.715 54.8149C192 49.1645 186.242 49.0206 181.203 54.383C180.987 54.599 180.699 54.7789 180.339 55.0668C180.123 51.4679 180.591 48.1568 181.671 44.9177C184.334 36.964 190.812 31.9974 198.514 32.1414C203.085 32.2134 207.224 33.6889 210.895 36.3882C215.393 39.6992 217.481 44.1979 217.013 49.7764C216.833 52.0077 216.365 54.2751 215.825 56.4704C215.213 58.8817 214.35 61.2571 213.522 63.8483C230.941 60.4653 244.653 66.5835 256.206 79.6838C248.468 78.5321 241.306 79.4319 234.288 81.5193C229.357 82.9949 224.499 84.6864 219.604 86.2699C213.594 88.2494 207.584 90.0848 201.213 90.4447C198.478 90.5887 195.707 90.4447 192.936 90.4447L186.422 89.1131C185.018 88.6093 183.578 88.1414 182.175 87.6015C167.095 81.9512 158.278 71.2982 156.586 55.1028C155.938 48.7686 156.586 42.5064 157.99 36.3522C158.422 34.4087 159.033 32.5733 159.717 30.8098C137.332 42.5064 122 65.9717 122 93C122 131.653 153.347 163 192 163C196.499 163 200.853 162.568 205.1 161.776C205.928 161.201 206.756 160.625 207.548 159.977C212.406 156.09 215.861 151.195 216.869 144.897C219.424 129.026 208.015 116.465 194.879 113.298C188.941 111.859 184.01 115.638 183.83 121.468C183.722 125.103 184.946 128.342 187.393 131.005C192.396 136.404 198.154 136.224 202.905 130.609C203.121 130.357 203.373 130.177 203.733 129.853C204.129 133.452 203.841 136.799 202.941 140.075C200.71 148.136 194.519 153.463 186.781 153.715C182.211 153.859 178 152.635 174.185 150.116C169.506 147.057 167.203 142.666 167.383 137.087C167.455 134.82 167.779 132.553 168.211 130.357C168.679 127.91 169.434 125.499 170.118 122.835C152.915 127.154 138.879 121.756 126.643 109.303C134.416 110.059 141.542 108.763 148.416 106.316C153.275 104.589 158.026 102.645 162.812 100.774C168.679 98.4704 174.617 96.347 180.951 95.6273C183.686 95.3393 186.458 95.3033 189.229 95.1954L195.815 96.2031C197.255 96.635 198.73 97.0308 200.134 97.4987C215.501 102.357 224.859 112.506 227.414 128.594C228.422 134.892 228.098 141.154 226.982 147.416C226.514 150.044 225.794 152.527 224.895 154.866C246.992 143.026 262 119.776 262 93Z" fill="#E4E9EF"/>
<path d="M143.441 177.045H143.653C144.405 177.049 145.091 177.225 145.711 177.571C146.331 177.918 146.812 178.396 147.153 179.007C147.5 179.613 147.673 180.292 147.673 181.044C147.673 181.8 147.5 182.486 147.153 183.102C146.807 183.717 146.328 184.198 145.718 184.544C145.107 184.886 144.428 185.061 143.681 185.07H143.441V186.41H142.17V185.07H141.979C141.217 185.07 140.525 184.897 139.9 184.551C139.281 184.204 138.798 183.726 138.451 183.115C138.109 182.505 137.938 181.819 137.938 181.058C137.938 180.297 138.109 179.611 138.451 179C138.798 178.389 139.281 177.911 139.9 177.564C140.525 177.218 141.217 177.045 141.979 177.045H142.17V175.637H143.441V177.045ZM141.979 178.077C141.122 178.077 140.443 178.341 139.941 178.87C139.445 179.394 139.196 180.123 139.196 181.058C139.196 181.996 139.445 182.728 139.941 183.252C140.438 183.771 141.122 184.031 141.992 184.031H142.17V178.077H141.979ZM143.441 178.077V184.031H143.633C144.503 184.031 145.182 183.765 145.67 183.231C146.162 182.694 146.408 181.965 146.408 181.044C146.408 180.132 146.162 179.41 145.67 178.877C145.182 178.344 144.494 178.077 143.605 178.077H143.441ZM148.794 182.233C148.794 181.509 148.935 180.857 149.218 180.278C149.505 179.7 149.901 179.253 150.407 178.938C150.918 178.624 151.499 178.467 152.15 178.467C153.158 178.467 153.971 178.815 154.591 179.513C155.215 180.21 155.527 181.137 155.527 182.295V182.384C155.527 183.104 155.388 183.751 155.11 184.325C154.837 184.895 154.443 185.339 153.928 185.658C153.417 185.977 152.829 186.137 152.164 186.137C151.161 186.137 150.348 185.788 149.724 185.091C149.104 184.394 148.794 183.471 148.794 182.322V182.233ZM150.065 182.384C150.065 183.204 150.255 183.863 150.633 184.359C151.016 184.856 151.526 185.104 152.164 185.104C152.807 185.104 153.317 184.854 153.695 184.353C154.074 183.847 154.263 183.14 154.263 182.233C154.263 181.422 154.069 180.766 153.682 180.265C153.299 179.759 152.788 179.506 152.15 179.506C151.526 179.506 151.022 179.754 150.64 180.251C150.257 180.748 150.065 181.459 150.065 182.384ZM162.459 179.629H159.978V186H158.713V179.629H156.279V178.604H162.459V179.629ZM163.067 182.233C163.067 181.509 163.209 180.857 163.491 180.278C163.778 179.7 164.175 179.253 164.681 178.938C165.191 178.624 165.772 178.467 166.424 178.467C167.431 178.467 168.244 178.815 168.864 179.513C169.489 180.21 169.801 181.137 169.801 182.295V182.384C169.801 183.104 169.662 183.751 169.384 184.325C169.11 184.895 168.716 185.339 168.201 185.658C167.691 185.977 167.103 186.137 166.438 186.137C165.435 186.137 164.621 185.788 163.997 185.091C163.377 184.394 163.067 183.471 163.067 182.322V182.233ZM164.339 182.384C164.339 183.204 164.528 183.863 164.906 184.359C165.289 184.856 165.799 185.104 166.438 185.104C167.08 185.104 167.59 184.854 167.969 184.353C168.347 183.847 168.536 183.14 168.536 182.233C168.536 181.422 168.342 180.766 167.955 180.265C167.572 179.759 167.062 179.506 166.424 179.506C165.799 179.506 165.296 179.754 164.913 180.251C164.53 180.748 164.339 181.459 164.339 182.384ZM174.524 182.233C174.524 181.509 174.666 180.857 174.948 180.278C175.235 179.7 175.632 179.253 176.138 178.938C176.648 178.624 177.229 178.467 177.881 178.467C178.888 178.467 179.701 178.815 180.321 179.513C180.946 180.21 181.258 181.137 181.258 182.295V182.384C181.258 183.104 181.119 183.751 180.841 184.325C180.567 184.895 180.173 185.339 179.658 185.658C179.148 185.977 178.56 186.137 177.895 186.137C176.892 186.137 176.078 185.788 175.454 185.091C174.834 184.394 174.524 183.471 174.524 182.322V182.233ZM175.796 182.384C175.796 183.204 175.985 183.863 176.363 184.359C176.746 184.856 177.257 185.104 177.895 185.104C178.537 185.104 179.048 184.854 179.426 184.353C179.804 183.847 179.993 183.14 179.993 182.233C179.993 181.422 179.799 180.766 179.412 180.265C179.029 179.759 178.519 179.506 177.881 179.506C177.257 179.506 176.753 179.754 176.37 180.251C175.987 180.748 175.796 181.459 175.796 182.384ZM188.189 179.629H185.708V186H184.443V179.629H182.01V178.604H188.189V179.629ZM191.84 185.104C192.291 185.104 192.685 184.968 193.022 184.694C193.36 184.421 193.547 184.079 193.583 183.669H194.779C194.757 184.093 194.611 184.496 194.342 184.879C194.073 185.262 193.713 185.567 193.262 185.795C192.815 186.023 192.341 186.137 191.84 186.137C190.833 186.137 190.031 185.802 189.434 185.132C188.841 184.457 188.545 183.537 188.545 182.37V182.158C188.545 181.438 188.677 180.798 188.941 180.237C189.206 179.677 189.584 179.242 190.076 178.932C190.573 178.622 191.159 178.467 191.833 178.467C192.662 178.467 193.351 178.715 193.897 179.212C194.449 179.709 194.743 180.354 194.779 181.146H193.583C193.547 180.668 193.364 180.276 193.036 179.971C192.713 179.661 192.312 179.506 191.833 179.506C191.19 179.506 190.691 179.738 190.336 180.203C189.985 180.663 189.81 181.331 189.81 182.206V182.445C189.81 183.298 189.985 183.954 190.336 184.414C190.687 184.874 191.188 185.104 191.84 185.104ZM198.621 184.147L200.344 178.604H201.697L198.724 187.142C198.263 188.372 197.532 188.987 196.529 188.987L196.29 188.967L195.818 188.878V187.853L196.16 187.88C196.589 187.88 196.921 187.793 197.158 187.62C197.4 187.447 197.598 187.13 197.753 186.67L198.033 185.918L195.395 178.604H196.775L198.621 184.147ZM208.328 179.629H205.847V186H204.582V179.629H202.148V178.604H208.328V179.629ZM211.979 185.104C212.43 185.104 212.824 184.968 213.161 184.694C213.498 184.421 213.685 184.079 213.722 183.669H214.918C214.895 184.093 214.749 184.496 214.48 184.879C214.212 185.262 213.852 185.567 213.4 185.795C212.954 186.023 212.48 186.137 211.979 186.137C210.971 186.137 210.169 185.802 209.572 185.132C208.98 184.457 208.684 183.537 208.684 182.37V182.158C208.684 181.438 208.816 180.798 209.08 180.237C209.344 179.677 209.723 179.242 210.215 178.932C210.712 178.622 211.297 178.467 211.972 178.467C212.801 178.467 213.489 178.715 214.036 179.212C214.588 179.709 214.882 180.354 214.918 181.146H213.722C213.685 180.668 213.503 180.276 213.175 179.971C212.851 179.661 212.45 179.506 211.972 179.506C211.329 179.506 210.83 179.738 210.475 180.203C210.124 180.663 209.948 181.331 209.948 182.206V182.445C209.948 183.298 210.124 183.954 210.475 184.414C210.826 184.874 211.327 185.104 211.979 185.104ZM221.836 179.629H219.354V186H218.09V179.629H215.656V178.604H221.836V179.629ZM223.183 186V178.604H226.067C227.052 178.604 227.806 178.777 228.33 179.123C228.859 179.465 229.123 179.968 229.123 180.634C229.123 180.976 229.021 181.285 228.815 181.563C228.61 181.837 228.307 182.047 227.906 182.192C228.353 182.297 228.711 182.502 228.979 182.808C229.253 183.113 229.39 183.478 229.39 183.901C229.39 184.58 229.139 185.1 228.638 185.46C228.141 185.82 227.437 186 226.525 186H223.183ZM224.447 182.753V184.981H226.539C227.068 184.981 227.462 184.883 227.722 184.688C227.986 184.492 228.118 184.216 228.118 183.86C228.118 183.122 227.576 182.753 226.491 182.753H224.447ZM224.447 181.741H226.081C227.266 181.741 227.858 181.395 227.858 180.702C227.858 180.009 227.298 179.652 226.177 179.629H224.447V181.741ZM233.402 184.147L235.125 178.604H236.479L233.505 187.142C233.045 188.372 232.313 188.987 231.311 188.987L231.071 188.967L230.6 188.878V187.853L230.941 187.88C231.37 187.88 231.702 187.793 231.939 187.62C232.181 187.447 232.379 187.13 232.534 186.67L232.814 185.918L230.176 178.604H231.557L233.402 184.147ZM240.587 186.137C239.584 186.137 238.769 185.809 238.14 185.152C237.511 184.492 237.196 183.61 237.196 182.507V182.274C237.196 181.541 237.335 180.887 237.613 180.312C237.896 179.734 238.288 179.283 238.789 178.959C239.295 178.631 239.842 178.467 240.43 178.467C241.391 178.467 242.139 178.784 242.672 179.417C243.205 180.05 243.472 180.957 243.472 182.138V182.664H238.461C238.479 183.393 238.691 183.983 239.097 184.435C239.507 184.881 240.026 185.104 240.655 185.104C241.102 185.104 241.48 185.013 241.79 184.831C242.1 184.649 242.371 184.407 242.604 184.106L243.376 184.708C242.756 185.66 241.826 186.137 240.587 186.137ZM240.43 179.506C239.919 179.506 239.491 179.693 239.145 180.066C238.798 180.436 238.584 180.955 238.502 181.625H242.207V181.529C242.171 180.887 241.997 180.39 241.688 180.039C241.378 179.684 240.958 179.506 240.43 179.506ZM250.355 179.629H247.874V186H246.609V179.629H244.176V178.604H250.355V179.629Z" fill="#D1DAE3"/>
</g>
</svg>
