<?xml version="1.0" encoding="utf-8"?><svg xmlns="http://www.w3.org/2000/svg" xmlns:xlink="http://www.w3.org/1999/xlink"><symbol fill="none" viewBox="0 0 12 7" id="arrow-down" xmlns="http://www.w3.org/2000/svg"><path d="M11 1L6 6 1 1" stroke="#000" stroke-width="1.7" stroke-linecap="round" stroke-linejoin="round"/></symbol><symbol fill="none" viewBox="0 0 30 32" id="bird" xmlns="http://www.w3.org/2000/svg"><path d="M.639 29.135L5.08 22.57l.003-.003L15.887 6.602c.38-.562.982-.996 1.686-1.227A5.78 5.78 0 0123.33 0h1.941c1.159 0 2.106.918 2.154 2.064a2.159 2.159 0 012.025 2.152.516.516 0 11-1.032 0c0-.574-.434-1.048-.99-1.115a234.9 234.9 0 01-.025 3.884l.003.008.005.023.007.025a.52.52 0 01.006.04l.001.01a9.932 9.932 0 01-.05 1.08c-.048 1.513-.137 2.797-.306 3.886-.361 2.322-1.096 3.867-2.536 5.335l-.002.002-.776.778c-3.187 3.185-4.593 4.591-5.028 9.192a42.345 42.345 0 00-.155 3.604h5.044a.516.516 0 110 1.032H12.28a.516.516 0 110-1.032h1.075c.026-1.103.135-2.13.33-3.088H12.28a.516.516 0 01-.516-.516v-4.5a.516.516 0 111.032 0v3.984h1.141c.405-1.42 1.02-2.67 1.853-3.774 1.433-1.897 3.312-3.097 4.97-4.156 1.143-.73 2.223-1.42 3.037-2.25 1.251-1.275 1.9-2.63 2.236-4.683-.671 1.032-1.587 1.978-2.755 2.847-2.436 1.812-5.622 3.096-8.996 4.456-.708.285-1.421.573-2.132.867l-6.468 9.558a.516.516 0 01-.427.227H3.553a.516.516 0 110-1.032h1.428l5.417-8.005c-1.591.704-3.133 1.466-4.526 2.341l-4.378 6.47a.516.516 0 11-.855-.58zm16.9 1.833c.008-1.161.043-2.18.11-3.088h-1.49a.516.516 0 01-.516-.516v-2.076c-.724 1.461-1.195 3.294-1.255 5.68h3.152zm-.864-7.338v3.218h1.068c.186-1.665.506-2.925.996-4.03.364-.823.815-1.538 1.367-2.244-1.224.822-2.438 1.762-3.431 3.056zm-5.062-4.37l.007-.002c.759-.316 1.52-.623 2.276-.928 3.31-1.334 6.437-2.594 8.766-4.327 2.252-1.675 3.44-3.574 3.685-5.917l.014-.565c-2.724-.723-5.265-.033-7.962 2.157a.514.514 0 01-.726-.075.516.516 0 01.076-.726c1.466-1.191 2.874-1.963 4.303-2.358 1.424-.394 2.846-.414 4.328-.058.012-1.013.015-2.13.015-3.369h-2.891a.516.516 0 110-1.032h2.886a1.125 1.125 0 00-1.119-1.028h-1.94A4.746 4.746 0 0018.59 5.77v.006l-.003.048-.002.014a.492.492 0 01-.005.036l-.006.023-.006.025-.01.029-.007.018-.013.03-.008.015a.47.47 0 01-.016.027l-.01.016-.016.023-.013.017-.016.019-.018.019-.015.014-.022.02-.015.012-.024.018-.019.011-.024.015-.025.012-.02.01a.523.523 0 01-.037.014l-.01.003a.493.493 0 01-.053.014c-.602.128-1.139.465-1.435.903L7.188 21.299c1.415-.746 2.914-1.41 4.425-2.039z" fill="#000"/></symbol><symbol fill="none" viewBox="0 0 10 6" id="eye" xmlns="http://www.w3.org/2000/svg"><circle cx="5" cy="3" r="1.667" fill="#BABABA"/><path d="M1.25 3C3.333-.333 6.667-.333 8.75 3M1.25 3c2.083 3.333 5.417 3.333 7.5 0" stroke="#BABABA" stroke-linecap="round" stroke-linejoin="round"/></symbol><symbol fill="none" viewBox="0 0 40 36" id="karate" xmlns="http://www.w3.org/2000/svg"><path d="M38.606 7.78l-13.107 4.234a1.343 1.343 0 00-.279-.179l-1.155-.551a1.35 1.35 0 00-1.233.038l-.278.159a1.202 1.202 0 00-.831-.614l-1.993-.384a3.77 3.77 0 01-1.213-.461l-2.474-1.467a4.727 4.727 0 00-1.022-.453l-.925-.28a4.067 4.067 0 001.78-4.296A4.076 4.076 0 008.58 2.051l-.4-.632A.998.998 0 006.44 1.3l-.372.572a.992.992 0 00.54 1.49l-.328.123a.469.469 0 10.33.878l1.24-.466.004-.001A4.053 4.053 0 009.386 7.6L7.123 8.855a.47.47 0 00-.042.026c-.6.42-1.038.92-1.304 1.488l-1.634 3.066c-.005.007-.008.015-.012.023a1.335 1.335 0 00.264 1.496l1.495 1.503a1.198 1.198 0 001.052.338l.442.613-.167.43-.922.359a.468.468 0 00.17.906l.017-.002a3.313 3.313 0 00-.13.396l-.025.093c-.069.247-.22.463-.427.613l-3.535 2.511a2.594 2.594 0 00-1.074 2.804l.707 2.532.093.357c.167.64.34 1.304.366 1.928l.006.093c.037.327.157.639.35.905l-.112.112a4.026 4.026 0 01-1.197.828 1.225 1.225 0 00.508 2.343c.247 0 .488-.075.691-.215l.72-.492c.283-.193.594-.342.923-.44l.776-.233a1.167 1.167 0 00.756-.711 1.1 1.1 0 00-.161-1.065l-.022-.028c.057-.099.098-.206.119-.319L6.92 27.28a.47.47 0 00.013-.058.145.145 0 01.098-.115.465.465 0 00.117-.06l4.265-2.959c1.019-.263 4.115.827 6.642 1.985l6.523 7.208.014.015a.97.97 0 00.686.287h.015a.967.967 0 00.522-.165l.133.137c.083.084.182.186.261.269-.08.623.196 1.15.78 1.47.313.165.671.221 1.02.158a7.047 7.047 0 011.55-.064l1.31.223c.305.086.63.05.91-.099a1.224 1.224 0 00-.425-2.297c-.473-.06-1.178-.21-1.61-.439l-.183-.096a3.977 3.977 0 01-.592-.385l-1.297-1.02a.967.967 0 00-.108-.723 29.331 29.331 0 01-.791-1.447c-1.373-2.621-3.082-5.884-9.033-9.521-.294-.18-1.411-1.434-2-2.204a.72.72 0 01-.148-.401v-.014l-.06-.737 7.104-2.303 1.656.418a1.335 1.335 0 00.906-.076 1.341 1.341 0 00.771-1.418l12.925-4.177a.468.468 0 10-.288-.892zM6.899 2.472a.055.055 0 01-.047-.033.052.052 0 01.004-.055l.371-.572a.055.055 0 01.05-.028h.007a.054.054 0 01.05.036l.508.817-.943-.165zm4.325-1.116a3.136 3.136 0 013.492 1.676 17.682 17.682 0 01-5.14-.722 3.122 3.122 0 011.648-.954zm-2.185 1.77c.965.305 1.955.527 2.958.664a18.622 18.622 0 003.005.176c.023.159.033.319.031.48a22.012 22.012 0 01-6.158-.871c.043-.154.098-.304.164-.45zM8.835 5.08a3.143 3.143 0 01-.071-.564c1.063.301 2.147.525 3.243.67.951.125 1.909.19 2.868.196a3.14 3.14 0 01-6.04-.302zm3.95 3.323a13.935 13.935 0 01-.858 3.255c-.548-1.263-1.383-2.697-1.803-3.395l.204-.113a4.035 4.035 0 002.382.23l.076.023zm-5.187 1.26l1.704-.945c.503.835 1.685 2.864 2.091 4.164a18.382 18.382 0 01-1.65 2.784 1.354 1.354 0 00-.768-.452l-.294-.055a1.205 1.205 0 00-.345-1.09c.211-.319.343-.685.385-1.066.117-.979-.279-2.089-1.173-3.303l.05-.038zm2 8.24a.4.4 0 01-.319.197.41.41 0 01-.365-.174l-.005-.007-1.154-1.6.351-.313.691.129a.405.405 0 01.291.23l.53 1.166a.398.398 0 01-.02.371zm-2.679-2.097a.266.266 0 01-.365-.011L5.06 14.293a.394.394 0 01-.082-.431l1.633-3.063.012-.024a2.38 2.38 0 01.249-.415c1.164 1.63 1 2.597.766 3.055l-.036-.034a.47.47 0 10-.64.684l.722.678a.264.264 0 01-.005.391l-.759.673zm.955 2.781l.283-.109c.198.275.492.465.823.533a6.679 6.679 0 00-.007.321l-1.67.253c.065-.207.187-.472.572-.997zM4.998 32.2a.225.225 0 01-.146.138l-.776.233c-.42.126-.819.316-1.181.564l-.72.492a.294.294 0 01-.407-.078.282.282 0 01.021-.347.285.285 0 01.1-.074 4.959 4.959 0 001.476-1.02l.199-.2c.434.161.909.179 1.354.05l.056.074a.168.168 0 01.024.169zm22.131-.159l1.261.992c.23.18.475.338.732.475l.183.097c.684.362 1.652.505 1.932.54a.288.288 0 11-.123.56.44.44 0 00-.06-.014l-1.351-.23a7.9 7.9 0 00-1.854.067.632.632 0 01-.409-.057c-.206-.113-.382-.271-.273-.662.074-.264-.074-.418-.245-.597l-.302-.312-.147-.152.656-.707zm-9.878-11.658c5.73 3.502 7.371 6.638 8.69 9.157.276.527.537 1.024.818 1.494.003.005.005.01.004.016a.027.027 0 01-.007.015l-1.459 1.571a.023.023 0 01-.008.007.024.024 0 01-.01.002.029.029 0 01-.017-.005l-6.576-7.268a.469.469 0 00-.151-.111c-.435-.2-1.98-.898-3.59-1.445-1.899-.645-3.17-.84-3.888-.6a.472.472 0 00-.117.06L6.66 26.244a1.078 1.078 0 00-.649.8l-1.106 3.832a.471.471 0 00-.012.058.058.058 0 01-.023.041 1.27 1.27 0 01-1.102.004l-.052-.025a1.094 1.094 0 01-.32-.618.726.726 0 01-.003-.04c-.03-.726-.215-1.438-.396-2.127l-.092-.357-.003-.01-.706-2.531a1.656 1.656 0 01.693-1.78l.012-.01 3.542-2.515a2.01 2.01 0 00.387-.361l2.198-.333c.079.656.233 1.238.43 1.483.288.358.578.455.81.455a.87.87 0 00.314-.06l6.01-2.35c.198.217.419.412.658.582zm-1.338-1.323l-5.633 2.202a.564.564 0 01-.087-.089c-.136-.215-.352-1.375-.262-2.32a1.336 1.336 0 00.653-1.021l4.031-1.307.04.508c.019.333.137.652.34.917.187.244.538.675.919 1.11zm-5.683-2.448l1.232-.05-1.094.354-.138-.304zm5.68-1.493a6.971 6.971 0 00.155-1.633c.74.324 1.497.607 2.268.848l-2.423.785zm5.85-1.896l-1.511.49c-.727.12-2.685-.568-4.312-1.31a.583.583 0 00-.825.561c.06 1.214-.086 2.234-.355 2.524l-3.853.158c.842-1.26 2.353-3.874 2.79-6.966l1.053.319c.286.088.56.21.818.362l2.473 1.468c.468.277.98.472 1.514.574l1.993.385a.266.266 0 01.215.26v1.175zm3.164.111a.409.409 0 01-.392.103l-.008-.003-1.827-.46v-.497l.592-.336a.407.407 0 01.371-.01l1.156.55a.403.403 0 01.108.654z" fill="#000"/></symbol><symbol fill="none" viewBox="0 0 1130 1137" id="main-page-bg" xmlns="http://www.w3.org/2000/svg"><path opacity=".06" d="M1130 477c0-364.442-295.558-660-660-660-41.738 0-82.458 4.072-122.159 11.198-3.054 2.036-5.769 3.733-8.823 5.769-47.846 34.272-82.797 78.724-95.352 137.429-31.897 147.948 69.223 272.144 191.383 308.452 54.972 16.288 103.496-16.627 108.247-71.259 3.054-34.273-7.126-65.152-28.844-91.62-44.452-53.275-98.745-54.632-146.251-4.072-2.036 2.036-4.751 3.733-8.144 6.447-2.036-33.933 2.375-65.151 12.555-95.691 25.11-74.992 86.19-121.82 158.807-120.463 43.095.679 82.118 14.591 116.73 40.041 42.417 31.219 62.098 73.635 57.687 126.232-1.697 21.038-6.108 42.416-11.198 63.115-5.769 22.736-13.913 45.132-21.718 69.563 164.237-31.897 293.522 25.79 402.45 149.306-72.96-10.858-140.486-2.375-206.655 17.306-46.489 13.913-92.298 29.861-138.448 44.792-56.668 18.663-113.336 35.969-173.398 39.362-25.789 1.358-51.918 0-78.046 0l-61.419-12.555c-13.234-4.75-26.808-9.162-40.042-14.252-142.179-53.275-225.316-153.717-241.264-306.416-6.108-59.723 0-118.766 13.234-176.792 4.072-18.324 9.84-35.63 16.288-52.257C-45.445.918-190 222.162-190 477c0 364.442 295.558 660 660 660 42.416 0 83.476-4.07 123.517-11.54 7.804-5.43 15.609-10.86 23.074-16.96 45.81-36.65 78.386-82.8 87.887-142.184 24.093-149.645-83.475-268.072-207.331-297.933-55.99-13.573-102.479 22.057-104.175 77.028-1.018 34.273 10.519 64.813 33.594 89.923 47.167 50.9 101.46 49.203 146.252-3.732 2.036-2.376 4.411-4.072 7.804-7.126 3.733 33.933 1.018 65.491-7.465 96.37-21.039 76.01-79.404 126.234-152.36 128.604-43.095 1.36-82.797-10.18-118.766-33.93-44.113-28.844-65.83-70.242-64.134-122.839.679-21.378 3.733-42.756 7.805-63.455 4.411-23.074 11.537-45.81 17.984-70.92-162.2 40.72-294.54-10.18-409.912-127.589 73.295 7.126 140.483-5.09 205.295-28.164 45.81-16.288 90.602-34.612 135.733-52.257 55.311-21.718 111.301-41.738 171.023-48.525 25.789-2.714 51.918-3.054 78.046-4.072l62.098 9.502c13.573 4.071 27.486 7.804 40.72 12.215 144.895 45.81 233.121 141.502 257.213 293.183 9.502 59.383 6.448 118.427-4.072 177.47-4.411 24.771-11.198 48.181-19.681 70.241C988.499 948.671 1130 729.463 1130 477z" fill="#0068DE"/></symbol><symbol fill="none" viewBox="0 0 15 15" id="map-arrow" xmlns="http://www.w3.org/2000/svg"><path d="M13.918 2.404L8.796 13.787c-.366.814-1.535.776-1.848-.06L5.56 10.026a1 1 0 00-.586-.586L1.273 8.052C.437 7.74.399 6.57 1.213 6.204l11.383-5.122c.84-.378 1.7.483 1.322 1.322z" fill="#0068DE"/></symbol><symbol fill="none" viewBox="0 0 40 44" id="map-tip" xmlns="http://www.w3.org/2000/svg"><g filter="url(#gfilter0_f)"><ellipse cx="20" cy="33" rx="12" ry="3" fill="#13152D" fill-opacity=".5"/></g><path fill-rule="evenodd" clip-rule="evenodd" d="M22.864 28.039c.14-.242.375-.413.646-.483C29.543 26 34 20.52 34 14c0-7.732-6.268-14-14-14S6 6.268 6 14c0 6.52 4.457 11.999 10.49 13.556.27.07.506.241.646.483l1.998 3.461a1 1 0 001.732 0l1.998-3.461z" fill="#0068DE"/><circle cx="20" cy="14" r="5" fill="#fff"/><defs><filter id="gfilter0_f" x="0" y="22" width="40" height="22" filterUnits="userSpaceOnUse" color-interpolation-filters="sRGB"><feFlood flood-opacity="0" result="BackgroundImageFix"/><feBlend in="SourceGraphic" in2="BackgroundImageFix" result="shape"/><feGaussianBlur stdDeviation="4" result="effect1_foregroundBlur"/></filter></defs></symbol><symbol fill="none" viewBox="0 0 64 78" id="map-tip-main" xmlns="http://www.w3.org/2000/svg"><g filter="url(#hfilter0_f)"><ellipse cx="32" cy="64.167" rx="23.143" ry="5.833" fill="#13152D" fill-opacity=".5"/></g><path fill-rule="evenodd" clip-rule="evenodd" d="M37.728 54.163c.14-.243.375-.415.647-.482C50.21 50.793 59 40.043 59 27.222 59 12.188 46.912 0 32 0S5 12.188 5 27.222c0 12.82 8.79 23.57 20.625 26.46.272.066.507.238.646.481l4.86 8.488a1 1 0 001.736 0l4.861-8.488z" fill="#0068DE"/><circle cx="32" cy="27" r="15" fill="#fff"/><path d="M47 27c0-8.283-6.717-15-15-15-.949 0-1.874.092-2.776.255l-.2.13c-1.088.78-1.883 1.79-2.168 3.124-.725 3.363 1.573 6.185 4.35 7.01 1.249.37 2.352-.378 2.46-1.62.07-.778-.162-1.48-.656-2.082-1.01-1.21-2.244-1.241-3.324-.092-.046.046-.108.085-.185.146a5.674 5.674 0 01.286-2.174c.57-1.705 1.959-2.769 3.609-2.738.98.015 1.866.332 2.653.91.964.71 1.411 1.673 1.31 2.869a9.17 9.17 0 01-.254 1.434c-.13.517-.316 1.026-.493 1.581 3.732-.725 6.67.586 9.146 3.393-1.658-.246-3.192-.053-4.696.394-1.057.316-2.098.678-3.147 1.018-1.288.424-2.576.817-3.94.894-.587.031-1.18 0-1.775 0l-1.395-.285c-.301-.108-.61-.208-.91-.324-3.232-1.21-5.121-3.493-5.484-6.964-.139-1.357 0-2.7.301-4.018.093-.416.224-.81.37-1.188C20.285 16.18 17 21.209 17 27c0 8.283 6.717 15 15 15 .964 0 1.897-.093 2.807-.262.178-.124.355-.247.525-.386 1.04-.833 1.781-1.882 1.997-3.231.548-3.401-1.897-6.093-4.712-6.771-1.272-.309-2.33.5-2.368 1.75a2.818 2.818 0 00.764 2.044c1.072 1.157 2.306 1.118 3.324-.085.046-.054.1-.092.177-.162a5.751 5.751 0 01-.17 2.19c-.478 1.728-1.804 2.87-3.462 2.923a4.54 4.54 0 01-2.7-.77c-1.002-.657-1.496-1.597-1.457-2.793.015-.486.085-.971.177-1.442.1-.524.262-1.041.41-1.612-3.687.926-6.695-.231-9.317-2.9 1.666.163 3.193-.115 4.666-.64 1.04-.37 2.059-.786 3.084-1.187 1.258-.494 2.53-.949 3.887-1.103.586-.062 1.18-.07 1.774-.093l1.412.216c.308.093.624.178.925.278 3.293 1.041 5.298 3.216 5.846 6.663.216 1.35.146 2.692-.093 4.034a8.676 8.676 0 01-.447 1.596C43.784 37.72 47 32.737 47 27z" fill="#0068DE"/><defs><filter id="hfilter0_f" x=".857" y="50.333" width="62.286" height="27.667" filterUnits="userSpaceOnUse" color-interpolation-filters="sRGB"><feFlood flood-opacity="0" result="BackgroundImageFix"/><feBlend in="SourceGraphic" in2="BackgroundImageFix" result="shape"/><feGaussianBlur stdDeviation="4" result="effect1_foregroundBlur"/></filter></defs></symbol></svg>