<?xml version="1.0" encoding="UTF-8"?>
<!DOCTYPE svg PUBLIC "-//W3C//DTD SVG 1.1//EN" "http://www.w3.org/Graphics/SVG/1.1/DTD/svg11.dtd">
<!-- Creator: CorelDRAW X6 -->
<svg xmlns="http://www.w3.org/2000/svg" xml:space="preserve" width="50px" height="50px" version="1.1" style="shape-rendering:geometricPrecision; text-rendering:geometricPrecision; image-rendering:optimizeQuality; fill-rule:evenodd; clip-rule:evenodd"
viewBox="0 0 50 50"
 xmlns:xlink="http://www.w3.org/1999/xlink">
 <defs>
  <style type="text/css">
   <![CDATA[
    .fil2 {fill:#00AFEF}
    .fil0 {fill:#262A48}
    .fil3 {fill:#ED3237}
    .fil7 {fill:#00AE5B}
    .fil6 {fill:#00B15D}
    .fil5 {fill:#038CD0}
    .fil8 {fill:#FEBA39}
    .fil4 {fill:#FEBB39}
    .fil1 {fill:#FEFEFE;fill-rule:nonzero}
   ]]>
  </style>
 </defs>
 <g id="Слой_x0020_1">
  <metadata id="CorelCorpID_0Corel-Layer"/>
  <g id="_1106413152">
   <g>
    <path class="fil0" d="M6 41c-9,-10 -8,-26 3,-35 10,-9 26,-8 35,3 9,10 8,26 -3,35 -10,9 -26,8 -35,-3zm3 -3c-7,-9 -7,-22 2,-29 9,-7 22,-7 29,2 7,9 7,22 -2,29 -9,7 -22,7 -29,-2z"/>
    <path class="fil1" d="M20 46l0 2 0 0 1 -2 0 0 0 0 0 0 0 0 0 0zm0 1l0 0 0 1 0 -1zm-2 -1l0 0c0,0 0,0 0,0 0,0 0,0 0,0 0,0 0,0 0,0 0,0 0,0 0,1 0,0 0,1 0,1 0,0 0,0 0,0 0,0 0,0 0,0 0,0 0,0 0,0l0 0c0,0 0,0 0,0 0,0 0,0 0,0 0,0 0,0 0,0 0,0 0,0 0,-1 0,0 0,-1 0,-1 0,0 0,0 0,0 0,0 0,0 0,0 0,0 0,0 0,0zm-2 1l0 0 1 0 0 0 0 0 1 -2 0 0 -1 2 0 0zm-1 -2l0 2 0 0 1 -2 0 0 0 0 0 0 0 0 0 0zm0 1l0 0 -1 1 0 -1zm-1 -1l-1 2 0 0 0 -1 0 0 0 1 0 0 1 -2 0 0 0 1 0 0 0 -1 0 0zm-1 -1l-1 2 0 0 2 -2 0 0 0 0 0 0 0 0 0 0zm0 1l0 0 -1 1 0 -1zm-1 -2l0 0 0 1 0 0 0 1 -1 1 0 0 1 -1 0 -1 0 0 0 0zm0 1l-1 2 0 0 1 -2 0 0zm-2 -1l-1 2 0 0 2 -1 0 0 0 0 0 0 0 0 0 0zm0 1l0 0 -1 1 0 -1zm-1 -2l-1 2 1 1 1 -1c0,0 1,0 1,0l0 0 0 0 0 0c0,0 0,0 -1,0l-1 1 0 0 1 -1 0 0zm-1 -1l-1 2 0 0 2 -1 0 0 0 0 0 0 0 0 0 0zm0 1l0 0 -1 0 1 -1zm-1 -2l0 0c0,0 0,0 0,0 0,0 0,0 0,0 0,0 0,0 0,0 0,0 0,0 -1,1 0,0 0,0 -1,0 0,0 0,0 0,0 0,0 0,0 0,0 0,0 0,0 0,0l0 0c0,0 0,0 0,0 0,0 0,0 0,0 0,0 0,0 0,0 0,0 0,0 1,0 0,0 1,0 1,-1 0,0 0,0 0,0 0,0 0,0 0,0 0,0 0,0 0,0zm-1 -1c0,0 0,0 0,1l0 0 -1 0 0 0 2 -1 0 0c0,0 0,0 -1,0zm0 0c0,0 0,0 0,0l0 0 -1 0 0 0c0,0 0,0 0,0zm0 -1l-2 1 0 0 2 -1 0 0zm-1 -1c0,0 0,0 0,-1 0,0 0,0 0,0 0,0 0,0 -1,0 0,0 -1,0 -1,1 0,0 0,0 0,0 0,0 0,0 0,0 0,0 0,0 0,0l0 0c0,0 0,0 0,0 0,0 0,0 0,0 0,0 0,0 1,0l0 1 1 0zm0 0l0 0c0,0 0,0 1,0 0,0 0,0 0,0 0,0 0,0 0,0l0 0zm0 -3l-1 1 -1 0 0 0 1 0 1 -1 0 0zm0 1l-2 1 0 0 2 -1 0 0zm-1 -1l-2 1 0 0 2 -1 0 0zm-1 -2l-2 1 0 0 1 0 -1 1 0 0 2 -1 0 0 -1 0 1 -1 0 0 -1 0 1 0 0 0zm0 -2l-1 0 0 0 -2 0 0 1 1 0c0,0 1,0 1,0l0 0 1 0 0 0 0 0 0 -1 0 0 0 0zm-1 1l0 1c0,0 -1,0 -1,0l-1 0 0 0 2 0zm0 -1l-2 0 0 0 2 0 0 0zm-2 -1l0 0 0 1 2 0 0 0 -2 0 0 -1zm2 -1l-2 0 0 0 2 0 0 0zm0 -2l-2 0 0 0 1 0 0 0 -1 0 0 0 2 0 0 0 -1 0 0 0 1 0 0 0zm0 -1l-2 0 0 0 2 0 0 0zm1 -1l0 0 -1 0 0 0 -2 0 0 0 1 0 0 0 -1 0 0 0 2 0 0 0 -1 0 0 0 1 0 0 0 0 0zm0 -4l0 0 0 0 0 0 0 0 1 1 1 0zm0 -1l0 0 0 0 0 0 0 0 1 1 1 0zm1 -2l-1 0 -1 -1 0 0 1 1 1 0 0 0zm-1 2l-1 -1 -1 0 0 0 1 0 1 1 0 0zm0 -1l-2 -1 0 0 2 1 0 0zm0 -2c0,0 -1,0 -1,0 0,0 0,0 0,0 0,0 0,0 0,0 0,0 0,0 1,1 0,0 1,0 1,0 0,0 0,0 0,0 0,0 0,0 0,0 0,0 0,0 -1,-1zm0 0c0,0 1,0 1,0 0,0 0,0 0,0 0,0 0,0 0,0 0,0 0,0 -1,0 0,0 -1,0 -1,0 0,0 0,0 0,0 0,0 0,0 0,0 0,0 0,0 1,0zm0 -2l0 0 0 1 1 0 0 0 0 0 0 0 1 0 0 0 -1 0 0 0 0 0 0 0 -1 0 0 0zm2 0l-2 -1 0 0 2 2 0 0 0 0 0 0 0 0 0 0zm-1 0l0 0 -1 -1 1 0zm0 -2c0,0 -1,0 -1,0l0 0 2 1 0 0 -1 -1 0 0c0,0 0,-1 0,-1zm0 0c0,0 0,0 0,0l0 0 -1 0 0 0c0,0 0,0 0,0zm2 -1c0,0 -1,0 -1,0l0 0 -1 -1 0 0 2 1 0 0c0,0 0,-1 0,-1zm0 0c0,0 0,0 0,0l0 0 -1 0 0 0c0,0 0,0 0,0zm1 0l-2 -1 0 0 2 1 0 0zm1 -2l0 0c0,0 0,0 0,0 0,0 0,0 0,0 0,0 0,0 0,0 0,0 0,0 -1,0 0,0 0,0 0,-1 0,0 0,0 0,0 0,0 0,0 0,0 0,0 0,0 0,0l0 0c0,0 0,0 0,0 0,0 0,0 0,0 0,0 0,0 0,0 0,0 0,0 1,1 0,0 1,1 1,1 0,0 0,0 0,0 0,0 0,0 0,0 0,0 0,0 0,0zm2 0l-1 -2 -1 1 1 2 0 0 -1 -1 0 0 1 1 0 0zm1 -2c0,0 0,-1 -1,-1 0,0 0,0 0,0 0,0 0,0 0,0 0,0 0,0 0,1 0,0 0,1 1,1 0,0 0,0 0,0 0,0 0,0 0,0 0,0 0,0 0,-1zm0 0c0,0 0,1 0,1 0,0 0,0 0,0 0,0 0,0 0,0 0,0 0,0 0,-1 0,0 0,-1 0,-1 0,0 0,0 0,0 0,0 0,0 0,0 0,0 0,0 0,1zm1 -1c0,0 0,0 -1,0l0 0 1 2 0 0 0 -1 0 0c0,0 0,0 0,-1zm0 0c0,0 0,0 0,0l0 0 0 -1 0 0c0,0 0,0 0,0zm1 -1l0 0 -1 0 0 0 0 0 1 2 0 0 -1 -2 0 0zm4 1l-1 -2 0 0 1 2 0 0 -1 -2 0 0 1 2 0 0 -1 -2 0 0 1 2 2 -1zm1 0l0 0 -1 0 0 -1 0 0 0 0 0 0 0 -1 1 0 0 0 -1 0 1 2 1 0zm1 -1c0,0 0,-1 -1,-1l0 0 0 -1 1 0 0 0 -1 0 0 2 1 0c0,0 1,0 0,-1zm0 0c0,0 0,0 0,0l0 0 0 -1 0 0c0,0 0,0 0,0zm2 0l0 0 -1 0 0 -1 0 0 0 0 0 0 0 -1 1 0 0 0 -1 0 0 2 1 0zm1 -2c0,0 0,-1 -1,-1l-1 0 0 2 0 0 0 -1 0 0c0,0 1,0 1,-1zm0 0c0,0 0,0 0,0l0 0 0 -1 0 0c0,0 0,0 0,0zm2 1l0 -2 -1 0 0 1c0,1 0,1 0,1l0 0 0 0 0 0c0,0 1,0 1,-1l0 -1 0 0 0 2 0 0zm1 0l0 -2 0 0 0 2 0 0zm1 -2l0 0 -1 0 0 2 0 0 0 -2 1 0zm0 2l0 -2 0 0 0 2 0 0zm3 1l1 -2 0 0 -1 1 0 -1 0 0 -1 2 0 0 0 -1 0 1 0 0 0 -1 0 1 0 0zm1 0l0 0 -1 0 0 -1 0 0 0 0 0 0 0 -1 1 0 0 0 -1 0 -1 2 1 0zm1 1l0 -1 1 -1 0 0 -1 1 0 1 0 0zm-1 0l1 -2 0 0 -1 2 0 0zm3 -1l0 0 -1 0 0 0 0 0 -1 2 0 0 1 -2 0 0zm0 2l0 0 0 0 0 -1 0 0 0 0 0 0 0 -1 0 0 0 0 -1 0 -1 2 1 0zm2 0c0,0 0,-1 0,-1l0 0 0 0 1 0 0 0 -1 -1 -1 2 0 0c0,0 1,0 1,0zm0 0c0,0 0,0 0,0l0 0 0 -1 0 0c0,0 0,0 0,0zm0 1l1 -2 0 0 -1 2 0 0zm2 0l0 -1 0 0 0 0 0 0 0 0 1 0zm0 0l0 -1 0 0 0 0 0 0 0 0 1 0zm3 4l1 -1 1 0 0 0 -1 0 -1 1 0 0zm-1 -1l2 -1 0 0 -2 1 0 0zm2 1c0,0 1,0 1,-1 0,0 0,0 0,0 0,0 0,0 0,0 0,0 0,0 -1,0 0,0 -1,0 -1,1 0,0 0,0 0,0 0,0 0,0 0,0 0,0 0,0 1,0zm0 0c0,0 0,0 -1,0 0,0 0,0 0,0 0,0 0,0 0,0 0,0 0,0 1,0 0,0 1,0 1,0 0,0 0,0 0,0 0,0 0,0 0,0 0,0 0,0 -1,0zm0 2l2 -1 0 0 -1 0 1 -1 0 0 -2 1 0 0 1 -1 -1 1 0 0 1 0 -1 1 0 0zm1 2l2 -1 0 0 -1 0 1 -1 0 0 -2 1 0 0 1 -1 -1 1 0 0 1 0 -1 1 0 0zm3 1l0 0 -1 0 1 -1 0 0 -1 1 0 0c0,0 0,0 0,0l0 0c0,0 0,0 1,0l2 0zm-2 2l2 -1 0 0 -1 0 0 0 1 0 0 0 -2 1 0 0 1 0 0 0 -1 0 0 0zm0 2l2 -1 0 0 -2 0 0 0 0 0 0 0 0 0 0 0zm1 -1l0 0 1 0 -1 0zm0 2l2 0 0 -1 -1 0c-1,0 -1,0 -1,0l0 0 0 0 0 0c0,0 0,1 1,0l1 0 0 0 -2 0 0 0zm0 2l1 0 0 0 2 0 0 -1 -1 0c0,0 -1,0 -1,0l0 0 -1 0 0 0 0 0 0 1 0 0 0 0zm1 -1l0 -1c0,0 1,0 1,0l1 0 0 0 -2 0zm0 2c0,0 1,0 1,-1l0 0 1 0 0 0 -2 0 0 1c0,0 0,1 1,1zm0 0c0,0 0,0 0,0l0 0 1 0 0 0c0,0 0,0 0,0zm-1 1l2 0 0 0 -2 0 0 0zm-1 1l0 0 1 0 0 0 1 0 1 1 0 0 -1 -1 -1 0 0 0 0 0zm0 -1l2 0 0 0 -2 0 0 0zm0 4l2 0 0 0 -1 -1 1 0 0 0 -2 0 0 0 1 0 -1 0 0 0 1 0 -1 0 0 0zm0 1l0 0 0 -1 1 0 0 0 0 0 0 0 1 0 0 1 0 0 0 -1 -2 -1 0 1zm-1 2l2 1 0 0 -1 -1 1 0 0 0 -2 -1 0 0 1 0 -1 0 0 0 1 1 -1 0 0 0zm-1 1l2 1 0 -1 -1 0c-1,0 -1,0 0,-1l0 0 0 0 0 0c0,0 0,1 1,1l1 0 0 0 -2 -1 0 0zm-1 1l0 0 0 -1 1 0 0 0 0 0 0 0 1 0 0 1 0 0 0 -1 -2 -1 0 1zm-1 1l1 0 1 1 0 0 -1 -1 -1 0 0 0zm0 -1l2 1 0 0 -2 -1 0 0zm-1 2l0 0 0 0 1 0 0 0 0 0 0 0 1 0 0 0 0 0 0 -1 -2 -1 0 1zm1 2l0 0 1 -1 0 0 0 0 -1 -1 0 0 1 1 0 0zm-1 1l0 0 1 -1 0 0 0 0 -1 -1 0 0 1 1 0 0zm-2 -1l2 2 0 0 -2 -2 0 0zm-1 1l1 0 0 1 0 0 0 -1 -1 0 0 0zm1 -1l1 2 0 0 -1 -2 0 0zm-3 2l1 2 0 0 0 -1 1 1 0 0 -1 -2 0 0 1 1 -1 -1 0 0 0 1 -1 -1 0 0zm-1 1l0 0 0 0 0 1 0 0 0 0 0 0 0 1 0 0 0 0 1 -1 -1 -2 -1 1zm-1 1l1 1 0 1 0 0 0 -1 -1 -1 0 0zm1 0l1 2 0 0 -1 -2 0 0zm-2 1l0 0 1 0 0 1 0 0 0 0 0 0 0 1 -1 0 0 0 1 0 -1 -2 -1 0zm-2 1l1 2 0 0 0 -1 1 1 0 0 -1 -2 0 0 0 1 -1 -1 0 0 0 1 0 -1 0 0zm-1 0l0 0 1 0 0 1 0 0 0 0 0 0 0 1 -1 0 0 0 1 0 -1 -2 -1 0zm-1 1l0 0c0,0 0,0 0,0 0,0 0,0 0,0 0,0 0,0 0,0 0,0 0,0 0,1 0,0 0,1 0,1 0,0 0,0 0,0 0,0 0,0 0,0 0,0 0,0 0,0l0 0c0,0 0,0 0,0 0,0 0,0 0,0 0,0 0,0 0,0 0,0 0,0 0,-1 0,0 0,-1 0,-1 0,0 0,0 0,0 0,0 0,0 0,0 0,0 0,0 0,0zm-1 0l0 2 0 0 0 -2 0 0z"/>
    <ellipse class="fil2" cx="25" cy="48"/>
    <ellipse class="fil2" cx="3" cy="21"/>
    <ellipse class="fil2" cx="41" cy="8"/>
   </g>
   <g>
    <path class="fil3" d="M30 11c0,0 0,0 0,0 0,0 0,0 0,0 0,0 0,0 0,0z"/>
    <path class="fil4" d="M25 31c2,0 4,2 4,4 1,3 -1,5 -3,7l0 0c5,-3 6,-9 3,-13 0,0 -1,-1 -2,-1 -1,1 -2,2 -3,2zm0 -3c-1,0 -3,0 -4,0 -1,0 -2,1 -3,1l0 0c2,1 4,1 6,-1 0,0 1,-1 1,-1zm-7 2c-1,0 -1,1 -2,1 -3,2 -6,3 -9,3 2,3 6,3 9,1 1,0 2,-1 2,-1 1,-1 2,-1 2,-1 -1,0 -2,0 -3,-1l0 0 0 -1z"/>
    <path class="fil5" d="M20 20c-1,0 -1,0 -1,1 -2,1 -3,4 -1,6 1,1 2,1 3,1 1,0 2,-1 3,-2 0,0 0,0 -1,0 0,0 0,0 -1,0 -2,0 -3,-3 0,-4 4,-1 6,5 3,8 -2,2 -4,2 -7,1l0 0c4,2 10,-1 10,-5 0,-2 0,-4 -2,-6 -1,-1 -3,-2 -4,-3 -3,-2 -5,-3 -6,-5 -1,3 2,7 4,8z"/>
    <path class="fil6" d="M23 28c1,-1 2,-2 2,-3 0,-1 0,-2 -1,-2 0,0 0,0 0,0 1,1 2,2 1,4 0,0 0,1 0,1 -1,0 -1,0 -2,0z"/>
    <path class="fil5" d="M40 22c0,0 2,-1 2,-4 0,-2 0,-3 -1,-5 0,0 0,0 0,0 3,4 1,8 -2,8z"/>
    <path class="fil3" d="M31 13c-6,-2 -12,-2 -16,-6 6,2 10,2 16,6z"/>
    <path class="fil7" d="M36 16c-1,0 -2,-1 -4,-2 -4,-3 -7,-4 -11,-5 5,0 10,0 15,7z"/>
    <path class="fil0" d="M39 21c-1,-2 -1,-3 -3,-6 -2,-3 -4,-5 -8,-6 0,0 1,0 1,0 7,1 10,5 9,13z"/>
    <path class="fil8" d="M40 22c0,0 0,0 0,0 0,-1 1,-2 1,-4 0,-3 -1,-5 -3,-7 3,1 5,4 5,7 0,2 -1,3 -2,4z"/>
    <path class="fil0" d="M28 23c1,1 3,1 4,1 1,0 2,0 3,0 1,0 2,0 2,0 0,0 0,1 0,1 0,0 0,0 0,0 0,0 0,0 0,0 0,0 0,0 0,0 0,0 0,0 1,0 0,-1 0,-1 1,-1 1,0 1,-1 1,-1 0,0 -1,-1 -1,-1 -1,1 0,1 -1,2 0,0 0,0 0,0 0,0 0,0 0,0 0,0 0,0 0,0 0,0 0,0 -2,0 -2,-1 -3,-2 -5,0 0,-1 0,-1 1,-1 -1,0 -2,0 -3,0 -1,0 -1,-1 -3,-2 1,1 1,2 2,3zm-3 -5c0,0 0,1 0,1 1,0 1,1 2,1 0,0 0,0 1,0 0,0 0,0 0,0 0,-1 -1,-3 -2,-2 -1,0 -1,1 -1,1zm0 1c1,1 1,1 2,2 0,-1 0,-1 0,-1 -1,0 -1,0 -2,-1 0,0 0,0 0,0z"/>
   </g>
  </g>
 </g>
</svg>
