<svg width="50" height="50" viewBox="0 0 50 50" fill="none" xmlns="http://www.w3.org/2000/svg">
<path d="M50 25C50 11.1954 38.8046 0 25 0C23.419 0 21.8766 0.154242 20.3728 0.424165C20.2571 0.501285 20.1542 0.565553 20.0386 0.642673C18.2262 1.94087 16.9023 3.62468 16.4267 5.84833C15.2185 11.4524 19.0488 16.1568 23.6761 17.5321C25.7584 18.1491 27.5964 16.9023 27.7764 14.8329C27.892 13.5347 27.5064 12.365 26.6838 11.3625C25 9.34447 22.9434 9.29306 21.144 11.2082C21.0668 11.2853 20.964 11.3496 20.8355 11.4524C20.7584 10.1671 20.9254 8.98458 21.3111 7.82776C22.2622 4.98715 24.5758 3.21337 27.3265 3.26478C28.9589 3.29049 30.437 3.81748 31.7481 4.78149C33.3548 5.96401 34.1003 7.57069 33.9332 9.56298C33.8689 10.3599 33.7018 11.1697 33.509 11.9537C33.2905 12.8149 32.982 13.6632 32.6864 14.5887C38.9075 13.3805 43.8046 15.5656 47.9306 20.2442C45.1671 19.8329 42.6093 20.1542 40.1028 20.8997C38.3419 21.4267 36.6067 22.0308 34.8586 22.5964C32.7121 23.3033 30.5656 23.9589 28.2905 24.0874C27.3136 24.1388 26.3239 24.0874 25.3342 24.0874L23.0077 23.6118C22.5064 23.4319 21.9923 23.2648 21.491 23.072C16.1054 21.054 12.9563 17.2494 12.3522 11.4653C12.1208 9.20308 12.3522 6.96658 12.8535 4.76864C13.0077 4.07455 13.2262 3.41902 13.4704 2.7892C5.47558 6.96658 0 15.347 0 25C0 38.8046 11.1954 50 25 50C26.6067 50 28.162 49.8458 29.6787 49.563C29.9743 49.3573 30.2699 49.1517 30.5527 48.9203C32.2879 47.5321 33.5219 45.7841 33.8817 43.5347C34.7943 37.8663 30.7198 33.3805 26.0283 32.2494C23.9075 31.7352 22.1465 33.0848 22.0823 35.1671C22.0437 36.4653 22.4807 37.6221 23.3548 38.5733C25.1414 40.5013 27.1979 40.437 28.8946 38.4319C28.9717 38.3419 29.0617 38.2776 29.1902 38.162C29.3316 39.4473 29.2288 40.6427 28.9075 41.8123C28.1105 44.6915 25.8997 46.5938 23.1362 46.6838C21.5039 46.7352 20 46.2982 18.6375 45.3985C16.9666 44.3059 16.144 42.7378 16.2082 40.7455C16.2339 39.9357 16.3496 39.126 16.5039 38.3419C16.6709 37.4679 16.9409 36.6067 17.1851 35.6555C11.0411 37.1979 6.02828 35.2699 1.6581 30.8226C4.43445 31.0925 6.97943 30.6298 9.43445 29.7558C11.1697 29.1388 12.8663 28.4447 14.5758 27.7764C16.671 26.9537 18.7918 26.1954 21.054 25.9383C22.0308 25.8355 23.0206 25.8226 24.0103 25.7841L26.3625 26.144C26.8766 26.2982 27.4036 26.4396 27.9049 26.6067C33.3933 28.3419 36.7352 31.9666 37.6478 37.7121C38.0077 39.9614 37.892 42.1979 37.4936 44.4344C37.3265 45.3728 37.0694 46.2596 36.7481 47.0951C44.6401 42.8663 50 34.563 50 25Z" fill="#0068DE"/>
</svg>
