<svg width="32" height="32" viewBox="0 0 32 32" fill="none" xmlns="http://www.w3.org/2000/svg">
<path d="M9.31104 8.66046C9.8718 8.53585 11.2581 10.0104 11.8812 10.7633L11.5696 12.0873L11.8812 12.3989L13.3609 12.0873C13.6725 12.0094 14.4513 11.9004 15.0744 12.0873C15.6974 12.2742 15.6974 13.0479 15.6195 13.4113H16.9435C17.5926 12.7883 19.1243 11.3241 20.0589 10.4518C20.9934 9.5795 22.0578 10.0883 22.4732 10.4518C23.8232 11.5941 26.71 14.159 27.4577 15.2805C28.2054 16.402 27.7692 19.59 27.4577 21.0438L30.4951 25.0159C30.5471 25.3274 30.5107 26.0595 29.95 26.4956C29.3892 26.9318 28.8336 26.5735 28.6259 26.3399L25.1991 21.8227V19.3304L22.7847 21.8227V26.7293C22.6549 27.0148 22.2396 27.586 21.6165 27.586C20.9934 27.586 20.6819 27.0148 20.604 26.7293V21.0438L23.0963 17.8506L19.8252 13.8786C19.6954 14.0344 19.2644 14.5328 18.5791 15.2805C17.8937 16.0282 17.2032 16.0593 16.9435 15.9815C16.1647 15.9295 14.4825 15.7945 13.984 15.6699C13.4856 15.5453 13.1013 14.943 12.9715 14.6575C12.66 14.6315 11.8812 14.5951 11.2581 14.6575C10.635 14.7198 10.1158 14.1642 9.9341 13.8786L7.83127 16.4488L10.4793 20.4208L11.2581 26.3399C11.1283 26.6514 10.7441 27.29 10.2456 27.3523C9.74718 27.4146 9.41489 26.8072 9.31104 26.4956L8.45433 21.1996L6.3515 18.3179L5.72844 19.0189L6.03997 22.29L2.37948 26.9629C2.09391 27.1446 1.38258 27.3991 0.821829 26.9629C0.261074 26.5268 0.588181 25.8466 0.821829 25.561L4.01502 21.4332C3.93714 20.914 3.70349 19.4706 3.39196 17.8506C3.08043 16.2307 3.26215 15.4622 3.39196 15.2805C4.19674 14.1902 6.00882 11.7602 6.8188 10.7633C7.83127 9.51714 8.6101 8.81622 9.31104 8.66046Z" stroke="black"/>
<circle cx="12.8157" cy="7.41436" r="1.91436" stroke="black"/>
<circle cx="17.1771" cy="9.12778" r="1.91436" stroke="black"/>
</svg>
