<svg width="32" height="32" viewBox="0 0 32 32" fill="none" xmlns="http://www.w3.org/2000/svg">
<g clip-path="url(#clip0)">
<path d="M31.1131 26.6673C29.4295 25.4886 26.9382 21.3729 26.8329 21.1986C26.6728 20.9328 26.7584 20.5872 27.0241 20.4269C27.2897 20.267 27.6353 20.3524 27.7956 20.618C28.4785 21.7512 30.5218 24.8811 31.7578 25.746C32.0121 25.9239 32.0803 26.2791 31.8957 26.5286C31.625 26.8956 31.2114 26.736 31.1131 26.6673Z" fill="black"/>
<path d="M18.751 9.10712H13.1313C12.8209 9.10712 12.5693 8.85552 12.5693 8.54515C12.5693 8.23479 12.8209 7.98318 13.1313 7.98318H18.751C19.0615 7.98318 19.3129 8.23479 19.3129 8.54515C19.3129 8.85552 19.0615 9.10712 18.751 9.10712Z" fill="black"/>
<path d="M21.7471 27.0371C21.4779 27.0371 21.2402 26.8428 21.194 26.5684C20.4111 21.9285 24.3507 19.9963 24.6885 19.8406C26.2779 19.045 27.2294 18.0925 27.5169 17.0107C27.8369 15.806 27.1708 14.7562 27.1595 14.7341L24.9117 10.158C24.7749 9.87963 24.8897 9.54277 25.1686 9.40581C25.4463 9.26869 25.7838 9.38349 25.9208 9.66255L28.1555 14.2116C28.3006 14.4468 29.0219 15.7242 28.6033 17.299C28.2289 18.7078 27.0784 19.9026 25.1838 20.8494C25.1739 20.8542 25.1639 20.859 25.1536 20.8632C25.011 20.9255 21.638 22.4436 22.302 26.3814C22.3539 26.6876 22.2118 27.0097 21.7471 27.0371Z" fill="black"/>
<path d="M0.0934727 26.5291C-0.0651625 26.2626 -0.0227741 25.9244 0.231556 25.7465C1.46772 24.8813 3.51071 21.7514 4.19374 20.6185C4.35415 20.3529 4.69935 20.2672 4.96508 20.4273C5.23081 20.5875 5.31655 20.9329 5.15631 21.1989C5.05114 21.3733 2.56003 25.489 0.876212 26.6677C0.777948 26.7359 0.315209 26.9023 0.0934727 26.5291Z" fill="black"/>
<path d="M24.427 17.9378L21.8479 12.4906C21.0096 12.9641 19.2486 13.6832 16.1968 13.7637L15.8071 13.7638C12.7448 13.6834 10.9803 12.9641 10.141 12.4904L7.56222 17.9379C7.42944 18.2186 7.09435 18.3384 6.81384 18.2054C6.53334 18.0727 6.41356 17.7377 6.54635 17.4571L9.40339 11.422C9.47982 11.2608 9.62801 11.1454 9.80303 11.1108C9.97772 11.0765 10.1588 11.1272 10.2907 11.2476C10.3011 11.2568 11.8028 12.5344 15.822 12.64L16.182 12.6399C20.1864 12.5344 21.6881 11.2568 21.7031 11.2438C21.8354 11.1275 22.0168 11.0786 22.1897 11.1141C22.3622 11.1499 22.5102 11.2626 22.586 11.422L25.4429 17.4571C25.5758 17.7377 25.4564 18.0733 25.1754 18.2054C24.848 18.3594 24.5229 18.1407 24.427 17.9378Z" fill="black"/>
<path d="M10.2414 27.0371C10.2103 27.0371 9.59435 26.9496 9.68651 26.3815C10.3262 22.4396 6.8139 20.8539 6.80507 20.8495C4.91044 19.9027 3.75985 18.708 3.38558 17.2992C2.96716 15.7242 3.68808 14.4468 3.83339 14.2117L6.06793 9.6627C6.20473 9.38413 6.54159 9.269 6.82016 9.40596C7.09874 9.54292 7.2137 9.87962 7.0769 10.1582L4.82903 14.7342C4.81811 14.7564 4.80575 14.7777 4.79226 14.7981C4.78745 14.8055 4.14616 15.8119 4.47612 17.0259C4.7685 18.1018 5.71887 19.0488 7.3004 19.8407C7.6379 19.9966 11.5778 21.9284 10.7949 26.5684C10.7485 26.8428 10.5107 27.0371 10.2414 27.0371Z" fill="black"/>
<path d="M22.4486 10.2889C23.9171 10.2889 25.1111 9.09466 25.1111 7.62648C25.1111 6.15798 23.9168 4.96356 22.4486 4.96356C20.9805 4.96356 19.7859 6.15782 19.7859 7.62648C19.7859 9.0945 20.9803 10.2889 22.4486 10.2889ZM22.4486 6.1164C23.2812 6.1164 23.9583 6.79381 23.9583 7.62632C23.9583 8.45884 23.2808 9.13576 22.4486 9.13576C21.616 9.13576 20.9387 8.45868 20.9387 7.62632C20.9384 6.79381 21.616 6.1164 22.4486 6.1164Z" fill="black"/>
<path d="M9.52327 10.2889C10.9914 10.2889 12.1857 9.09466 12.1857 7.62648C12.1857 6.15798 10.9914 4.96356 9.52327 4.96356C8.05477 4.96356 6.86035 6.15782 6.86035 7.62648C6.86035 9.0945 8.05493 10.2889 9.52327 10.2889ZM9.52327 6.1164C10.3556 6.1164 11.0327 6.79381 11.0327 7.62632C11.0327 8.45884 10.3555 9.13576 9.52327 9.13576C8.69044 9.13576 8.01335 8.45868 8.01335 7.62632C8.01319 6.79381 8.6906 6.1164 9.52327 6.1164Z" fill="black"/>
</g>
<defs>
<clipPath id="clip0">
<rect width="32.0002" height="32" fill="white"/>
</clipPath>
</defs>
</svg>
