<svg width="32" height="32" viewBox="0 0 32 32" fill="none" xmlns="http://www.w3.org/2000/svg">
<g clip-path="url(#clip0)">
<path d="M1.63873 29.1347L6.08047 22.5712C6.08123 22.5701 6.08192 22.569 6.08274 22.5679L16.8873 6.60212C17.2676 6.04016 17.8689 5.60641 18.5729 5.37463C18.7783 2.37674 21.2812 0 24.3303 0H26.2713C27.4295 0 28.3769 0.917885 28.4253 2.06438C29.5532 2.13279 30.45 3.07159 30.45 4.21637C30.45 4.50148 30.2189 4.7325 29.9338 4.7325C29.6488 4.7325 29.4177 4.50148 29.4177 4.21637C29.4177 3.64195 28.9844 3.16752 28.4276 3.10098C28.4269 4.52701 28.4232 5.81733 28.4028 6.98468C28.4037 6.9875 28.4046 6.99025 28.4055 6.99308C28.4077 7.00058 28.4094 7.00822 28.4113 7.01579C28.4134 7.02418 28.4159 7.03244 28.4176 7.04104C28.4202 7.05405 28.422 7.06726 28.4236 7.08047C28.424 7.08385 28.4247 7.08708 28.4251 7.09045C28.427 7.10938 28.4278 7.12844 28.4276 7.14764C28.4275 7.49592 28.4092 7.8365 28.3746 8.1702C28.3274 9.68411 28.2379 10.9678 28.0686 12.0574C27.7079 14.3786 26.9734 15.9241 25.5334 17.3916C25.5328 17.3923 25.5321 17.393 25.5314 17.3936C25.5313 17.3936 25.5312 17.3937 25.5312 17.3937C25.2618 17.6649 25.0031 17.9235 24.7547 18.1718C21.5677 21.357 20.1615 22.7634 19.7267 27.3638V27.3642C19.7267 27.3953 19.7235 27.4255 19.7183 27.4551C19.627 28.4587 19.5807 29.6124 19.5716 30.9679H24.6156C24.9007 30.9679 25.1318 31.1989 25.1318 31.4841C25.1318 31.7692 24.9007 32.0002 24.6156 32.0002H19.0538H13.2814C12.9963 32.0002 12.7652 31.7692 12.7652 31.4841C12.7652 31.1989 12.9963 30.9679 13.2814 30.9679H14.3557C14.3815 29.8648 14.4907 28.8371 14.6856 27.8803H13.2798C12.9947 27.8803 12.7637 27.6493 12.7637 27.3642V22.8633C12.7637 22.5782 12.9947 22.3472 13.2798 22.3472C13.5648 22.3472 13.7959 22.5782 13.7959 22.8633V26.848H14.937C15.3418 25.4285 15.9573 24.1771 16.7902 23.074C18.2227 21.177 20.1017 19.9768 21.7594 18.918C22.9028 18.1877 23.9826 17.498 24.7965 16.6686C26.0482 15.3929 26.6969 14.0378 27.0332 11.9845C26.3618 13.017 25.446 13.9627 24.2782 14.8315C21.8424 16.6437 18.6555 17.9281 15.2815 19.2879C14.5741 19.573 13.861 19.8606 13.1504 20.1551L6.68207 29.7133C6.58607 29.8552 6.42593 29.9402 6.25465 29.9402H4.55342C4.26838 29.9402 4.03729 29.7092 4.03729 29.4241C4.03729 29.139 4.26838 28.9079 4.55342 28.9079H5.98075L11.3977 20.9035C9.80658 21.607 8.26548 22.3688 6.87152 23.2441L2.49358 29.7133C2.39379 29.8608 2.23118 29.9403 2.06567 29.9403C1.96617 29.9403 1.86549 29.9115 1.77685 29.8515C1.54087 29.6916 1.47901 29.3707 1.63873 29.1347ZM18.5396 30.9678C18.5475 29.807 18.5824 28.7878 18.6488 27.8802H17.1588C16.8738 27.8802 16.6427 27.6491 16.6427 27.364V25.2877C15.9193 26.7491 15.4479 28.5824 15.3885 30.9678H18.5396ZM17.6749 23.6303V26.8479H18.7429C18.9286 25.1829 19.249 23.9227 19.7392 22.8171C20.1034 21.9955 20.5541 21.2796 21.1057 20.5739C19.8817 21.3964 18.6679 22.3362 17.6749 23.6303ZM12.6129 19.2604C12.6152 19.2595 12.6175 19.2585 12.6198 19.2576C13.3788 18.9418 14.1405 18.6347 14.8957 18.3304C18.2063 16.9962 21.3333 15.736 23.6622 14.0032C25.9144 12.3276 27.1019 10.4288 27.3468 8.08569C27.3524 7.90167 27.3572 7.71352 27.3615 7.52145C24.6368 6.7977 22.0957 7.48808 19.3994 9.67826C19.3038 9.75602 19.1886 9.7938 19.0743 9.7938C18.9242 9.7938 18.7754 9.7287 18.6734 9.60311C18.4937 9.38186 18.5273 9.05684 18.7486 8.87709C20.2153 7.68572 21.6227 6.91449 23.0515 6.51913C24.4761 6.12508 25.8985 6.1054 27.3796 6.46057C27.3923 5.4482 27.3949 4.33115 27.3954 3.09224H24.5038C24.2188 3.09224 23.9877 2.86122 23.9877 2.57611C23.9877 2.291 24.2188 2.05998 24.5038 2.05998H27.3905C27.3414 1.48521 26.8587 1.03226 26.2713 1.03226H24.3302C21.7173 1.03226 19.5914 3.15727 19.59 5.76992C19.59 5.77047 19.5899 5.77095 19.5899 5.77143C19.5899 5.77184 19.5899 5.77219 19.5899 5.77253C19.5899 5.77363 19.5898 5.77473 19.5898 5.77584C19.5897 5.79208 19.5889 5.80825 19.5874 5.82421C19.5869 5.82869 19.586 5.83309 19.5854 5.8375C19.5839 5.84981 19.5823 5.86206 19.5799 5.87411C19.5783 5.88195 19.5761 5.88945 19.5742 5.89716C19.5721 5.90556 19.5703 5.91409 19.5677 5.92235C19.5649 5.93198 19.5613 5.94127 19.5578 5.95063C19.5555 5.95676 19.5535 5.96295 19.551 5.96901C19.5469 5.97898 19.5421 5.98855 19.5375 5.99818C19.5349 6.00341 19.5326 6.00885 19.5299 6.01394C19.525 6.02316 19.5196 6.03197 19.5141 6.04085C19.5109 6.04622 19.5078 6.05166 19.5044 6.05695C19.4992 6.0648 19.4935 6.07223 19.4879 6.07973C19.4835 6.08565 19.4793 6.09171 19.4746 6.09749C19.4695 6.10382 19.464 6.10967 19.4586 6.11572C19.4528 6.12219 19.4472 6.12873 19.4411 6.13492C19.4362 6.13995 19.4309 6.14456 19.4257 6.14944C19.4187 6.15598 19.4118 6.16266 19.4044 6.16878C19.3993 6.17305 19.3938 6.1769 19.3885 6.18103C19.3806 6.18709 19.3729 6.19321 19.3647 6.19886C19.3586 6.20298 19.3523 6.20663 19.346 6.21049C19.3382 6.21537 19.3305 6.2204 19.3224 6.2248C19.3141 6.22941 19.3054 6.23333 19.2968 6.23746C19.2904 6.24049 19.2843 6.24386 19.2778 6.24668C19.2654 6.25198 19.2528 6.25652 19.24 6.26086C19.2367 6.26196 19.2337 6.26334 19.2305 6.26437C19.2131 6.26994 19.1953 6.27469 19.1771 6.27834C18.5746 6.406 18.0384 6.74306 17.7422 7.1806L8.18752 21.2995C9.60336 20.5528 11.1024 19.889 12.6129 19.2604Z" fill="black"/>
</g>
<defs>
<clipPath id="clip0">
<rect width="32" height="32" fill="white" transform="matrix(-1 0 0 1 32 0)"/>
</clipPath>
</defs>
</svg>
