<svg width="32" height="32" viewBox="0 0 32 32" fill="none" xmlns="http://www.w3.org/2000/svg">
<path d="M26 15.625C27.2062 15.625 28.1875 14.6437 28.1875 13.4375V10.9375C28.1875 9.73131 27.2062 8.75 26 8.75H22.5625V4.0625C22.5625 1.82244 20.7401 0 18.5 0H13.5C11.2599 0 9.4375 1.82244 9.4375 4.0625V8.75H6C4.79381 8.75 3.8125 9.73131 3.8125 10.9375V13.4375C3.8125 14.6437 4.79381 15.625 6 15.625H6.3125V19.7366C5.15912 20.8204 4.4375 22.3587 4.4375 24.0625V31.0625C4.4375 31.5802 4.85725 32 5.375 32H26.625C27.1427 32 27.5625 31.5802 27.5625 31.0625V24.0625C27.5625 22.3587 26.8409 20.8204 25.6875 19.7367V15.625H26ZM26 10.625C26.1723 10.625 26.3125 10.7652 26.3125 10.9375V13.4375C26.3125 13.6098 26.1723 13.75 26 13.75H22.1871C22.4299 13.0654 22.5625 12.3293 22.5625 11.5625V10.625H26ZM21.9375 26.375H19.125C18.6073 26.375 18.1875 26.7948 18.1875 27.3125V30.125H13.8125V27.3125C13.8125 26.7948 13.3927 26.375 12.875 26.375H10.0625V20.0132C10.1658 20.0053 10.2698 20 10.375 20H12.875V20.3125C12.875 22.0356 14.2769 23.4375 16 23.4375C17.7231 23.4375 19.125 22.0356 19.125 20.3125V20H21.625C21.7302 20 21.8342 20.0053 21.9375 20.0132V26.375ZM17.25 20.3125C17.25 21.0018 16.6892 21.5625 16 21.5625C15.3108 21.5625 14.75 21.0018 14.75 20.3125V18.0051C15.1548 18.0834 15.5726 18.125 16 18.125C16.4274 18.125 16.8452 18.0834 17.25 18.0051V20.3125ZM16 16.25C13.4153 16.25 11.3125 14.1472 11.3125 11.5625V9.98538C12.2599 10.7798 13.4798 11.25 14.8018 11.25H17.1983C18.5202 11.25 19.7401 10.7798 20.6875 9.98538V11.5625C20.6875 14.1472 18.5847 16.25 16 16.25ZM11.6691 7.5H20.3309C19.7292 8.63081 18.5443 9.375 17.1983 9.375H14.8018C13.4558 9.375 12.2708 8.63081 11.6691 7.5ZM11.3125 4.0625C11.3125 2.85631 12.2938 1.875 13.5 1.875H18.5C19.7062 1.875 20.6875 2.85631 20.6875 4.0625V5.625H11.3125V4.0625ZM5.6875 13.4375V10.9375C5.6875 10.7652 5.82769 10.625 6 10.625H9.4375V11.5625C9.4375 12.3293 9.57012 13.0654 9.81287 13.75H6C5.82769 13.75 5.6875 13.6098 5.6875 13.4375ZM8.1875 15.625H10.8497C11.4006 16.3219 12.0896 16.9049 12.875 17.3321V18.125H10.375C9.60287 18.125 8.86481 18.2733 8.1875 18.5426V15.625ZM6.3125 24.0625C6.3125 22.6275 7.06106 21.3649 8.1875 20.6419V30.125H6.3125V24.0625ZM10.0625 30.125V28.25H11.9375V30.125H10.0625ZM20.0625 28.25H21.9375V30.125H20.0625V28.25ZM25.6875 30.125H23.8125V20.6419C24.9389 21.3649 25.6875 22.6275 25.6875 24.0625V30.125ZM23.8125 18.5426C23.1352 18.2733 22.3971 18.125 21.625 18.125H19.125V17.3321C19.9105 16.9049 20.5994 16.3219 21.1502 15.625H23.8125V18.5426Z" fill="black"/>
</svg>
