<svg width="32" height="32" viewBox="0 0 32 32" fill="none" xmlns="http://www.w3.org/2000/svg">
<g clip-path="url(#clip0)">
<path d="M30.4418 21.2155C30.3255 21.0992 30.1642 21.0323 29.9998 21.0323C29.8348 21.0323 29.6741 21.0992 29.5573 21.2155C29.441 21.3317 29.3748 21.493 29.3748 21.6574C29.3748 21.8218 29.441 21.9831 29.5573 22.0993C29.6741 22.2156 29.8348 22.2825 29.9998 22.2825C30.1642 22.2825 30.3255 22.2156 30.4418 22.0993C30.558 21.9831 30.6249 21.8218 30.6249 21.6574C30.6249 21.493 30.558 21.3318 30.4418 21.2155Z" fill="black"/>
<path d="M31.8873 14.7976L29.3556 11.1728C29.3553 11.1724 29.355 11.1721 29.3548 11.1716C29.3546 11.1715 29.3546 11.1713 29.3544 11.1712C29.3543 11.1709 29.3541 11.1707 29.3538 11.1704C29.3499 11.165 29.3461 11.1596 29.3421 11.1542L27.1378 8.23324C26.0523 6.7948 24.3284 5.93599 22.5263 5.93599H22.2691V4.35243C22.2691 2.8818 21.0726 1.6853 19.6019 1.6853C18.1313 1.6853 16.9348 2.88174 16.9348 4.35243V6.56112C16.9348 8.03174 18.1313 9.22824 19.6019 9.22824C19.6416 9.22824 19.6811 9.22699 19.7204 9.22524C19.4234 9.91937 19.5347 10.7507 20.0649 11.3455L23.0506 14.6949C23.1353 14.7899 23.1819 14.9124 23.1819 15.0397V18.9306V20.1808C23.1819 20.9254 23.6182 21.57 24.2486 21.8725V27.0389C23.5345 27.4858 23.0126 28.2125 22.8389 29.0647H18.0429C17.6976 29.0647 17.4178 29.3446 17.4178 29.6898C17.4178 30.0351 17.6976 30.3149 18.0429 30.3149H30.1344C30.4797 30.3149 30.7596 30.0351 30.7596 29.6898C30.7596 29.3446 30.4797 29.0647 30.1344 29.0647H29.8074C29.828 28.9637 29.8389 28.8591 29.8389 28.7521V27.8145H29.9994C30.3447 27.8145 30.6246 27.5346 30.6246 27.1894V23.8764C30.6246 23.5311 30.3447 23.2512 29.9994 23.2512C29.6542 23.2512 29.3743 23.5311 29.3743 23.8764V26.5643H25.4987V22.0031C26.3203 21.804 26.9326 21.0627 26.9326 20.1807V18.9306V18.6034L29.3744 17.1108V19.0943C29.3744 19.4396 29.6543 19.7194 29.9995 19.7194C30.3448 19.7194 30.6246 19.4396 30.6246 19.0943V16.5001C30.6246 16.4508 30.6183 16.4031 30.6075 16.3571L31.7008 15.6888C31.8479 15.5989 31.9513 15.4522 31.9866 15.2835C32.0219 15.1147 31.9859 14.9389 31.8873 14.7976ZM19.6021 7.97799C18.8208 7.97799 18.1851 7.34237 18.1851 6.56105V4.35243C18.1851 3.57112 18.8208 2.93549 19.6021 2.93549C20.3834 2.93549 21.019 3.57112 21.019 4.35243V6.56112C21.019 7.34237 20.3834 7.97799 19.6021 7.97799ZM25.9016 27.8145H28.5888V28.7521C28.5888 28.9244 28.4486 29.0647 28.2762 29.0647H24.1334C24.3914 28.3371 25.0866 27.8145 25.9016 27.8145ZM25.6824 20.1808C25.6824 20.5255 25.402 20.8059 25.0573 20.8059C24.7126 20.8059 24.4322 20.5255 24.4322 20.1808V19.5557H25.6824V20.1808H25.6824ZM25.6825 18.3054H24.4323V15.0397C24.4323 14.6052 24.2731 14.1872 23.984 13.8629L20.9983 10.5136C20.7346 10.2178 20.7469 9.76612 21.0264 9.4853C21.1767 9.33418 21.3765 9.25555 21.5899 9.2648C21.8029 9.2738 21.9957 9.36862 22.1328 9.53187L24.9804 12.9227C25.4331 13.4617 25.6825 14.1463 25.6825 14.8502V18.3054ZM26.2714 12.5749C26.1708 12.4162 26.0595 12.2637 25.9378 12.1187L23.0901 8.7278C22.7693 8.34587 22.3158 8.09868 21.8251 8.03237C21.9943 7.77749 22.1207 7.49205 22.1944 7.18618H22.5264C23.9385 7.18618 25.2893 7.85918 26.1399 8.9863L27.9548 11.3912L26.2714 12.5749ZM26.9326 17.1382V14.8503C26.9326 14.4737 26.8822 14.1012 26.785 13.7421L28.6898 12.4027L30.4819 14.9687L26.9326 17.1382Z" fill="black"/>
<path d="M15.0067 29.2476C14.8904 29.1313 14.7291 29.0645 14.5648 29.0645C14.4004 29.0645 14.2391 29.1313 14.1228 29.2476C14.0066 29.3638 13.9397 29.5251 13.9397 29.6895C13.9397 29.8539 14.0066 30.0152 14.1228 30.1315C14.2391 30.2477 14.4004 30.3146 14.5648 30.3146C14.7291 30.3146 14.8904 30.2477 15.0067 30.1315C15.1229 30.0152 15.1898 29.8539 15.1898 29.6895C15.1898 29.5251 15.1229 29.3638 15.0067 29.2476Z" fill="black"/>
<path d="M12.3978 1.6853C10.9271 1.6853 9.73069 2.88174 9.73069 4.35243V5.93599H9.47344C7.67138 5.93599 5.94744 6.79474 4.86194 8.23324L2.65769 11.1542C2.65369 11.1596 2.64976 11.1649 2.64594 11.1704C2.64576 11.1707 2.64557 11.1709 2.64538 11.1712C2.64526 11.1713 2.64519 11.1715 2.64507 11.1716C2.64482 11.172 2.64451 11.1724 2.64426 11.1728L0.112632 14.7976C0.0138823 14.9389 -0.0220552 15.1148 0.0132573 15.2836C0.0485698 15.4523 0.151945 15.599 0.299132 15.6889L1.39238 16.3571C1.38157 16.4031 1.37526 16.4509 1.37526 16.5002V27.1894C1.37526 27.5347 1.65513 27.8146 2.00038 27.8146H2.16094V28.7522C2.16094 28.8592 2.17182 28.9637 2.19238 29.0647H1.09819C0.752945 29.0647 0.47307 29.3446 0.47307 29.6899C0.47307 30.0351 0.752945 30.315 1.09819 30.315H12.1894C12.5347 30.315 12.8146 30.0351 12.8146 29.6899C12.8146 29.3446 12.5347 29.0647 12.1894 29.0647H9.16082C8.98713 28.2126 8.46526 27.4859 7.75119 27.039V21.8726C8.38151 21.57 8.81782 20.9255 8.81782 20.1809V18.9307V15.0398C8.81782 14.9125 8.86451 14.7899 8.94919 14.6949L11.9349 11.3456C12.4651 10.7507 12.5764 9.9193 12.2794 9.2253C12.3187 9.22705 12.3581 9.2283 12.3978 9.2283C13.8684 9.2283 15.0649 8.03187 15.0649 6.56118V4.35243C15.0649 2.8818 13.8685 1.6853 12.3978 1.6853ZM5.85988 8.98637C6.71044 7.85918 8.06138 7.18624 9.47344 7.18624H9.80538C9.87913 7.49212 10.0054 7.77755 10.1747 8.03243C9.68407 8.0988 9.23057 8.34593 8.90976 8.72793L6.06213 12.1187C5.94038 12.2637 5.82907 12.4163 5.72851 12.5749L4.04519 11.3912L5.85988 8.98637ZM6.31744 19.5557H7.56763V20.1808C7.56763 20.5255 7.28719 20.8059 6.94251 20.8059C6.59782 20.8059 6.31738 20.5255 6.31738 20.1808V19.5557H6.31744ZM1.51801 14.9687L3.31013 12.4027L5.21488 13.742C5.11769 14.1011 5.06726 14.4737 5.06726 14.8502V17.1381L1.51801 14.9687ZM2.62538 17.1109L5.06719 18.6034V18.9306V20.1808C5.06719 21.0627 5.67938 21.8041 6.50107 22.0031V26.5644H2.62538V17.1109ZM7.86644 29.0647H3.72363C3.55132 29.0647 3.41107 28.9246 3.41107 28.7522V27.8145H6.09819C6.91319 27.8145 7.60838 28.3371 7.86644 29.0647ZM11.0016 10.5135L8.01595 13.8629C7.72682 14.1872 7.56763 14.6052 7.56763 15.0397V18.3055H6.31744V14.8503C6.31744 14.1464 6.56682 13.4618 7.01951 12.9227L9.86713 9.53193C10.0042 9.36868 10.1971 9.2738 10.4101 9.2648C10.6229 9.25618 10.8231 9.33412 10.9735 9.4853C11.2529 9.76618 11.2652 10.2179 11.0016 10.5135ZM13.8147 6.56105C13.8147 7.34237 13.1791 7.97799 12.3978 7.97799C11.6164 7.97799 10.9808 7.34237 10.9808 6.56105V4.35243H10.9809C10.9809 3.57112 11.6165 2.93549 12.3978 2.93549C13.1791 2.93549 13.8147 3.57112 13.8147 4.35243V6.56105Z" fill="black"/>
</g>
<defs>
<clipPath id="clip0">
<rect width="32" height="32" fill="white"/>
</clipPath>
</defs>
</svg>
