<svg width="32" height="32" viewBox="0 0 32 32" fill="none" xmlns="http://www.w3.org/2000/svg">
<path d="M9.92503 23.3741C9.79005 23.1787 9.39861 22.7097 8.91271 22.3971C8.30534 22.0063 6 22.6582 4 21.5C2.98772 20.9138 1.2194 20.0523 1.01694 16.3397C0.854976 13.3696 1.89425 12.2363 2.43414 12.0409C4.18876 11.9757 8.14342 11.611 9.92503 10.6731C12.1521 9.50068 14.3791 5.20191 17.2135 5.00651C19.481 4.85019 21.8025 7.54671 22.6798 8.91451C23.6246 8.91451 24.9068 8.91451 26.7289 9.30528C28.551 9.69606 30.778 11.0639 30.9805 14.5811C31.183 18.0983 29.7658 20.0523 28.7535 21.0293C27.7412 22.0063 22.6798 23.3741 20.8577 25.5235C19.0355 27.6729 14.784 28.8453 12.152 27.2821C10.0465 26.0315 10 24.5 9.92503 23.3741ZM9.92503 23.3741C9.85754 21.9411 10.006 18.958 11.1397 18.4891C12.5569 17.9029 12.9618 19.0753 13.9741 19.2707C14.784 19.427 15.5263 19.3358 15.7962 19.2707M29.7658 14.3856C29.3608 13.5389 28.0651 11.9626 26.1215 12.4316C23.6921 13.0178 22.4773 15.9489 21.465 16.9259L19.8454 18.4891" stroke="black" stroke-width="1.2"/>
</svg>
