<svg width="32" height="32" viewBox="0 0 32 32" fill="none" xmlns="http://www.w3.org/2000/svg">
<g clip-path="url(#clip0)">
<path d="M31.7253 21.3576L27.3674 16.9997L27.4583 16.9088C28.5151 15.8522 28.5154 14.1327 27.4597 13.0753C27.4585 13.0741 27.4573 13.0729 27.4561 13.0717C27.1948 12.8107 26.8896 12.6095 26.5574 12.4752C26.8452 11.7472 26.9077 10.515 25.9519 9.55923C25.9495 9.55678 25.947 9.55434 25.9443 9.55166C25.6843 9.29336 25.3811 9.09414 25.051 8.96059C25.3384 8.23379 25.4011 7.00063 24.4463 6.04531C24.4456 6.04482 24.4451 6.04409 24.4446 6.0436C24.1831 5.78213 23.8777 5.58071 23.5449 5.44594C23.6687 5.13222 23.7336 4.79507 23.7336 4.44765C23.7336 3.72329 23.4514 3.04238 22.9395 2.53017C22.9392 2.52993 22.9392 2.52969 22.939 2.52969C22.9387 2.52944 22.9385 2.5292 22.9382 2.52895C21.8809 1.47158 20.1604 1.47158 19.103 2.52895L19.0125 2.61977L17.667 1.27431C17.3818 0.988914 16.9456 0.918357 16.585 1.09853L13.1536 2.81435C12.103 1.98769 10.5598 2.03847 9.56738 3.02749C9.56567 3.02895 9.56421 3.03066 9.5625 3.03213C9.33545 3.25918 8.61548 4.06582 8.7959 5.33633C8.34106 5.45278 7.91064 5.68813 7.55542 6.04336C7.55518 6.04385 7.55469 6.04409 7.55444 6.04433C7.55444 6.04458 7.55444 6.04458 7.5542 6.04458C6.59961 6.99917 6.65942 8.22695 6.94971 8.96059C6.61914 9.09414 6.31543 9.29336 6.05518 9.5519C6.05273 9.55434 6.05029 9.55678 6.04785 9.55923C5.09351 10.5138 5.15332 11.7416 5.44336 12.4752C5.11108 12.6095 4.80566 12.8102 4.54443 13.0712C4.54272 13.0727 4.54126 13.0741 4.53979 13.0758C3.48267 14.1352 3.48169 15.8488 4.54175 16.9088L4.63257 16.9997L0.274658 21.3576C-0.0915527 21.7238 -0.0915527 22.3173 0.274658 22.6835C0.640625 23.0497 1.23438 23.0495 1.60034 22.6835L6.18921 18.0946C6.88306 18.3002 8.00024 18.2919 8.88013 17.412C8.88159 17.4105 8.8833 17.4088 8.88477 17.4071C9.34863 16.9418 9.62207 16.3375 9.66772 15.6884C10.3186 15.6425 10.9246 15.3676 11.3904 14.9018C11.3906 14.9015 11.3909 14.9013 11.3911 14.901C11.3914 14.9008 11.3914 14.9008 11.3916 14.9005C11.8579 14.4342 12.1326 13.8278 12.1782 13.1764C12.8057 13.1317 13.4204 12.871 13.8992 12.3927C13.9009 12.3913 13.9023 12.3898 13.9038 12.3883C14.3818 11.9093 14.6423 11.2948 14.6873 10.6676C15.3379 10.622 15.9436 10.3478 16.4099 9.88222C16.4114 9.88076 16.4128 9.87929 16.4141 9.87783C17.2917 8.99868 17.301 7.88491 17.095 7.18886L20.4292 3.85464C20.7554 3.52846 21.2864 3.52846 21.6125 3.85464C21.613 3.85512 21.6133 3.85537 21.6138 3.85586C21.9407 4.18276 21.9409 4.71206 21.6138 5.03921L19.3767 7.27627C19.0105 7.64248 19.0105 8.23598 19.3767 8.60219C19.7427 8.96816 20.3362 8.96841 20.7024 8.60219L21.939 7.36587C22.2659 7.04262 22.7922 7.04311 23.1184 7.3688C23.1191 7.36953 23.1199 7.37026 23.1206 7.37099C23.4468 7.69765 23.447 8.22671 23.1199 8.55385L21.3621 10.3117C20.9961 10.6779 20.9961 11.2714 21.3621 11.6376C21.7283 12.0038 22.3218 12.0036 22.688 11.6376L23.4417 10.8839C23.7686 10.557 24.2979 10.5565 24.625 10.8839C24.6267 10.8856 24.6284 10.8871 24.6301 10.8888C24.9529 11.2157 24.9524 11.7423 24.6262 12.0685L22.8684 13.8263C22.5024 14.1923 22.5022 14.786 22.8684 15.1522C23.2344 15.5182 23.8281 15.5182 24.1943 15.1522L24.9507 14.3957C25.2778 14.0717 25.8049 14.0722 26.1313 14.3986C26.1316 14.3986 26.1318 14.3988 26.1318 14.3991C26.1321 14.3991 26.1323 14.3993 26.1326 14.3996C26.4587 14.726 26.4587 15.2567 26.1326 15.5832L19.7695 21.9459C19.031 22.6845 18.0491 23.0912 17.0044 23.0915C17.0042 23.0915 17.0042 23.0915 17.0037 23.0915H14.9958C14.7471 23.0915 14.5085 23.1901 14.333 23.3661L8.30786 29.391C7.94189 29.757 7.94189 30.3507 8.30786 30.7167C8.67407 31.0832 9.26782 31.0829 9.63379 30.7167L15.3843 24.9665H16.6157L22.3662 30.7167C22.7324 31.0829 23.3262 31.0829 23.6921 30.7167C24.0581 30.3507 24.0581 29.7572 23.6921 29.391L18.9375 24.6366C19.74 24.3529 20.4758 23.8915 21.0955 23.2719L26.0417 18.3256L30.3997 22.6835C30.7656 23.0497 31.3594 23.0495 31.7253 22.6835C32.0916 22.3173 32.0916 21.7238 31.7253 21.3576ZM16.8191 3.07802L17.6868 3.94546L16 5.63222L14.5701 4.20229L16.8191 3.07802ZM7.55542 16.0851C7.5542 16.0863 7.55298 16.0875 7.55176 16.0888C7.22729 16.4105 6.69971 16.4154 6.37061 16.0863L5.86768 15.5832C5.54077 15.2562 5.54028 14.727 5.86743 14.3996C5.86768 14.3993 5.86792 14.3991 5.86816 14.3991C5.86816 14.3988 5.86841 14.3986 5.86865 14.3986C6.19556 14.0717 6.72485 14.0712 7.052 14.3983L7.55542 14.9015C7.88232 15.2284 7.88257 15.758 7.55542 16.0851ZM10.0657 13.5749C10.0654 13.5751 10.0649 13.5756 10.0647 13.5758C9.73779 13.9027 9.2085 13.9032 8.8811 13.5758L7.37378 12.0685C7.04761 11.7423 7.04712 11.2157 7.36987 10.8888C7.37158 10.8874 7.37329 10.8856 7.375 10.8839C7.70166 10.557 8.23096 10.5568 8.55835 10.8839L10.0657 12.3913C10.3926 12.7182 10.3931 13.2475 10.0657 13.5749ZM12.5762 11.0644C12.5759 11.0646 12.5759 11.0646 12.5757 11.0648C12.5754 11.0651 12.5752 11.0653 12.575 11.0653C12.2488 11.3917 11.7178 11.3917 11.3916 11.0653L8.87988 8.55385C8.55298 8.22695 8.55273 7.69765 8.87988 7.37051C8.88037 7.37002 8.88062 7.36977 8.8811 7.36928C9.20703 7.04336 9.7373 7.04311 10.0637 7.36855L12.5762 9.88076V9.881C12.9026 10.2074 12.9023 10.7382 12.5762 11.0644ZM15.0867 8.55385C15.0864 8.5541 15.0862 8.55434 15.0859 8.55459C15.0857 8.55459 15.0857 8.55483 15.0854 8.55508C14.7585 8.88198 14.2292 8.88222 13.9019 8.55508L10.8884 5.5414C10.5613 5.2145 10.562 4.68691 10.886 4.36025C10.8872 4.35903 10.8884 4.35805 10.8896 4.35683C11.2163 4.02993 11.7456 4.02944 12.073 4.35683L15.0864 7.37026C15.4136 7.69717 15.4138 8.22671 15.0867 8.55385Z" fill="black"/>
</g>
<defs>
<clipPath id="clip0">
<rect width="32" height="32" fill="white"/>
</clipPath>
</defs>
</svg>
