<svg width="32" height="32" viewBox="0 0 32 32" fill="none" xmlns="http://www.w3.org/2000/svg">
<g clip-path="url(#clip0)">
<path d="M27.625 10.625C26.4205 10.625 25.2421 10.3409 24.1759 9.79963C24.6848 9.29044 25 8.58756 25 7.8125C25 6.59031 24.2162 5.54825 23.125 5.16125V4.0625C23.125 1.82244 21.3026 0 19.0625 0H12.1875C9.94744 0 8.125 1.82244 8.125 4.0625V5.16125C7.03381 5.54825 6.25 6.59031 6.25 7.8125C6.25 9.03469 7.03381 10.0767 8.125 10.4637V13.75C8.125 16.5204 9.635 18.9445 11.875 20.2432V21.3125H9.375C6.10106 21.3125 3.4375 23.9761 3.4375 27.25V31.0625C3.4375 31.5802 3.85725 32 4.375 32H26.875C27.3927 32 27.8125 31.5802 27.8125 31.0625V27.25C27.8125 23.9761 25.1489 21.3125 21.875 21.3125H19.375V20.2432C21.2557 19.1528 22.6216 17.2691 23.0114 15.0533C24.4212 15.8371 26.0041 16.25 27.625 16.25C28.1427 16.25 28.5625 15.8302 28.5625 15.3125V11.5625C28.5625 11.0448 28.1427 10.625 27.625 10.625ZM10 4.0625C10 2.85631 10.9813 1.875 12.1875 1.875H19.0625C20.2687 1.875 21.25 2.85631 21.25 4.0625V5H10V4.0625ZM19.7331 6.875L18.7956 8.75H16.2044L17.1419 6.875H19.7331ZM15.0456 6.875L14.1081 8.75H11.5169L12.4544 6.875H15.0456ZM9.0625 8.75C8.54556 8.75 8.125 8.32944 8.125 7.8125C8.125 7.29556 8.54556 6.875 9.0625 6.875H10.3581L9.42062 8.75H9.0625ZM21.875 23.1875C24.1151 23.1875 25.9375 25.0099 25.9375 27.25V30.125H5.3125V27.25C5.3125 25.0099 7.13494 23.1875 9.375 23.1875H12.8125C13.3302 23.1875 13.75 22.7677 13.75 22.25V21.0127C14.3495 21.1676 14.9778 21.25 15.625 21.25C16.2722 21.25 16.9005 21.1676 17.5 21.0127V22.25C17.5 22.7677 17.9198 23.1875 18.4375 23.1875H21.875ZM21.25 13.75C21.25 16.8516 18.7266 19.375 15.625 19.375C12.5234 19.375 10 16.8516 10 13.75V10.625H21.25V13.75ZM22.1875 8.75H20.8919L21.8294 6.875H22.1875C22.7044 6.875 23.125 7.29556 23.125 7.8125C23.125 8.32944 22.7044 8.75 22.1875 8.75ZM26.6875 14.3174C25.5642 14.1788 24.4845 13.7914 23.5221 13.1772L23.125 12.9237V11.3657C24.2309 11.961 25.4395 12.3306 26.6875 12.4539V14.3174Z" fill="black"/>
</g>
<defs>
<clipPath id="clip0">
<rect width="32" height="32" fill="white"/>
</clipPath>
</defs>
</svg>
