<svg width="32" height="32" viewBox="0 0 32 32" fill="none" xmlns="http://www.w3.org/2000/svg">
<path d="M26.8387 0V5.16129H25.0932C24.7303 4.84387 24.2612 4.64516 23.7419 4.64516C23.2227 4.64516 22.7535 4.84387 22.3907 5.16129H9.60929C9.24645 4.84387 8.77729 4.64516 8.25806 4.64516C7.73884 4.64516 7.26968 4.84387 6.90684 5.16129H5.16129V0H0V13.4194H5.16129V8.25806H6.90684C7.01574 8.35303 7.13393 8.43561 7.2609 8.50632L9.78271 23.1339L9.78065 23.1381L11.4426 32H20.5574L22.2194 23.1381L22.2173 23.1339L24.7391 8.50632C24.8661 8.43561 24.9843 8.35303 25.0932 8.25806H26.8387V13.4194H32V0H26.8387ZM4.12903 12.3871H3.09677V7.22581H2.06452V12.3871H1.03226V1.03226H2.06452V6.19355H3.09677V1.03226H4.12903V12.3871ZM6.26684 7.22581H5.16129V6.19355H6.26684C6.22348 6.35974 6.19355 6.53058 6.19355 6.70968C6.19355 6.88877 6.22348 7.05961 6.26684 7.22581ZM21.7507 6.19355C21.7166 6.32516 21.696 6.4609 21.6883 6.60129L21.5257 7.22581H10.4743L10.3117 6.60129C10.3045 6.4609 10.2834 6.32516 10.2493 6.19355H21.7507ZM16 18.0645C14.2921 18.0645 12.9032 16.6756 12.9032 14.9677V13.9355C12.9032 12.2276 14.2921 10.8387 16 10.8387C17.7079 10.8387 19.0968 12.2276 19.0968 13.9355V14.9677C19.0968 16.6756 17.7079 18.0645 16 18.0645ZM16.9698 18.977C16.8774 19.2914 16.6828 19.5695 16.4031 19.7564L16 20.0248L15.5969 19.7559C15.3172 19.569 15.1221 19.2908 15.0302 18.9765C15.3419 19.0524 15.6655 19.0968 16 19.0968C16.3345 19.0968 16.6581 19.0524 16.9698 18.977ZM16 9.80645C14.0444 9.80645 12.4057 11.1742 11.9814 13.0023L10.7437 8.25806H21.2563L20.0186 13.0023C19.5943 11.1742 17.9556 9.80645 16 9.80645ZM7.22581 6.70968C7.22581 6.14039 7.68877 5.67742 8.25806 5.67742C8.82735 5.67742 9.29032 6.14039 9.29032 6.70968C9.29032 7.27897 8.82735 7.74194 8.25806 7.74194C7.68877 7.74194 7.22581 7.27897 7.22581 6.70968ZM8.35303 8.76439C8.85987 8.74065 9.31768 8.53729 9.66503 8.21213L12.352 18.5105L10.5827 21.695L8.35303 8.76439ZM19.7006 30.9677H12.2994L10.8645 23.3135L13.455 18.6508L13.3094 18.0929C13.5241 18.2782 13.7564 18.4423 14.0057 18.5806H13.9355C13.9355 19.4003 14.3422 20.1605 15.024 20.6147L16 21.2655L16.976 20.6147C17.6578 20.1605 18.0645 19.4003 18.0645 18.5806H17.9943C18.2436 18.4423 18.4759 18.2777 18.6906 18.0929L18.545 18.6508L21.1355 23.3135L19.7006 30.9677ZM21.4173 21.695L19.648 18.5105L22.335 8.21213C22.6823 8.53729 23.1401 8.74116 23.647 8.76439L21.4173 21.695ZM23.7419 7.74194C23.1726 7.74194 22.7097 7.27897 22.7097 6.70968C22.7097 6.14039 23.1726 5.67742 23.7419 5.67742C24.3112 5.67742 24.7742 6.14039 24.7742 6.70968C24.7742 7.27897 24.3112 7.74194 23.7419 7.74194ZM26.8387 7.22581H25.7332C25.7765 7.05961 25.8064 6.88877 25.8064 6.70968C25.8064 6.53058 25.7765 6.35974 25.7332 6.19355H26.8387V7.22581ZM30.9677 12.3871H29.9355V7.22581H28.9032V12.3871H27.871V1.03226H28.9032V6.19355H29.9355V1.03226H30.9677V12.3871Z" fill="black"/>
</svg>
