<svg width="32" height="32" viewBox="0 0 32 32" fill="none" xmlns="http://www.w3.org/2000/svg">
<g clip-path="url(#clip0)">
<path d="M31.3977 12.7052C30.5526 8.02225 29.0104 4.16931 28.1662 2.28935C27.7229 1.30211 26.7344 0.674113 25.6535 0.692151L16.4364 0.836769C15.4408 0.852433 14.5092 1.39562 14.0052 2.25454C13.4352 3.22605 13.4876 4.44778 14.1387 5.36691L16.2451 8.34067C16.9821 9.381 18.3205 9.77024 19.5006 9.28694L22.4824 8.06576C22.618 8.8985 22.4733 9.70782 22.0481 10.4773C20.9864 12.399 20.4254 14.4859 20.4052 16.5552C19.7214 16.0784 19.0192 15.6858 18.3008 15.3803C16.769 14.7287 15.1655 14.4688 13.5356 14.6078C13.1787 14.6383 12.8371 14.6865 12.5121 14.7473C10.7947 10.2498 7.63217 8.8754 5.24795 8.52192C2.61896 8.13213 0.41457 8.86566 0.322009 8.89707C0.0739908 8.98125 -0.0587601 9.25039 0.0251784 9.49849C0.109196 9.74666 0.378337 9.87989 0.626671 9.79627C0.647478 9.7893 2.73439 9.1 5.1417 9.46597C8.16357 9.92538 10.3264 11.7756 11.5783 14.9662C9.91741 15.4345 8.87661 16.1575 8.8187 16.1983C8.60446 16.3495 8.55335 16.6456 8.70454 16.8598C8.85564 17.0741 9.15184 17.1252 9.36608 16.974C9.38309 16.962 11.1003 15.7682 13.6164 15.5538C15.0906 15.428 16.5417 15.6636 17.9294 16.2539C19.6831 16.9999 21.346 18.319 22.8722 20.1746C22.9661 20.2888 23.102 20.3478 23.2391 20.3478C23.3453 20.3478 23.452 20.3125 23.5404 20.2398C23.7429 20.0732 23.7721 19.7741 23.6055 19.5717C22.8901 18.7018 22.1436 17.9419 21.3703 17.2945L21.3667 17.223C21.2576 15.0988 21.7807 12.925 22.8794 10.9365C23.4484 9.90663 23.6152 8.81883 23.3797 7.69844L24.8354 7.10225C25.078 7.00288 25.1941 6.72567 25.0948 6.48311C24.9954 6.24047 24.718 6.12449 24.4755 6.22378L19.141 8.40855C18.3723 8.7235 17.5002 8.46979 17.02 7.79203L14.9136 4.81827C14.4779 4.20309 14.4427 3.38538 14.8243 2.73507C15.1616 2.16016 15.7852 1.79656 16.4516 1.78612L25.6686 1.6415C26.3732 1.63098 27.0125 2.03738 27.3004 2.67835C28.1267 4.51867 29.6365 8.29044 30.4637 12.874C31.4516 18.3484 31.1918 23.3228 29.6916 27.6637C24.6706 29.6743 20.3614 30.5453 16.5243 30.3262C13.9175 30.1772 11.5156 29.511 9.38562 28.3457C6.99254 27.0367 4.87383 25.0587 3.08351 22.468C4.09908 22.1216 5.12604 22.1802 5.14431 22.1815C5.40586 22.199 5.63165 22.0015 5.64953 21.7402C5.66741 21.4787 5.46986 21.2522 5.20832 21.2343C5.16868 21.2316 4.22249 21.1709 3.16073 21.4503C1.68884 21.8375 0.706258 22.6885 0.319081 23.9112C0.239969 24.1611 0.378416 24.4279 0.628332 24.507C0.676037 24.5221 0.724217 24.5292 0.771764 24.5292C0.973184 24.5292 1.16013 24.4 1.22421 24.1978C1.41186 23.6051 1.78053 23.1854 2.21952 22.8884C5.78687 28.1157 10.5808 30.9374 16.4702 31.2739C16.8733 31.2969 17.2805 31.3085 17.6932 31.3085C21.4091 31.3084 25.5312 30.3729 30.2466 28.4637C30.3722 28.4128 30.4701 28.3106 30.5156 28.1829C32.1338 23.6367 32.4307 18.4293 31.3977 12.7052Z" fill="black"/>
</g>
<defs>
<clipPath id="clip0">
<rect width="32" height="32" fill="white"/>
</clipPath>
</defs>
</svg>
