<svg width="32" height="32" viewBox="0 0 32 32" fill="none" xmlns="http://www.w3.org/2000/svg">
<g clip-path="url(#clip0)">
<path d="M20.5194 25.2363C18.6559 25.2363 17.1375 26.7548 17.1375 28.6183C17.1375 30.4818 18.6559 32.0002 20.5194 32.0002C22.3898 32.0002 23.9014 30.4818 23.9014 28.6183C23.9014 26.7548 22.3829 25.2363 20.5194 25.2363ZM20.5194 30.9649C19.2287 30.9649 18.1727 29.9089 18.1727 28.6183C18.1727 27.3276 19.2287 26.2716 20.5194 26.2716C21.817 26.2716 22.8661 27.3276 22.8661 28.6183C22.8661 29.9089 21.8101 30.9649 20.5194 30.9649Z" fill="black"/>
<path d="M31.7418 2.31499L29.0846 0.12018C28.9811 0.0304546 28.843 -0.0109579 28.705 0.00284597C28.5669 0.0166498 28.4427 0.0856684 28.353 0.196099L27.2556 1.56959C27.0761 1.79045 27.1106 2.11484 27.3315 2.29429L27.5869 2.50825L6.22538 25.7333C6.21848 25.7402 6.21157 25.7471 6.21157 25.754C5.9355 26.0853 5.53518 26.1405 5.2177 25.8851C4.98303 25.6366 4.96923 25.3053 5.18319 25.0362C5.19009 25.0293 5.19009 25.0224 5.19699 25.0155L5.27981 24.905L5.54209 24.5875C6.17706 23.8835 6.37032 23.007 6.08734 22.1719C5.77675 21.2677 4.93472 20.5568 3.99605 20.3981C3.1057 20.2462 2.24296 20.5982 1.63559 21.3712C1.63559 21.3781 1.62869 21.3781 1.62869 21.385L1.35261 21.7508C1.34571 21.7577 1.34571 21.7646 1.33881 21.7715C0.462262 23.0622 0.0136358 24.5392 0.0757532 25.9196C0.137871 27.4035 0.765947 28.708 1.88406 29.6812L1.95308 29.7433C1.95998 29.7502 1.96688 29.7571 1.97379 29.764C3.05739 30.6336 4.37566 31.0961 5.72154 31.0961C5.88028 31.0961 6.03212 31.0892 6.19087 31.0754C7.70929 30.9511 9.10349 30.2471 10.1181 29.0876C10.125 29.0807 10.1319 29.0738 10.1319 29.0669L29.7679 4.30275L29.9818 4.4822C30.0785 4.55812 30.1889 4.59953 30.3131 4.59953C30.3338 4.59953 30.3476 4.59953 30.3684 4.59953C30.5064 4.58573 30.6306 4.51671 30.7204 4.40628L31.8178 3.03279C31.9903 2.81193 31.9627 2.49444 31.7418 2.31499ZM9.32435 28.4043C7.58506 30.3783 4.70695 30.6129 2.61567 28.9496L2.56045 28.8943L2.55355 28.8874C0.752143 27.3207 0.6003 24.6911 2.18084 22.3513L2.44312 21.9993C2.91935 21.3988 3.4508 21.3505 3.8166 21.4127C4.38946 21.5093 4.91401 21.9579 5.10726 22.5032C5.2246 22.8414 5.25911 23.359 4.76907 23.8974C4.76217 23.9043 4.75527 23.9112 4.75527 23.9181L4.47919 24.2562C4.47229 24.2631 4.46538 24.2701 4.45848 24.2839L4.37566 24.3943C3.83731 25.0776 3.89252 26.0093 4.5137 26.6305C4.5275 26.6443 4.5344 26.6512 4.54821 26.665C5.30742 27.2931 6.36342 27.1896 7.0053 26.4235L21.4787 10.6732L22.6382 11.6188L9.32435 28.4043ZM23.287 10.8113L22.1827 9.91403L28.3599 3.18464L28.9535 3.66087L23.287 10.8113ZM30.2372 3.35029L28.3806 1.81115L28.8292 1.24519L30.6858 2.78433L30.2372 3.35029Z" fill="black"/>
</g>
<defs>
<clipPath id="clip0">
<rect width="32" height="32" fill="white"/>
</clipPath>
</defs>
</svg>
