<svg width="32" height="32" viewBox="0 0 32 32" fill="none" xmlns="http://www.w3.org/2000/svg">
<path d="M16.9717 20.4257C16.8554 20.3087 16.6941 20.2426 16.5298 20.2426C16.3648 20.2426 16.2042 20.3088 16.0879 20.4257C15.971 20.5419 15.9048 20.7026 15.9048 20.8676C15.9048 21.0319 15.971 21.1932 16.0879 21.3094C16.2042 21.4256 16.3648 21.4925 16.5298 21.4925C16.6942 21.4925 16.8548 21.4257 16.9717 21.3094C17.0879 21.1926 17.1548 21.0319 17.1548 20.8676C17.1548 20.7026 17.0879 20.5419 16.9717 20.4257Z" fill="black"/>
<path d="M28.3837 12.9109C28.2674 12.7947 28.1062 12.7278 27.9412 12.7278C27.7768 12.7278 27.6162 12.7947 27.4993 12.9109C27.383 13.0272 27.3162 13.1884 27.3162 13.3528C27.3162 13.5172 27.383 13.6784 27.4993 13.7947C27.6162 13.9109 27.7768 13.9778 27.9412 13.9778C28.1062 13.9778 28.2674 13.9109 28.3837 13.7947C28.4999 13.6784 28.5662 13.5172 28.5662 13.3528C28.5662 13.1884 28.5 13.0272 28.3837 12.9109Z" fill="black"/>
<path d="M24.8951 1.96912H24.6997C24.3361 1.96912 23.9932 2.05905 23.6914 2.21712C23.4386 1.29231 22.5915 0.610435 21.5876 0.610435H19.902C19.4293 0.610435 18.9916 0.76206 18.634 1.01856C18.2473 0.407123 17.5655 0 16.79 0H15.1044C14.2696 0 13.5432 0.471623 13.1767 1.16218C12.8354 0.940496 12.4288 0.811122 11.9924 0.811122H10.9909C9.41101 0.811122 8.1257 2.09643 8.1257 3.6763V8.40909L6.12896 9.01546C4.40396 9.53928 3.27778 11.2218 3.45115 13.0163L3.45253 13.0305C3.77615 16.3808 5.48002 19.4946 8.12726 21.5735L11.0269 23.8505C10.6581 24.3024 10.4364 24.8788 10.4364 25.5062V29.3773C10.4364 30.8235 11.613 32 13.0591 32H24.2381C25.6843 32 26.8608 30.8235 26.8608 29.3773V25.5061C26.8608 24.861 26.6261 24.2698 26.2383 23.8125C26.2426 23.8048 26.2478 23.7979 26.2518 23.7899L27.6796 20.9597C28.2597 19.8098 28.5664 18.5211 28.5664 17.233V15.8865C28.5664 15.5413 28.2866 15.2615 27.9414 15.2615C27.5962 15.2615 27.3164 15.5413 27.3164 15.8865V17.233C27.3164 18.3265 27.0561 19.4205 26.5636 20.3967L25.2138 23.0724C24.9119 22.951 24.5828 22.8834 24.2381 22.8834H13.0591C12.7052 22.8834 12.3676 22.9543 12.0592 23.0819C12.0377 23.059 12.0149 23.0368 11.9893 23.0168L10.0478 21.4922H14.0283C14.3735 21.4922 14.6533 21.2123 14.6533 20.8672C14.6533 20.522 14.3735 20.2422 14.0283 20.2422H8.47845C6.33939 18.3831 4.97009 15.7406 4.69665 12.9102L4.69528 12.8959C4.57896 11.6919 5.33465 10.5629 6.49214 10.2114L8.61926 9.56546L8.16189 10.8507C8.13795 10.918 8.1257 10.9888 8.1257 11.0603V14.0445C8.1257 14.3897 8.40551 14.6695 8.7507 14.6695C9.09588 14.6695 9.37569 14.3897 9.37569 14.0445V11.1682L10.4799 8.06547C15.6567 6.32691 21.363 6.30991 26.55 8.01778L27.3164 8.27015V10.2393V10.9188C27.3164 11.264 27.5962 11.5438 27.9414 11.5438C28.2866 11.5438 28.5664 11.264 28.5664 10.9188V10.2393V7.81791V5.64048C28.5664 3.61605 26.9194 1.96912 24.8951 1.96912ZM22.9095 30.7499H14.6405V29.6564C14.6405 29.0178 15.1601 28.4981 15.7988 28.4981H21.7511C22.3898 28.4981 22.9095 29.0178 22.9095 29.6564V30.7499ZM11.6864 25.5061C11.6864 24.7492 12.3022 24.1334 13.0591 24.1334H24.2381C24.995 24.1334 25.6108 24.7492 25.6108 25.5061V29.3773C25.6108 30.1341 24.9949 30.7499 24.2381 30.7499H24.1594V29.6565C24.1594 28.3286 23.0791 27.2482 21.7511 27.2482H15.7988C14.4709 27.2482 13.3905 28.3286 13.3905 29.6565V30.7499H13.0591C12.3022 30.7499 11.6864 30.1341 11.6864 29.3772V25.5061ZM12.9233 4.70836V6.0986C11.9601 6.30779 11.0069 6.56935 10.0677 6.88541C9.76519 6.98716 9.52032 7.1986 9.37563 7.4766V3.6763C9.37563 2.78568 10.1002 2.06112 10.9908 2.06112H11.9923C12.5057 2.06112 12.9233 2.47874 12.9233 2.99211V4.70836ZM17.721 2.79143V4.70842V5.50592C16.5292 5.54435 15.3447 5.66135 14.1733 5.8576V4.70842V2.99218V2.18099C14.1733 1.66762 14.591 1.25 15.1043 1.25H16.79C17.3034 1.25 17.721 1.66762 17.721 2.18099V2.79143ZM22.5188 4.15017V4.88854V5.78254C21.3461 5.6081 20.1617 5.51117 18.971 5.49398V4.70842V2.79143C18.9711 2.27805 19.3887 1.86043 19.9021 1.86043H21.5878C22.1011 1.86043 22.5188 2.27805 22.5188 2.79143V4.15017ZM27.3164 6.95422L26.9409 6.8306C25.8984 6.48735 24.8394 6.21004 23.7687 5.99823V4.88854V4.15017C23.7687 3.6368 24.1863 3.21917 24.6997 3.21917H24.8951C26.2302 3.21917 27.3164 4.30536 27.3164 5.64048V6.95422Z" fill="black"/>
<path d="M14.808 12.1964C14.5607 12.1068 14.2837 12.1816 14.1152 12.3835L12.8281 13.9255L11.5411 12.3835C11.3725 12.1815 11.0955 12.1068 10.8483 12.1963C10.601 12.286 10.4363 12.5208 10.4363 12.7839V17.0176C10.4363 17.3627 10.7161 17.6426 11.0613 17.6426C11.4065 17.6426 11.6863 17.3627 11.6863 17.0176V14.508L12.3483 15.3012C12.4671 15.4435 12.6428 15.5257 12.8281 15.5257C13.0135 15.5257 13.1892 15.4435 13.308 15.3012L13.97 14.508V17.0175C13.97 17.3628 14.2498 17.6427 14.595 17.6427C14.9402 17.6427 15.22 17.3628 15.22 17.0177V12.784C15.22 12.521 15.0553 12.286 14.808 12.1964Z" fill="black"/>
<path d="M20.3637 12.1966C20.1164 12.107 19.8394 12.1818 19.6709 12.3837L18.3838 13.9257L17.0968 12.3837C16.9282 12.1818 16.6513 12.1071 16.4039 12.1966C16.1566 12.2863 15.9919 12.5212 15.9919 12.7842V17.0179C15.9919 17.363 16.2718 17.6429 16.6169 17.6429C16.9621 17.6429 17.2419 17.363 17.2419 17.0179V14.5083L17.904 15.3016C18.0227 15.4438 18.1985 15.5261 18.3838 15.5261C18.5691 15.5261 18.7449 15.4438 18.8636 15.3016L19.5257 14.5084V17.0179C19.5257 17.363 19.8055 17.6428 20.1507 17.6428C20.4959 17.6428 20.7757 17.3629 20.7757 17.0178V12.7841C20.7757 12.5211 20.611 12.2862 20.3637 12.1966Z" fill="black"/>
<path d="M26.1193 16.7775L24.3524 12.5438C24.2553 12.3111 24.0278 12.1595 23.7757 12.1595C23.5235 12.1595 23.296 12.3111 23.1989 12.5438L21.4319 16.7775C21.299 17.096 21.4494 17.462 21.768 17.595C21.8467 17.6278 21.9282 17.6434 22.0085 17.6434C22.2531 17.6433 22.4854 17.4988 22.5855 17.2589L22.7769 16.8002H24.7743L24.9657 17.2589C25.0987 17.5775 25.4647 17.728 25.7832 17.595C26.1018 17.462 26.2522 17.096 26.1193 16.7775ZM23.2986 15.5503L23.7756 14.4073L24.2526 15.5503H23.2986Z" fill="black"/>
</svg>
