<svg width="40" height="40" viewBox="0 0 40 40" fill="none" xmlns="http://www.w3.org/2000/svg">
<path d="M31.611 10.635C31.6303 10.6935 31.6608 10.7477 31.701 10.7943C31.7412 10.841 31.7901 10.8793 31.8451 10.907C31.9001 10.9347 31.96 10.9513 32.0214 10.9559C32.0828 10.9604 32.1445 10.9528 32.2029 10.9335L35.7862 9.75231C35.9043 9.7134 36.0021 9.62916 36.0581 9.51813C36.1141 9.40711 36.1237 9.27838 36.0848 9.16028C36.0459 9.04217 35.9616 8.94436 35.8506 8.88837C35.7396 8.83237 35.6109 8.82277 35.4928 8.86168L31.9094 10.0429C31.8509 10.0621 31.7968 10.0927 31.7502 10.1329C31.7035 10.1731 31.6652 10.2221 31.6375 10.2771C31.6098 10.3321 31.5932 10.392 31.5887 10.4535C31.5841 10.5149 31.5917 10.5766 31.611 10.635Z" fill="black"/>
<path d="M38.6144 11.4859L36.7159 12.0598C36.5969 12.0958 36.4971 12.1776 36.4384 12.2872C36.3797 12.3968 36.3669 12.5252 36.4029 12.6442C36.4389 12.7632 36.5206 12.863 36.6302 12.9217C36.7398 12.9804 36.8682 12.9932 36.9873 12.9572L38.8857 12.3833C38.9452 12.366 39.0007 12.337 39.049 12.2982C39.0973 12.2593 39.1374 12.2112 39.1669 12.1567C39.1965 12.1022 39.215 12.0424 39.2213 11.9808C39.2276 11.9191 39.2216 11.8568 39.2036 11.7975C39.1857 11.7381 39.1562 11.6829 39.1168 11.6351C39.0774 11.5873 39.0289 11.5477 38.9741 11.5187C38.9193 11.4897 38.8593 11.4719 38.7975 11.4663C38.7358 11.4607 38.6736 11.4673 38.6144 11.4859H38.6144Z" fill="black"/>
<path d="M38.606 9.77971L25.4995 14.0145C25.4142 13.9434 25.3203 13.8833 25.2202 13.8354L24.0646 13.2839C23.8709 13.192 23.6581 13.1476 23.4438 13.1543C23.2295 13.161 23.0199 13.2186 22.8323 13.3224L22.5536 13.4806C22.4693 13.3231 22.351 13.1864 22.2072 13.0803C22.0635 12.9743 21.8979 12.9015 21.7225 12.8674L19.7295 12.4829C19.3016 12.4005 18.8912 12.2446 18.5166 12.022L16.0428 10.5546C15.7212 10.364 15.3781 10.2121 15.0207 10.1023L14.0957 9.82167C14.7957 9.37337 15.3416 8.72133 15.6597 7.95335C15.9779 7.18538 16.053 6.33835 15.8751 5.52636C15.7023 4.75892 15.3111 4.05788 14.7487 3.50778C14.1864 2.95769 13.4769 2.58202 12.7059 2.4261C11.9348 2.27018 11.1351 2.34066 10.4032 2.62904C9.67133 2.91742 9.03849 3.41138 8.58104 4.05136L8.18025 3.41854C8.10429 3.25791 7.98682 3.12046 7.83998 3.0204C7.69314 2.92034 7.52226 2.86128 7.34497 2.84934C7.16768 2.83739 6.99041 2.87299 6.83148 2.95245C6.67255 3.03192 6.5377 3.15236 6.44088 3.30136L6.06931 3.87315C5.98546 4.00191 5.93266 4.14838 5.91507 4.30103C5.89749 4.45367 5.91559 4.60832 5.96796 4.75277C6.02033 4.89723 6.10554 5.02754 6.21686 5.13345C6.32819 5.23936 6.46259 5.31797 6.60947 5.36307L6.28135 5.48628C6.22314 5.50747 6.16971 5.53999 6.12414 5.58196C6.07858 5.62393 6.04178 5.67452 6.01589 5.7308C5.99 5.78707 5.97551 5.84792 5.97328 5.90983C5.97104 5.97174 5.9811 6.03348 6.00287 6.09147C6.02464 6.14947 6.05769 6.20258 6.10011 6.24772C6.14253 6.29287 6.19348 6.32916 6.25001 6.35449C6.30654 6.37983 6.36753 6.39371 6.42946 6.39533C6.49139 6.39695 6.55302 6.38628 6.6108 6.36393L7.85103 5.89839C7.85236 5.89784 7.85353 5.89714 7.85486 5.89667C7.76702 6.59395 7.86198 7.30209 8.13044 7.9516C8.39889 8.6011 8.8316 9.16965 9.38611 9.60143L7.12283 10.8552C7.10859 10.8631 7.09477 10.8717 7.08143 10.881C6.48189 11.3 6.04307 11.8007 5.77674 12.369L4.14252 15.4346C4.13838 15.4424 4.13471 15.4502 4.13088 15.458C4.01745 15.7046 3.98193 15.98 4.02907 16.2474C4.07621 16.5147 4.20376 16.7613 4.39471 16.9543L5.88994 18.457C6.02532 18.5935 6.19156 18.6954 6.37463 18.7542C6.55769 18.8129 6.7522 18.8268 6.94174 18.7946L7.38408 19.408L7.21666 19.8386L6.29478 20.1968C6.19279 20.2364 6.10784 20.3104 6.05466 20.406C6.00147 20.5016 5.9834 20.6128 6.00357 20.7203C6.02374 20.8278 6.08088 20.9249 6.1651 20.9947C6.24932 21.0645 6.35531 21.1027 6.46471 21.1026C6.47033 21.1026 6.47603 21.1013 6.48174 21.101C6.43055 21.23 6.38749 21.3621 6.35283 21.4964C6.34439 21.5277 6.33619 21.5589 6.32721 21.5902C6.25804 21.8367 6.10768 22.0526 5.90049 22.203L2.36478 24.714C1.9188 25.0113 1.57587 25.4395 1.38317 25.9397C1.19048 26.4398 1.15747 26.9874 1.28869 27.5071C1.28957 27.5106 1.29051 27.5141 1.2915 27.5177L1.99806 30.0496C2.02814 30.1679 2.05931 30.2873 2.09072 30.4073C2.25838 31.0479 2.43174 31.7106 2.45705 32.3346C2.4583 32.3649 2.46041 32.3958 2.46345 32.4277C2.49988 32.7547 2.6205 33.0667 2.81353 33.3331L2.70127 33.4453C2.35581 33.7918 1.95006 34.0724 1.50392 34.2734C1.26647 34.3803 1.06928 34.5601 0.94097 34.7867C0.812662 35.0133 0.759921 35.2749 0.790404 35.5335C0.820887 35.7921 0.933009 36.0343 1.11049 36.2248C1.28797 36.4154 1.52156 36.5444 1.77736 36.5931C1.85481 36.608 1.93349 36.6156 2.01236 36.6156C2.25909 36.6155 2.5 36.5407 2.70338 36.401L3.42338 35.9094C3.70636 35.7159 4.01749 35.5673 4.3458 35.4687L5.12189 35.2355C5.29413 35.1832 5.45196 35.0919 5.58305 34.9686C5.71414 34.8452 5.81495 34.6933 5.8776 34.5246C5.93839 34.3635 5.96054 34.1904 5.94228 34.0193C5.92402 33.8481 5.86585 33.6836 5.77244 33.539C5.75517 33.5121 5.73658 33.4857 5.71697 33.4603L5.69525 33.4321C5.75248 33.3333 5.7926 33.2255 5.81392 33.1134L6.92002 29.2801C6.92551 29.2611 6.92979 29.2417 6.93283 29.2221C6.93698 29.1958 6.94829 29.1711 6.96553 29.1508C6.98277 29.1305 7.00527 29.1153 7.03057 29.107C7.07244 29.093 7.11211 29.0731 7.14838 29.0479L11.4128 26.0883C12.4317 25.8253 15.5285 26.9147 18.0555 28.0727L24.5778 35.2812C24.5824 35.2863 24.5871 35.2913 24.5919 35.2962C24.6818 35.3868 24.7887 35.4587 24.9064 35.5078C25.0242 35.557 25.1505 35.5824 25.2781 35.5827H25.2928C25.4793 35.5792 25.6608 35.5218 25.8154 35.4176L25.9482 35.5546C26.0308 35.6395 26.1299 35.7413 26.2094 35.8239C26.1291 36.447 26.4047 36.9734 26.9897 37.2938C27.3018 37.4594 27.6605 37.5151 28.0082 37.4519C28.5209 37.3735 29.0408 37.3521 29.5583 37.3879L30.8692 37.6112C31.1737 37.6972 31.4998 37.6617 31.7786 37.5121C32.0086 37.3899 32.1936 37.1976 32.3067 36.9631C32.4199 36.7286 32.4554 36.4641 32.4081 36.208C32.3607 35.952 32.233 35.7177 32.0434 35.5391C31.8538 35.3606 31.6123 35.2472 31.3539 35.2153C30.881 35.1558 30.1756 35.0052 29.7435 34.7765L29.5606 34.6796C29.3524 34.5693 29.1544 34.4408 28.9689 34.2954L27.672 33.2753C27.732 33.0294 27.6932 32.7697 27.5639 32.5521C27.2963 32.1053 27.042 31.6196 26.7728 31.1053C25.3998 28.4836 23.6912 25.2206 17.74 21.5835C17.4464 21.4039 16.3288 20.1503 15.74 19.3804C15.6511 19.2646 15.5995 19.1244 15.5921 18.9785C15.5921 18.9742 15.5916 18.9699 15.5913 18.9655L15.5328 18.2279L22.6359 15.9254L24.2921 16.3426C24.405 16.3729 24.5213 16.3882 24.6381 16.3882C24.8314 16.3887 25.0225 16.3474 25.1983 16.2673C25.3742 16.1871 25.5307 16.07 25.6571 15.9238C25.7835 15.7776 25.8768 15.6058 25.9307 15.4202C25.9846 15.2347 25.9978 15.0396 25.9694 14.8485L38.8942 10.6718C39.0126 10.6336 39.1108 10.5499 39.1674 10.4393C39.2241 10.3286 39.2344 10.1999 39.1962 10.0816C39.1579 9.96333 39.0743 9.86506 38.9636 9.80844C38.8529 9.75182 38.7243 9.74148 38.606 9.77971ZM6.89908 4.47167C6.88894 4.47114 6.87915 4.46779 6.8708 4.46201C6.86245 4.45623 6.85588 4.44824 6.85182 4.43893C6.84722 4.43029 6.84514 4.42053 6.84582 4.41077C6.84649 4.401 6.8499 4.39162 6.85564 4.3837L7.22721 3.8119C7.23214 3.80322 7.23935 3.79605 7.24807 3.79117C7.25679 3.78629 7.26668 3.7839 7.27666 3.78425C7.279 3.78425 7.2815 3.78425 7.28408 3.78464C7.29491 3.78489 7.3054 3.78842 7.31418 3.79475C7.32297 3.80108 7.32963 3.80992 7.3333 3.82011L7.84205 4.63651L6.89908 4.47167ZM11.2236 3.35604C11.9093 3.20385 12.6261 3.28626 13.2594 3.59007C13.8926 3.89387 14.4055 4.40147 14.7158 5.03151C13.8503 5.03831 12.9854 4.98154 12.1281 4.86167C11.2646 4.74358 10.4114 4.559 9.57627 4.30956C10.0127 3.82799 10.5886 3.49465 11.2236 3.35604ZM9.03869 5.12565C10.0041 5.43122 10.994 5.65339 11.9974 5.78971C12.8547 5.91 13.7194 5.97035 14.5851 5.97034C14.7242 5.97034 14.8631 5.96878 15.002 5.96565C15.0247 6.12456 15.0352 6.28498 15.0332 6.4455C14.0622 6.44694 13.0922 6.38422 12.1295 6.25776C11.029 6.11228 9.9411 5.88376 8.8751 5.57417C8.91801 5.42068 8.97271 5.27073 9.03869 5.12565ZM8.83502 7.08081C8.79424 6.89541 8.77034 6.70669 8.76361 6.51698C9.82717 6.81831 10.9111 7.04238 12.007 7.18745C12.958 7.31239 13.9159 7.37763 14.8751 7.38276C14.6578 8.03269 14.2338 8.59368 13.6679 8.98014C13.102 9.36659 12.4251 9.55728 11.7407 9.52311C11.0563 9.48893 10.4018 9.23178 9.87718 8.79087C9.35255 8.34997 8.98657 7.74954 8.8351 7.0812L8.83502 7.08081ZM12.7858 10.4042C12.6322 11.5197 12.344 12.6124 11.9274 13.6585C11.379 12.3956 10.544 10.9615 10.1237 10.2644L10.3281 10.1512C11.0805 10.4669 11.9109 10.547 12.7098 10.3811L12.7858 10.4042ZM7.5983 11.6632L9.30213 10.7192C9.8051 11.5538 10.9867 13.5834 11.3931 14.8833C10.926 15.8577 10.374 16.7891 9.7433 17.6665C9.54539 17.4336 9.27451 17.2745 8.97471 17.2151L8.6808 17.1604C8.69447 17.0916 8.70206 17.0218 8.70346 16.9517C8.70533 16.7876 8.67367 16.6248 8.6104 16.4734C8.54714 16.322 8.45362 16.185 8.33557 16.071C8.54717 15.7511 8.67928 15.3853 8.72088 15.004C8.83807 14.0254 8.44228 12.9154 7.5483 11.7006C7.56557 11.6882 7.58143 11.6753 7.59869 11.6632H7.5983ZM9.59729 19.9034C9.56438 19.9597 9.51819 20.0072 9.46274 20.0416C9.40729 20.076 9.34427 20.0963 9.27916 20.1008C9.20841 20.106 9.13752 20.0927 9.07345 20.0623C9.00938 20.0318 8.95433 19.9852 8.91369 19.9271L8.90861 19.9198L7.75479 18.3192L8.10635 18.0067L8.79744 18.1357C8.86073 18.1483 8.92011 18.1758 8.9707 18.2158C9.02129 18.2559 9.06162 18.3074 9.08838 18.3661L9.61752 19.5317C9.64476 19.5906 9.6572 19.6553 9.65374 19.72C9.65028 19.7848 9.63103 19.8477 9.59768 19.9034H9.59729ZM6.91916 17.8071C6.86836 17.8522 6.80227 17.8761 6.73441 17.874C6.66655 17.8719 6.60206 17.8439 6.55416 17.7958L5.05932 16.2932C5.0043 16.2376 4.9671 16.1669 4.95248 16.09C4.93785 16.0132 4.94646 15.9337 4.97721 15.8617L6.61002 12.7989C6.61408 12.791 6.61783 12.7832 6.62166 12.7754C6.69033 12.629 6.77376 12.49 6.87064 12.3605C8.03525 13.9907 7.87064 14.9572 7.63728 15.4152L7.60119 15.3814C7.55659 15.3376 7.5037 15.3033 7.44562 15.2803C7.38755 15.2573 7.32547 15.2461 7.26303 15.2475C7.20059 15.2488 7.13904 15.2626 7.08201 15.2881C7.02497 15.3135 6.9736 15.3501 6.93091 15.3957C6.88822 15.4413 6.85507 15.495 6.83341 15.5536C6.81175 15.6121 6.80202 15.6745 6.80478 15.7368C6.80754 15.7992 6.82275 15.8605 6.8495 15.9169C6.87625 15.9733 6.91401 16.0239 6.96057 16.0655L7.68314 16.7425C7.71006 16.7677 7.73143 16.7982 7.74588 16.8321C7.76033 16.866 7.76755 16.9026 7.76706 16.9394C7.76658 16.9763 7.7584 17.0126 7.74307 17.0462C7.72773 17.0797 7.70556 17.1096 7.67799 17.1341L6.91916 17.8071ZM7.87432 20.5884L8.15666 20.479C8.35459 20.7536 8.64851 20.9437 8.9801 21.0117C8.97502 21.1168 8.97268 21.2244 8.97268 21.3331L7.30244 21.5859C7.36838 21.3788 7.48971 21.1141 7.8751 20.5886L7.87432 20.5884ZM4.99799 34.2002C4.98591 34.2328 4.96645 34.2622 4.94113 34.286C4.91581 34.3098 4.88532 34.3275 4.85205 34.3376L4.07603 34.5709C3.65569 34.697 3.25731 34.8872 2.89494 35.1348L2.17494 35.6264C2.14314 35.6481 2.10736 35.6634 2.06966 35.6712C2.03196 35.6791 1.99308 35.6794 1.95525 35.6722C1.91742 35.665 1.88139 35.6504 1.84921 35.6293C1.81704 35.6081 1.78935 35.5808 1.76775 35.5489C1.7443 35.5146 1.72875 35.4755 1.72222 35.4344C1.7157 35.3933 1.71836 35.3513 1.73002 35.3114C1.74134 35.2709 1.76149 35.2334 1.78904 35.2017C1.81658 35.1699 1.85083 35.1446 1.88931 35.1277C2.43894 34.8803 2.93885 34.5348 3.36455 34.1081L3.56361 33.9088C3.99821 34.0691 4.47265 34.0867 4.91791 33.9588L4.97385 34.0316C4.97775 34.0367 4.98166 34.0418 4.98463 34.0472C4.99885 34.0698 5.00748 34.0955 5.0098 34.1221C5.01212 34.1487 5.00807 34.1755 4.99799 34.2002ZM27.1293 34.0413L28.3902 35.0324C28.6196 35.2124 28.8646 35.3715 29.1222 35.5079L29.3051 35.6048C29.9889 35.9667 30.9567 36.1099 31.2371 36.1452C31.2792 36.1501 31.3196 36.1643 31.3555 36.1867C31.3915 36.2091 31.422 36.2392 31.4449 36.2748C31.4678 36.3095 31.4827 36.3488 31.4887 36.3899C31.4946 36.431 31.4913 36.4729 31.4792 36.5127C31.4683 36.5492 31.4503 36.5831 31.4261 36.6126C31.402 36.642 31.3722 36.6664 31.3385 36.6842C31.3044 36.7024 31.2669 36.7136 31.2284 36.7173C31.1899 36.7209 31.151 36.7169 31.114 36.7053C31.0944 36.6992 31.0743 36.6944 31.054 36.691L29.7028 36.4609C29.6945 36.4596 29.6861 36.4583 29.6778 36.4573C29.0675 36.4097 28.4538 36.4333 27.849 36.5276C27.7102 36.555 27.5661 36.535 27.44 36.4708C27.2339 36.3581 27.0582 36.1996 27.1674 35.8085C27.2409 35.5453 27.0932 35.3908 26.922 35.2118C26.8403 35.1264 26.7308 35.0139 26.6205 34.9004L26.4728 34.7484L27.1293 34.0413ZM17.2507 22.3834C22.9806 25.8853 24.6225 29.0209 25.9418 31.5403C26.2174 32.0667 26.4778 32.5638 26.7591 33.0337C26.7622 33.0386 26.7636 33.0443 26.7631 33.05C26.7625 33.0558 26.7601 33.0612 26.7562 33.0654L25.2974 34.6363C25.2951 34.639 25.2921 34.6411 25.2888 34.6426C25.2855 34.6441 25.2819 34.6448 25.2783 34.6448C25.2725 34.6448 25.2668 34.643 25.262 34.6397L18.6862 27.3721C18.6438 27.3252 18.5923 27.2874 18.5349 27.2609C18.0996 27.0602 16.5546 26.3624 14.9458 25.8164C13.0464 25.1712 11.7746 24.975 11.0572 25.2163C11.0154 25.2304 10.9758 25.2502 10.9395 25.2753L6.66096 28.2447C6.49467 28.3133 6.34818 28.4224 6.23486 28.5621C6.12153 28.7018 6.04496 28.8677 6.01213 29.0446L4.90635 32.8774C4.90086 32.8965 4.89658 32.9158 4.89353 32.9354C4.89284 32.9434 4.89053 32.9511 4.88672 32.9582C4.88292 32.9652 4.87771 32.9714 4.87142 32.9763C4.6998 33.0597 4.51161 33.1033 4.32083 33.1038C4.13005 33.1044 3.9416 33.062 3.76947 32.9797L3.71744 32.9546C3.5463 32.789 3.43384 32.5722 3.39713 32.337C3.3958 32.3233 3.39486 32.3099 3.39431 32.2965C3.36486 31.5714 3.17853 30.859 2.9983 30.1701C2.96705 30.0503 2.9358 29.9313 2.90588 29.8133L2.90306 29.8028L2.19658 27.2716C2.11404 26.9396 2.13635 26.5903 2.26046 26.2715C2.38456 25.9527 2.60436 25.6803 2.88963 25.4915C2.89392 25.4887 2.89806 25.4858 2.90228 25.4828L6.44408 22.9672C6.58832 22.8642 6.71832 22.7427 6.83072 22.6056L9.02947 22.2731C9.1076 22.9293 9.26174 23.5114 9.45916 23.7564C9.74666 24.1136 10.0373 24.211 10.2682 24.211C10.3759 24.2106 10.4827 24.1902 10.5829 24.1508L16.5935 21.8011C16.7914 22.0179 17.0117 22.213 17.2507 22.3834ZM15.9135 21.0599L10.2798 23.2623C10.2476 23.2359 10.2184 23.206 10.1928 23.1731C10.0574 22.9578 9.84057 21.7981 9.93064 20.8528C10.1124 20.7463 10.2664 20.5982 10.38 20.4207C10.4935 20.2432 10.5635 20.0414 10.5841 19.8317L14.6153 18.5249L14.6556 19.0334C14.6738 19.366 14.792 19.6854 14.9948 19.9496C15.1817 20.1942 15.5331 20.6249 15.9135 21.0599ZM10.2298 18.6121L11.4618 18.5615L10.3681 18.9162L10.2298 18.6121ZM15.9103 17.1192C16.0259 16.5827 16.0777 16.0345 16.0647 15.4858C16.8048 15.81 17.5622 16.0931 18.3335 16.3336L15.9103 17.1192ZM21.7601 15.2227L20.249 15.7126C19.5219 15.8335 17.5641 15.1446 15.9372 14.4038C15.8461 14.3623 15.7458 14.3449 15.646 14.3534C15.5462 14.3618 15.4502 14.3959 15.3674 14.4521C15.2845 14.5084 15.2175 14.5851 15.1729 14.6747C15.1282 14.7643 15.1074 14.864 15.1124 14.964C15.1722 16.1777 15.0264 17.1984 14.7571 17.4878L10.9043 17.6461C11.7465 16.3867 13.2574 13.7721 13.6945 10.6797L14.7469 10.9989C15.0328 11.0869 15.3072 11.2084 15.5645 11.361L18.0383 12.8285C18.5058 13.1062 19.0179 13.3007 19.5519 13.4035L21.5449 13.788C21.6054 13.7997 21.6599 13.8321 21.6992 13.8796C21.7385 13.9271 21.76 13.9868 21.7601 14.0484V15.2227ZM24.9242 15.3344C24.8733 15.3839 24.8105 15.4194 24.7418 15.4373C24.6731 15.4552 24.6009 15.4549 24.5324 15.4365L24.5239 15.4342L22.6974 14.974V14.4769L23.2894 14.141C23.346 14.1099 23.4091 14.0927 23.4736 14.0909C23.5382 14.089 23.6022 14.1024 23.6605 14.1301L24.8161 14.6817C24.8748 14.7096 24.9258 14.7514 24.9648 14.8033C25.0039 14.8552 25.0298 14.9158 25.0404 14.9799C25.0511 15.044 25.046 15.1098 25.0258 15.1715C25.0055 15.2332 24.9707 15.2892 24.9242 15.3346V15.3344Z" fill="black"/>
</svg>
