<svg width="32" height="32" viewBox="0 0 32 32" fill="none" xmlns="http://www.w3.org/2000/svg">
<path d="M16 3.57324C14.1907 3.57324 12.7188 5.04524 12.7188 6.85449C12.7188 8.66374 14.1907 10.1357 16 10.1357C17.8092 10.1357 19.2812 8.66374 19.2812 6.85449C19.2812 5.04524 17.8092 3.57324 16 3.57324ZM16 9.19824C14.7076 9.19824 13.6562 8.14687 13.6562 6.85449C13.6562 5.56212 14.7076 4.51074 16 4.51074C17.2924 4.51074 18.3438 5.56212 18.3438 6.85449C18.3438 8.14687 17.2924 9.19824 16 9.19824Z" fill="black"/>
<path d="M31.6836 25.6394L26.8125 23.9665V16.6113C26.8125 16.6054 26.8118 16.5996 26.8116 16.5938C26.8118 16.5816 26.8125 16.5695 26.8125 16.5573C26.8125 15.6808 26.4712 14.8568 25.8514 14.237L21.432 9.81758C21.1074 9.49302 20.6757 9.31421 20.2167 9.31421C19.7576 9.31421 19.326 9.49296 19.0014 9.81758L16.7917 12.0273C16.4803 12.3387 16.3036 12.7487 16.2897 13.1869C16.1936 13.1918 16.0971 13.1947 16.0001 13.1947C15.9031 13.1947 15.8066 13.1918 15.7104 13.1869C15.6966 12.7487 15.5198 12.3387 15.2084 12.0273L12.9987 9.81758C12.6741 9.49302 12.2424 9.31421 11.7834 9.31421C11.3243 9.31421 10.8927 9.49296 10.5681 9.81758L6.14862 14.237C5.52881 14.8568 5.1875 15.6808 5.1875 16.5573C5.1875 16.5695 5.18825 16.5816 5.18837 16.5938C5.18819 16.5996 5.1875 16.6054 5.1875 16.6113V23.9665L0.3165 25.6394C0.127125 25.7045 0 25.8826 0 26.0828V27.9578C0 28.2167 0.209875 28.4265 0.46875 28.4265C0.727625 28.4265 0.9375 28.2167 0.9375 27.9578V26.4174L5.8085 24.7444C5.99787 24.6793 6.125 24.5012 6.125 24.301V18.8526C6.133 18.8608 6.1405 18.8693 6.14856 18.8774C6.76831 19.4971 7.59231 19.8385 8.46875 19.8385C8.76494 19.8385 9.05475 19.7986 9.33313 19.7231L13.1144 22.2259L11.8209 27.2151C11.7591 27.4536 11.8926 27.6995 12.1264 27.7774L14.0014 28.4024C14.0506 28.4188 14.1006 28.4266 14.1497 28.4266C14.346 28.4266 14.5289 28.3024 14.5944 28.106C14.6762 27.8603 14.5435 27.5948 14.2979 27.513L12.8383 27.0265L14.1058 22.1373C14.1561 21.9435 14.0777 21.7393 13.9108 21.6288L10.3306 19.2591C10.4928 19.1469 10.6465 19.0199 10.7889 18.8775L13.1681 16.4982C14.0833 16.7916 15.0344 16.9406 16 16.9406C16.9656 16.9406 17.9166 16.7916 18.8318 16.4983L21.211 18.8775C21.3534 19.0199 21.5071 19.1469 21.6693 19.2591L18.0891 21.6288C17.9221 21.7393 17.8438 21.9436 17.8941 22.1373L19.1616 27.0266L17.702 27.5131C17.4564 27.595 17.3237 27.8605 17.4056 28.106C17.4711 28.3025 17.6539 28.4266 17.8502 28.4266C17.8993 28.4266 17.9493 28.4188 17.9985 28.4025L19.8735 27.7775C20.1073 27.6995 20.2409 27.4537 20.179 27.2151L18.8855 22.226L22.6668 19.7231C22.9451 19.7986 23.235 19.8385 23.5312 19.8385C24.4076 19.8385 25.2316 19.4972 25.8513 18.8775C25.8594 18.8693 25.8669 18.8608 25.8749 18.8526V24.3011C25.8749 24.5013 26.0021 24.6794 26.1914 24.7445L31.0625 26.4175V27.9578C31.0625 28.2168 31.2723 28.4266 31.5312 28.4266C31.7902 28.4266 32 28.2168 32 27.9578V26.0828C32 25.8826 31.8729 25.7045 31.6836 25.6394ZM10.1261 18.2145C9.87963 18.461 9.58781 18.6456 9.26962 18.761C9.26256 18.7631 9.25575 18.766 9.24881 18.7685C9.0015 18.8555 8.73869 18.901 8.46881 18.901C7.84275 18.901 7.25419 18.6573 6.8115 18.2145C6.36875 17.7719 6.125 17.1833 6.125 16.5573C6.125 15.9312 6.36875 15.3426 6.81144 14.9L11.2309 10.4805C11.3784 10.333 11.5746 10.2517 11.7833 10.2517C11.992 10.2517 12.1882 10.333 12.3357 10.4805L14.5454 12.6902C14.6466 12.7914 14.7157 12.9158 14.7498 13.0511C13.7599 12.8218 12.8511 12.3216 12.1147 11.5853C11.9317 11.4023 11.6349 11.4023 11.4519 11.5853C11.2688 11.7685 11.2688 12.0652 11.4519 12.2483C12.2988 13.0952 13.3253 13.6557 14.4098 13.9306L10.1261 18.2145ZM16 16.0031C15.2963 16.0031 14.6012 15.915 13.925 15.7414L15.2083 14.4581C15.3145 14.352 15.4047 14.2341 15.4786 14.1078C15.6521 14.1218 15.826 14.1293 16 14.1293C16.174 14.1293 16.3479 14.1218 16.5214 14.1078C16.5952 14.2341 16.6855 14.3519 16.7916 14.4581L18.075 15.7415C17.3988 15.9151 16.7037 16.0031 16 16.0031ZM25.1885 18.2146C24.7459 18.6573 24.1573 18.901 23.5312 18.901C23.2611 18.901 22.9979 18.8554 22.7504 18.7682C22.7438 18.7658 22.7373 18.7631 22.7306 18.7611C22.4123 18.6457 22.1205 18.4611 21.8739 18.2145L17.5901 13.9307C18.6747 13.6558 19.7011 13.0953 20.5481 12.2484C20.7312 12.0653 20.7312 11.7685 20.5481 11.5855C20.365 11.4025 20.0682 11.4025 19.8852 11.5855C19.1489 12.3218 18.2401 12.8219 17.2502 13.0512C17.2843 12.9159 17.3534 12.7915 17.4546 12.6903L19.6642 10.4806C19.8118 10.3331 20.0079 10.2518 20.2167 10.2518C20.4254 10.2518 20.6216 10.3331 20.7691 10.4806L25.1884 14.9001C25.6313 15.3426 25.875 15.9312 25.875 16.5573C25.875 17.1833 25.6313 17.7719 25.1885 18.2146Z" fill="black"/>
</svg>
