<svg width="32" height="32" viewBox="0 0 32 32" fill="none" xmlns="http://www.w3.org/2000/svg">
<g clip-path="url(#clip0)">
<path d="M26.2386 22.5033L20.5791 21.4459V20.3587C20.8192 20.4243 21.068 20.4584 21.3193 20.4584C22.2305 20.4584 23.0902 20.0159 23.6189 19.2748C24.8132 17.6007 25.3646 15.7969 25.3544 13.6027L25.3546 4.37828C25.3546 3.2088 24.8993 2.10932 24.0724 1.28239C23.2455 0.455392 22.146 -5.72205e-06 20.9765 -5.72205e-06H11.0236C8.60947 -5.72205e-06 6.64542 1.96404 6.64542 4.37815L6.64549 13.5982C6.63533 15.7969 7.18676 17.6006 8.38102 19.2748C9.08551 20.2621 10.3136 20.6593 11.421 20.3588V21.4459L5.76148 22.5033C2.96329 23.0261 0.932373 25.4717 0.932373 28.3182V31.059C0.932373 31.5787 1.35365 31.9999 1.87328 31.9999H30.1268C30.6465 31.9999 31.0677 31.5787 31.0677 31.059V28.3182C31.0677 25.4717 29.0368 23.0261 26.2386 22.5033ZM2.81418 28.3183C2.81418 26.5042 4.02406 24.9292 5.74002 24.4399V30.1182H2.81418V28.3183ZM9.91294 18.182C8.9593 16.8451 8.51895 15.3914 8.52723 13.6026L8.52717 4.37815C8.52717 3.00167 9.64704 1.8818 11.0235 1.8818H16H20.9765C21.6433 1.8818 22.2702 2.14149 22.7417 2.61301C23.2132 3.08453 23.4728 3.71143 23.4728 4.37821L23.4726 13.6069C23.4809 15.3913 23.0406 16.8451 22.0869 18.1819C21.9107 18.429 21.6237 18.5766 21.3193 18.5766C21.1633 18.5766 20.931 18.5376 20.7106 18.3519C20.3434 18.0425 20.2872 17.4707 20.5826 17.0501C21.2853 16.0492 21.5965 14.9913 21.5908 13.6161C21.5908 13.5703 21.5911 8.50885 21.5911 8.50885C21.5911 8.25926 21.492 8.01996 21.3155 7.84351C21.1391 7.66706 20.8998 7.56788 20.6502 7.56788H11.3499C11.1004 7.56788 10.8611 7.66706 10.6847 7.84351C10.5082 8.01996 10.409 8.25926 10.409 8.50879C10.409 8.50879 10.4091 13.5703 10.409 13.6124C10.4021 15.0029 10.7216 16.0752 11.4449 17.0892C11.5909 17.2938 11.6484 17.5429 11.6069 17.7908C11.5655 18.0387 11.43 18.2556 11.2254 18.4015C10.803 18.7027 10.2142 18.6043 9.91294 18.182ZM18.0003 19.0535C16.8413 20.0009 15.1588 20.0008 13.9997 19.0535C13.7725 18.8678 13.561 18.6854 13.3631 18.5051C13.6281 17.6836 13.5156 16.7514 12.977 15.9963C12.4847 15.3063 12.2859 14.6183 12.2909 13.6262C12.2909 13.6201 12.2909 13.6183 12.2909 9.44969H19.7093C19.7091 13.6183 19.7091 13.6198 19.7091 13.6218C19.714 14.6075 19.5209 15.2875 19.0426 15.9687C18.4988 16.7432 18.3747 17.6804 18.6369 18.5052C18.439 18.6854 18.2275 18.8678 18.0003 19.0535ZM7.62183 24.0702L9.50364 23.7186V25.468C9.50364 27.2861 10.2506 28.9328 11.4533 30.1182H7.62183V24.0702ZM11.3855 25.468V23.3669L12.5347 23.1522C12.98 23.069 13.3028 22.6803 13.3028 22.2273V20.8655C14.1229 21.3839 15.0613 21.644 16 21.644C16.9388 21.644 17.8773 21.3839 18.6974 20.8654V22.2273C18.6974 22.6803 19.0201 23.069 19.4654 23.1522L20.6859 23.3802V25.468C20.6859 28.0321 18.5998 30.1182 16.0357 30.1182C13.4715 30.1182 11.3855 28.0321 11.3855 25.468ZM22.5676 25.468V23.7318L24.3783 24.0701V30.1182H20.6179C21.8207 28.9328 22.5676 27.2861 22.5676 25.468ZM29.1859 30.1182H26.2601V24.4399C27.9761 24.9292 29.1859 26.5041 29.1859 28.3183V30.1182Z" fill="black"/>
<path d="M17.8781 16.8383C18.2456 16.4708 18.2456 15.8751 17.8781 15.5077C17.5107 15.1402 16.9149 15.1402 16.5475 15.5077C16.4013 15.6539 16.2068 15.7344 16.0001 15.7344C15.7933 15.7344 15.5989 15.6539 15.4526 15.5077C15.0853 15.1402 14.4895 15.1402 14.122 15.5077C13.7546 15.8751 13.7546 16.4708 14.122 16.8383C14.6237 17.34 15.2906 17.6162 16.0001 17.6162C16.7095 17.6162 17.3765 17.34 17.8781 16.8383Z" fill="black"/>
<path d="M20.1818 4.72498C20.1818 4.20535 19.7605 3.78408 19.2409 3.78408H12.759C12.2394 3.78408 11.8181 4.20535 11.8181 4.72498C11.8181 5.24461 12.2394 5.66589 12.759 5.66589H19.2409C19.7605 5.66589 20.1818 5.24461 20.1818 4.72498Z" fill="black"/>
</g>
<defs>
<clipPath id="clip0">
<rect width="32" height="32" fill="white"/>
</clipPath>
</defs>
</svg>
