<svg width="32" height="32" viewBox="0 0 32 32" fill="none" xmlns="http://www.w3.org/2000/svg">
<path d="M32 17.5068V14.1158C32 13.1898 31.2466 12.4363 30.3205 12.4363H20.9496L20.6857 12.1724C20.6592 12.1458 20.6306 12.1227 20.6008 12.1019C20.4047 11.9035 20.1548 11.7554 19.8686 11.6841L17.3141 11.0469C17.1701 11.011 17.0245 10.9961 16.8807 11.0009C16.8752 11.0008 16.87 11.0001 16.8646 11.0001H15.4062C13.9725 11.0001 12.5864 11.5102 11.4938 12.4363H1.67956C0.753437 12.4363 0 13.1897 0 14.1158V17.5068C0 18.4328 0.753437 19.1863 1.67956 19.1863H5.94144L4.23119 20.8965C3.98712 21.1406 3.98712 21.5363 4.23119 21.7804L7.12581 24.6751C7.243 24.7923 7.402 24.8581 7.56775 24.8581C7.7335 24.8581 7.8925 24.7923 8.00969 24.6751L12.8918 19.7929C13.6854 20.3305 14.6248 20.6224 15.5924 20.6224H16.9269C16.9289 20.6224 16.9309 20.6226 16.9328 20.6226C17.0596 20.6226 17.1876 20.6071 17.3141 20.5756L19.8686 19.9384C20.1249 19.8746 20.3524 19.7495 20.538 19.5817L22.3346 21.3782C22.4566 21.5002 22.6166 21.5613 22.7765 21.5613C22.9364 21.5613 23.0964 21.5002 23.2184 21.3782C23.4625 21.1341 23.4625 20.7384 23.2184 20.4943L21.0521 18.3279V14.3064L30.4845 23.7388L28.4737 25.7496L26.5118 23.7876C26.2677 23.5436 25.872 23.5436 25.6279 23.7876C25.3839 24.0316 25.3838 24.4274 25.6279 24.6715L28.0318 27.0754C28.149 27.1926 28.308 27.2585 28.4737 27.2585C28.6395 27.2585 28.7985 27.1926 28.9157 27.0754L31.8104 24.1808C31.9276 24.0636 31.9934 23.9046 31.9934 23.7389C31.9934 23.5731 31.9276 23.4142 31.8104 23.2969L27.6997 19.1863H30.3205C31.2466 19.1863 32 18.4329 32 17.5068ZM1.67956 17.9363C1.44269 17.9363 1.25 17.7436 1.25 17.5068V14.1159C1.25 13.879 1.44269 13.6863 1.67956 13.6863H11.4414L7.18875 17.939C7.17112 17.9375 7.15344 17.9363 7.13544 17.9363H1.67956ZM7.56769 23.3493L5.55694 21.3385L12.4239 14.4716L14.4347 16.4823L7.56769 23.3493ZM13.7971 18.8878L15.375 17.3098V19.0608C15.375 19.1649 15.3857 19.2673 15.4054 19.3671C14.8364 19.3372 14.2853 19.1721 13.7971 18.8878ZM15.375 12.5619V15.542L15.3217 15.5953L12.7944 13.0225C13.5682 12.521 14.4747 12.2501 15.4062 12.2501H15.4066C15.3861 12.3516 15.375 12.4558 15.375 12.5619ZM19.8021 18.4236C19.8021 18.5668 19.7051 18.691 19.5661 18.7257L17.0116 19.3628C16.8834 19.3949 16.7892 19.3409 16.7446 19.3061C16.6999 19.2712 16.6249 19.1929 16.6249 19.0608V12.5619C16.6249 12.4298 16.6999 12.3514 16.7446 12.3166C16.7798 12.2891 16.8453 12.2501 16.934 12.2501C16.9582 12.2501 16.9841 12.253 17.0116 12.2598L19.5661 12.8969C19.7051 12.9316 19.8021 13.0558 19.8021 13.199V18.4236ZM26.4497 17.9363L22.1996 13.6863H30.3205C30.5573 13.6863 30.75 13.879 30.75 14.1159V17.5068C30.75 17.7436 30.5573 17.9363 30.3205 17.9363H26.4497Z" fill="black"/>
<path d="M24.7651 22.0405C24.6489 21.9242 24.4876 21.8574 24.3232 21.8574C24.1589 21.8574 23.9976 21.9242 23.8814 22.0405C23.7651 22.1568 23.6982 22.318 23.6982 22.4824C23.6982 22.6468 23.7651 22.808 23.8814 22.9242C23.9976 23.0411 24.1589 23.1074 24.3232 23.1074C24.4876 23.1074 24.6489 23.0411 24.7651 22.9242C24.8814 22.808 24.9482 22.6468 24.9482 22.4824C24.9482 22.318 24.8814 22.1568 24.7651 22.0405Z" fill="black"/>
</svg>
