<svg width="32" height="32" viewBox="0 0 32 32" fill="none" xmlns="http://www.w3.org/2000/svg">
<path d="M16 0C7.16354 0 0 7.16354 0 16C0 24.8365 7.16354 32 16 32C24.8365 32 32 24.8365 32 16C31.9901 7.16771 24.8323 0.00989587 16 0ZM16 30.9333C7.7526 30.9333 1.06667 24.2474 1.06667 16C1.06667 7.7526 7.7526 1.06667 16 1.06667C24.2474 1.06667 30.9333 7.7526 30.9333 16C30.924 24.2435 24.2435 30.924 16 30.9333Z" fill="black"/>
<path d="M16.0001 2.66666C8.63628 2.66666 2.66675 8.63619 2.66675 16C2.66675 23.3638 8.63628 29.3333 16.0001 29.3333C23.3639 29.3333 29.3334 23.3638 29.3334 16C29.3251 8.63957 23.3605 2.67499 16.0001 2.66666ZM16.0001 28.2667C9.22534 28.2667 3.73341 22.7747 3.73341 16C3.73341 9.22525 9.22534 3.73332 16.0001 3.73332C22.7748 3.73332 28.2668 9.22525 28.2668 16C28.2592 22.7716 22.7717 28.2591 16.0001 28.2667Z" fill="black"/>
<path d="M23.8551 8.14547C23.6853 7.9762 23.4235 7.94104 23.215 8.05953L13.6933 13.4936C13.6876 13.4976 13.685 13.5038 13.679 13.5072C13.6181 13.5595 13.5611 13.6166 13.5085 13.6778C13.5051 13.6835 13.4988 13.6864 13.4952 13.6921L8.05924 23.2137C7.94023 23.4225 7.97564 23.685 8.14544 23.8551C8.31549 24.0249 8.57799 24.0603 8.78684 23.9413L18.3069 18.5072C18.3126 18.5033 18.3152 18.497 18.3212 18.4936C18.3821 18.4413 18.4392 18.3843 18.4918 18.3231C18.4952 18.3173 18.5014 18.3145 18.5051 18.3087L23.941 8.7887C24.061 8.57959 24.0259 8.31578 23.8551 8.14547ZM9.95429 22.0462L14.0749 14.8298L17.1736 17.9257L9.95429 22.0462ZM17.9254 17.1738L14.8321 14.0804L22.0485 9.95979L17.9254 17.1738Z" fill="black"/>
<path d="M7.46672 15.4667H5.33338C5.03885 15.4667 4.80005 15.7055 4.80005 16C4.80005 16.2945 5.03885 16.5333 5.33338 16.5333H7.46672C7.76125 16.5333 8.00005 16.2945 8.00005 16C8.00005 15.7055 7.76125 15.4667 7.46672 15.4667Z" fill="black"/>
<path d="M26.6667 15.4667H24.5333C24.2388 15.4667 24 15.7055 24 16C24 16.2945 24.2388 16.5333 24.5333 16.5333H26.6667C26.9612 16.5333 27.2 16.2945 27.2 16C27.2 15.7055 26.9612 15.4667 26.6667 15.4667Z" fill="black"/>
<path d="M15.9999 7.99999C16.2944 7.99999 16.5332 7.76119 16.5332 7.46665V5.33332C16.5332 5.03879 16.2944 4.79999 15.9999 4.79999C15.7054 4.79999 15.4666 5.03879 15.4666 5.33332V7.46665C15.4666 7.76119 15.7054 7.99999 15.9999 7.99999Z" fill="black"/>
<path d="M15.9999 24C15.7054 24 15.4666 24.2388 15.4666 24.5333V26.6667C15.4666 26.9612 15.7054 27.2 15.9999 27.2C16.2944 27.2 16.5332 26.9612 16.5332 26.6667V24.5333C16.5332 24.2388 16.2944 24 15.9999 24Z" fill="black"/>
</svg>
